<svg width="111" height="77" viewBox="0 0 111 77" fill="none" xmlns="http://www.w3.org/2000/svg">
<path d="M32.0227 74.7045L32.0265 72.7045H32.0227V74.7045ZM61.5455 38.1932L59.5455 38.1902V38.1902L61.5455 38.1932ZM2.53409 38.1932L4.53408 38.1991L4.53409 38.1962L2.53409 38.1932ZM19.8864 38.1932L21.8864 38.202L21.8864 38.1977L19.8864 38.1932ZM44.1932 38.1932L46.1932 38.1888V38.1887L44.1932 38.1932ZM32.019 76.7045C41.692 76.7226 49.6614 73.1344 55.1742 66.3668C60.6443 59.6517 63.528 50.0166 63.5454 38.1961L59.5455 38.1902C59.5289 49.4152 56.7875 58.0529 52.0729 63.8406C47.4011 69.5758 40.6262 72.7206 32.0265 72.7046L32.019 76.7045ZM63.5454 38.1962C63.563 26.4372 60.6774 16.9364 55.1863 10.3398C49.6561 3.69613 41.6713 0.227272 32.0227 0.227272V4.22727C40.6469 4.22727 47.4405 7.28683 52.112 12.8988C56.8226 18.5579 59.562 27.0401 59.5455 38.1902L63.5454 38.1962ZM32.0227 0.227272C22.3746 0.227272 14.4139 3.68746 8.90011 10.329C3.42726 16.9212 0.551582 26.4202 0.534093 38.1902L4.53409 38.1962C4.55069 27.023 7.28296 18.539 11.9777 12.8841C16.6315 7.27845 23.3981 4.22727 32.0227 4.22727V0.227272ZM0.5341 38.1872C0.499107 49.9797 3.37494 59.6083 8.85002 66.3286C14.3659 73.0989 22.3504 76.7045 32.0227 76.7045V72.7045C23.4223 72.7045 16.6284 69.5432 11.9511 63.8021C7.23302 58.011 4.50089 49.384 4.53408 38.1991L0.5341 38.1872ZM32.0227 58.8977C29.2033 58.8977 26.7715 57.5443 24.944 54.3344C23.0551 51.0164 21.853 45.7412 21.8863 38.202L17.8864 38.1843C17.8516 46.0543 19.087 52.1313 21.4679 56.3134C23.9103 60.6034 27.5808 62.8977 32.0227 62.8977V58.8977ZM21.8864 38.1977C21.903 30.811 23.1113 25.6469 24.9885 22.4003C26.8024 19.2632 29.2085 17.9318 32.0227 17.9318V13.9318C27.6096 13.9318 23.9647 16.18 21.5257 20.398C19.1501 24.5066 17.9038 30.4731 17.8864 38.1887L21.8864 38.1977ZM32.0227 17.9318C34.8576 17.9318 37.2713 19.2668 39.0877 22.4018C40.9682 25.6476 42.1765 30.8107 42.1932 38.1977L46.1932 38.1887C46.1758 30.4734 44.9296 24.5058 42.5487 20.3965C40.1037 16.1764 36.4493 13.9318 32.0227 13.9318V17.9318ZM42.1932 38.1976C42.2099 45.7396 41.0078 51.0157 39.1185 54.3344C37.292 57.5425 34.8611 58.8977 32.0227 58.8977V62.8977C36.4799 62.8977 40.1512 60.6052 42.5946 56.3134C44.9751 52.132 46.2106 46.0559 46.1932 38.1888L42.1932 38.1976ZM108.294 3.18182H110.294V1.18182H108.294V3.18182ZM92.6466 3.18182V1.18182H92.0755L91.5905 1.48337L92.6466 3.18182ZM75.4307 13.8864L74.3746 12.1879L73.4307 12.7748V13.8864H75.4307ZM75.4307 28.4773H73.4307V32.0441L76.4739 30.1836L75.4307 28.4773ZM91.0443 18.9318V16.9318H90.4814L90.0011 17.2254L91.0443 18.9318ZM91.4534 18.9318H93.4534V16.9318H91.4534V18.9318ZM91.4534 73H89.4534V75H91.4534V73ZM108.294 73V75H110.294V73H108.294ZM108.294 1.18182H92.6466V5.18182H108.294V1.18182ZM91.5905 1.48337L74.3746 12.1879L76.4867 15.5848L93.7027 4.88026L91.5905 1.48337ZM73.4307 13.8864V28.4773H77.4307V13.8864H73.4307ZM76.4739 30.1836L92.0875 20.6382L90.0011 17.2254L74.3875 26.7709L76.4739 30.1836ZM91.0443 20.9318H91.4534V16.9318H91.0443V20.9318ZM89.4534 18.9318V73H93.4534V18.9318H89.4534ZM91.4534 75H108.294V71H91.4534V75ZM110.294 73V3.18182H106.294V73H110.294Z" fill="#005593"/>
</svg>
