<svg width="130" height="77" viewBox="0 0 130 77" fill="none" xmlns="http://www.w3.org/2000/svg">
<path d="M32.0227 74.7045L32.0265 72.7045H32.0227V74.7045ZM61.5455 38.1932L59.5455 38.1902V38.1902L61.5455 38.1932ZM2.53409 38.1932L4.53408 38.1991L4.53409 38.1962L2.53409 38.1932ZM19.8864 38.1932L21.8864 38.202L21.8864 38.1977L19.8864 38.1932ZM44.1932 38.1932L46.1932 38.1888V38.1887L44.1932 38.1932ZM32.019 76.7045C41.692 76.7226 49.6614 73.1344 55.1742 66.3668C60.6443 59.6517 63.528 50.0166 63.5454 38.1961L59.5455 38.1902C59.5289 49.4152 56.7875 58.0529 52.0729 63.8406C47.4011 69.5758 40.6262 72.7206 32.0265 72.7046L32.019 76.7045ZM63.5454 38.1962C63.563 26.4372 60.6774 16.9364 55.1863 10.3398C49.6561 3.69613 41.6713 0.227272 32.0227 0.227272V4.22727C40.6469 4.22727 47.4405 7.28683 52.112 12.8988C56.8226 18.5579 59.562 27.0401 59.5455 38.1902L63.5454 38.1962ZM32.0227 0.227272C22.3746 0.227272 14.4139 3.68746 8.90011 10.329C3.42726 16.9212 0.551582 26.4202 0.534093 38.1902L4.53409 38.1962C4.55069 27.023 7.28296 18.539 11.9777 12.8841C16.6315 7.27845 23.3981 4.22727 32.0227 4.22727V0.227272ZM0.5341 38.1872C0.499107 49.9797 3.37494 59.6083 8.85002 66.3286C14.3659 73.0989 22.3504 76.7045 32.0227 76.7045V72.7045C23.4223 72.7045 16.6284 69.5432 11.9511 63.8021C7.23302 58.011 4.50089 49.384 4.53408 38.1991L0.5341 38.1872ZM32.0227 58.8977C29.2033 58.8977 26.7715 57.5443 24.944 54.3344C23.0551 51.0164 21.853 45.7412 21.8863 38.202L17.8864 38.1843C17.8516 46.0543 19.087 52.1313 21.4679 56.3134C23.9103 60.6034 27.5808 62.8977 32.0227 62.8977V58.8977ZM21.8864 38.1977C21.903 30.811 23.1113 25.6469 24.9885 22.4003C26.8024 19.2632 29.2085 17.9318 32.0227 17.9318V13.9318C27.6096 13.9318 23.9647 16.18 21.5257 20.398C19.1501 24.5066 17.9038 30.4731 17.8864 38.1887L21.8864 38.1977ZM32.0227 17.9318C34.8576 17.9318 37.2713 19.2668 39.0877 22.4018C40.9682 25.6476 42.1765 30.8107 42.1932 38.1977L46.1932 38.1887C46.1758 30.4734 44.9296 24.5058 42.5487 20.3965C40.1037 16.1764 36.4493 13.9318 32.0227 13.9318V17.9318ZM42.1932 38.1976C42.2099 45.7396 41.0078 51.0157 39.1185 54.3344C37.292 57.5425 34.8611 58.8977 32.0227 58.8977V62.8977C36.4799 62.8977 40.1512 60.6052 42.5946 56.3134C44.9751 52.132 46.2106 46.0559 46.1932 38.1888L42.1932 38.1976ZM76.0102 73H74.0102V75H76.0102V73ZM127.692 73V75H129.692V73H127.692ZM127.692 59.3977H129.692V57.3977H127.692V59.3977ZM99.3966 59.3977H97.3966V61.3977H99.3966V59.3977ZM99.3966 58.9545L98.0405 57.4845L97.3966 58.0785V58.9545H99.3966ZM107.749 51.25L106.435 49.7423L106.414 49.7608L106.393 49.7799L107.749 51.25ZM74.9875 25.3409L72.9875 25.3457L72.9923 27.3409H74.9875V25.3409ZM90.9761 25.3409V27.3409H92.9761V25.3409H90.9761ZM101.476 38.5682L102.794 40.073L102.803 40.0644L102.813 40.0556L101.476 38.5682ZM76.0102 60.8636L74.6928 59.3589L74.0102 59.9564V60.8636H76.0102ZM76.0102 75H127.692V71H76.0102V75ZM129.692 73V59.3977H125.692V73H129.692ZM127.692 57.3977H99.3966V61.3977H127.692V57.3977ZM101.397 59.3977V58.9545H97.3966V59.3977H101.397ZM100.753 60.4246L109.105 52.7201L106.393 49.7799L98.0405 57.4845L100.753 60.4246ZM109.063 52.7577C124.221 39.5458 128.84 32.3037 128.84 23.3295H124.84C124.84 30.3781 121.55 36.5678 106.435 49.7423L109.063 52.7577ZM128.84 23.3295C128.84 16.4485 126.012 10.5996 120.991 6.51032C116.005 2.45021 108.995 0.227272 100.726 0.227272V4.22727C108.31 4.22727 114.356 6.2657 118.465 9.61184C122.537 12.9288 124.84 17.6311 124.84 23.3295H128.84ZM100.726 0.227272C92.6303 0.227272 85.6775 2.56207 80.7253 6.95729C75.7468 11.3758 72.9692 17.7215 72.9875 25.3457L76.9875 25.3361C76.9717 18.7444 79.3419 13.5333 83.3804 9.94896C87.4453 6.34133 93.3788 4.22727 100.726 4.22727V0.227272ZM74.9875 27.3409H90.9761V23.3409H74.9875V27.3409ZM92.9761 25.3409C92.9761 22.6039 93.8107 20.6632 95.0597 19.411C96.3106 18.157 98.1836 17.3864 100.658 17.3864V13.3864C97.3369 13.3864 94.3689 14.4396 92.2278 16.5861C90.0848 18.7345 88.9761 21.7711 88.9761 25.3409H92.9761ZM100.658 17.3864C103.098 17.3864 105.04 18.1352 106.35 19.3364C107.64 20.5192 108.476 22.2828 108.476 24.6591H112.476C112.476 21.2741 111.249 18.4013 109.054 16.3881C106.878 14.3932 103.911 13.3864 100.658 13.3864V17.3864ZM108.476 24.6591C108.476 28.8684 105.953 31.8553 100.139 37.0807L102.813 40.0556C108.454 34.9856 112.476 30.8816 112.476 24.6591H108.476ZM100.159 37.0634L74.6928 59.3589L77.3277 62.3684L102.794 40.073L100.159 37.0634ZM74.0102 60.8636V73H78.0102V60.8636H74.0102Z" fill="#005593"/>
</svg>
