<svg width="133" height="77" viewBox="0 0 133 77" fill="none" xmlns="http://www.w3.org/2000/svg">
<path d="M32.0759 74.7045L32.0796 72.7045H32.0759V74.7045ZM61.5986 38.1932L59.5986 38.1902V38.1902L61.5986 38.1932ZM2.58721 38.1932L4.58721 38.1991L4.58721 38.1962L2.58721 38.1932ZM19.9395 38.1932L21.9395 38.202L21.9395 38.1977L19.9395 38.1932ZM44.2463 38.1932L46.2463 38.1888V38.1887L44.2463 38.1932ZM32.0721 76.7045C41.7451 76.7226 49.7146 73.1344 55.2273 66.3668C60.6974 59.6517 63.5811 50.0166 63.5986 38.1961L59.5986 38.1902C59.582 49.4152 56.8406 58.0529 52.1261 63.8406C47.4542 69.5758 40.6793 72.7206 32.0796 72.7046L32.0721 76.7045ZM63.5986 38.1962C63.6161 26.4372 60.7305 16.9364 55.2394 10.3398C49.7092 3.69613 41.7244 0.227272 32.0759 0.227272V4.22727C40.7001 4.22727 47.4936 7.28683 52.1651 12.8988C56.8758 18.5579 59.6152 27.0401 59.5986 38.1902L63.5986 38.1962ZM32.0759 0.227272C22.4277 0.227272 14.4671 3.68746 8.95323 10.329C3.48039 16.9212 0.604706 26.4202 0.587217 38.1902L4.58721 38.1962C4.60381 27.023 7.33609 18.539 12.0309 12.8841C16.6846 7.27845 23.4513 4.22727 32.0759 4.22727V0.227272ZM0.587223 38.1872C0.552231 49.9797 3.42806 59.6083 8.90314 66.3286C14.419 73.0989 22.4035 76.7045 32.0759 76.7045V72.7045C23.4754 72.7045 16.6816 69.5432 12.0042 63.8021C7.28614 58.011 4.55402 49.384 4.58721 38.1991L0.587223 38.1872ZM32.0759 58.8977C29.2564 58.8977 26.8247 57.5443 24.9972 54.3344C23.1082 51.0164 21.9061 45.7412 21.9395 38.202L17.9395 38.1843C17.9047 46.0543 19.1401 52.1313 21.521 56.3134C23.9634 60.6034 27.6339 62.8977 32.0759 62.8977V58.8977ZM21.9395 38.1977C21.9562 30.811 23.1644 25.6469 25.0416 22.4003C26.8555 19.2632 29.2617 17.9318 32.0759 17.9318V13.9318C27.6628 13.9318 24.0178 16.18 21.5788 20.398C19.2032 24.5066 17.9569 30.4731 17.9395 38.1887L21.9395 38.1977ZM32.0759 17.9318C34.9107 17.9318 37.3244 19.2668 39.1408 22.4018C41.0213 25.6476 42.2296 30.8107 42.2463 38.1977L46.2463 38.1887C46.2289 30.4734 44.9827 24.5058 42.6018 20.3965C40.1568 16.1764 36.5024 13.9318 32.0759 13.9318V17.9318ZM42.2463 38.1976C42.263 45.7396 41.061 51.0157 39.1716 54.3344C37.3451 57.5425 34.9142 58.8977 32.0759 58.8977V62.8977C36.533 62.8977 40.2043 60.6052 42.6477 56.3134C45.0283 52.132 46.2637 46.0559 46.2463 38.1888L42.2463 38.1976ZM130.575 53.1591L128.575 53.1512L128.575 53.1647L130.575 53.1591ZM114.211 37.1705H112.211V38.9499L113.978 39.1569L114.211 37.1705ZM114.211 36.625L113.927 34.6453L112.211 34.8914V36.625H114.211ZM127.984 22.2045L125.984 22.1986L125.984 22.2059L125.984 22.2132L127.984 22.2045ZM76.5747 23.3636L74.5748 23.3417L74.5526 25.3636H76.5747V23.3636ZM92.6997 23.3636V25.3636H94.6434L94.6989 23.4208L92.6997 23.3636ZM111.722 23.2955L109.722 23.2809L109.722 23.2952L109.722 23.3095L111.722 23.2955ZM94.4724 31.4773V29.4773H92.4724V31.4773H94.4724ZM94.4724 43.4773H92.4724V45.4773H94.4724V43.4773ZM112.847 51.8636L110.848 51.8359L110.847 51.8635L110.848 51.8912L112.847 51.8636ZM92.1543 52.4773L94.1529 52.4033L94.0816 50.4773H92.1543V52.4773ZM75.177 52.4773V50.4773H73.1553L73.1771 52.4989L75.177 52.4773ZM102.62 75.9545C111.136 75.9545 118.578 73.7032 123.941 69.7124C129.335 65.6979 132.594 59.9288 132.575 53.1535L128.575 53.1647C128.59 58.5257 126.053 63.1544 121.553 66.5035C117.02 69.8764 110.468 71.9545 102.62 71.9545V75.9545ZM132.575 53.167C132.594 48.4096 131.033 44.1949 127.864 41.0064C124.717 37.8396 120.152 35.8524 114.444 35.184L113.978 39.1569C119.043 39.7499 122.677 41.4615 125.027 43.826C127.355 46.1687 128.59 49.3177 128.575 53.1512L132.575 53.167ZM116.211 37.1705V36.625H112.211V37.1705H116.211ZM114.495 38.6047C123.328 37.3376 130.023 31.2552 129.984 22.1959L125.984 22.2132C126.013 28.8357 121.253 33.5942 113.927 34.6453L114.495 38.6047ZM129.984 22.2105C130.022 9.32679 118.394 0.227272 102.757 0.227272V4.22727C117.051 4.22727 126.013 12.3096 125.984 22.1986L129.984 22.2105ZM102.757 0.227272C86.9978 0.227272 74.7273 9.47136 74.5748 23.3417L78.5746 23.3856C78.6949 12.4377 88.3789 4.22727 102.757 4.22727V0.227272ZM76.5747 25.3636H92.6997V21.3636H76.5747V25.3636ZM94.6989 23.4208C94.7934 20.1124 97.7856 17.3864 102.757 17.3864V13.3864C96.4775 13.3864 90.8787 17.0694 90.7005 23.3065L94.6989 23.4208ZM102.757 17.3864C105.035 17.3864 106.786 18.0728 107.935 19.0881C109.063 20.0853 109.735 21.5036 109.722 23.2809L113.722 23.3101C113.744 20.4168 112.609 17.8806 110.584 16.0909C108.579 14.3193 105.83 13.3864 102.757 13.3864V17.3864ZM109.722 23.3095C109.735 25.0755 108.981 26.5457 107.598 27.6252C106.179 28.733 104.018 29.4773 101.257 29.4773V33.4773C104.7 33.4773 107.788 32.5511 110.06 30.7783C112.367 28.977 113.744 26.3563 113.722 23.2814L109.722 23.3095ZM101.257 29.4773H94.4724V33.4773H101.257V29.4773ZM92.4724 31.4773V43.4773H96.4724V31.4773H92.4724ZM94.4724 45.4773H101.257V41.4773H94.4724V45.4773ZM101.257 45.4773C104.48 45.4773 106.946 46.2739 108.542 47.4429C110.093 48.5796 110.872 50.0874 110.848 51.8359L114.847 51.8914C114.891 48.7308 113.403 46.0454 110.906 44.2162C108.453 42.4193 105.09 41.4773 101.257 41.4773V45.4773ZM110.848 51.8912C110.873 53.7357 110.117 55.2606 108.773 56.3657C107.399 57.4955 105.319 58.25 102.688 58.25V62.25C106.058 62.25 109.091 61.283 111.314 59.4553C113.566 57.6031 114.89 54.9348 114.847 51.8361L110.848 51.8912ZM102.688 58.25C97.2672 58.25 94.2664 55.4691 94.1529 52.4033L90.1556 52.5513C90.383 58.69 96.1777 62.25 102.688 62.25V58.25ZM92.1543 50.4773H75.177V54.4773H92.1543V50.4773ZM73.1771 52.4989C73.3298 66.6181 86.0303 75.9545 102.62 75.9545V71.9545C87.301 71.9545 77.297 63.5637 77.1769 52.4557L73.1771 52.4989Z" fill="white"/>
</svg>
