<svg width="136" height="77" viewBox="0 0 136 77" fill="none" xmlns="http://www.w3.org/2000/svg">
<path d="M31.9727 74.7045L31.9765 72.7045H31.9727V74.7045ZM61.4955 38.1932L59.4955 38.1902V38.1902L61.4955 38.1932ZM2.48409 38.1932L4.48408 38.1991L4.48409 38.1962L2.48409 38.1932ZM19.8364 38.1932L21.8363 38.202L21.8364 38.1977L19.8364 38.1932ZM44.1432 38.1932L46.1432 38.1888V38.1887L44.1432 38.1932ZM31.969 76.7045C41.642 76.7226 49.6114 73.1344 55.1242 66.3668C60.5943 59.6517 63.478 50.0166 63.4954 38.1961L59.4955 38.1902C59.4789 49.4152 56.7375 58.0529 52.0229 63.8406C47.3511 69.5758 40.5762 72.7206 31.9765 72.7046L31.969 76.7045ZM63.4954 38.1962C63.5129 26.4372 60.6274 16.9364 55.1363 10.3398C49.6061 3.69613 41.6213 0.227272 31.9727 0.227272V4.22727C40.5969 4.22727 47.3905 7.28683 52.062 12.8988C56.7726 18.5579 59.512 27.0401 59.4955 38.1902L63.4954 38.1962ZM31.9727 0.227272C22.3246 0.227272 14.3639 3.68746 8.85011 10.329C3.37726 16.9212 0.501579 26.4202 0.48409 38.1902L4.48409 38.1962C4.50069 27.023 7.23296 18.539 11.9277 12.8841C16.5815 7.27845 23.3481 4.22727 31.9727 4.22727V0.227272ZM0.484097 38.1872C0.449104 49.9797 3.32494 59.6083 8.80002 66.3286C14.3159 73.0989 22.3004 76.7045 31.9727 76.7045V72.7045C23.3723 72.7045 16.5784 69.5432 11.9011 63.8021C7.18301 58.011 4.45089 49.384 4.48408 38.1991L0.484097 38.1872ZM31.9727 58.8977C29.1533 58.8977 26.7215 57.5443 24.894 54.3344C23.0051 51.0164 21.803 45.7412 21.8363 38.202L17.8364 38.1843C17.8016 46.0543 19.037 52.1313 21.4179 56.3134C23.8603 60.6034 27.5308 62.8977 31.9727 62.8977V58.8977ZM21.8364 38.1977C21.853 30.811 23.0613 25.6469 24.9385 22.4003C26.7524 19.2632 29.1585 17.9318 31.9727 17.9318V13.9318C27.5596 13.9318 23.9146 16.18 21.4757 20.398C19.1001 24.5066 17.8538 30.4731 17.8364 38.1887L21.8364 38.1977ZM31.9727 17.9318C34.8076 17.9318 37.2213 19.2668 39.0376 22.4018C40.9182 25.6476 42.1265 30.8107 42.1432 38.1977L46.1432 38.1887C46.1258 30.4734 44.8796 24.5058 42.4987 20.3965C40.0537 16.1764 36.3993 13.9318 31.9727 13.9318V17.9318ZM42.1432 38.1976C42.1599 45.7396 40.9578 51.0157 39.0685 54.3344C37.242 57.5425 34.8111 58.8977 31.9727 58.8977V62.8977C36.4298 62.8977 40.1012 60.6052 42.5446 56.3134C44.9251 52.132 46.1606 46.0559 46.1432 38.1888L42.1432 38.1976ZM75.108 61.4091H73.108V63.4091H75.108V61.4091ZM108.824 61.4091H110.824V59.4091H108.824V61.4091ZM108.824 73H106.824V75H108.824V73ZM124.949 73V75H126.949V73H124.949ZM124.949 61.4091V59.4091H122.949V61.4091H124.949ZM133.301 61.4091V63.4091H135.301V61.4091H133.301ZM133.301 48.1136H135.301V46.1136H133.301V48.1136ZM124.949 48.1136H122.949V50.1136H124.949V48.1136ZM124.949 3.18182H126.949V1.18182H124.949V3.18182ZM103.71 3.18182V1.18182H102.611L102.022 2.11013L103.71 3.18182ZM75.108 48.25L73.4193 47.1783L73.108 47.6689V48.25H75.108ZM109.165 48.1136V50.1136H111.165V48.1136H109.165ZM91.8807 48.1136H89.8807V50.1136H91.8807V48.1136ZM91.8807 47.5682L90.1893 46.5008L89.8807 46.9898V47.5682H91.8807ZM108.619 21.0455V19.0455H107.517L106.928 19.978L108.619 21.0455ZM109.165 21.0455H111.165V19.0455H109.165V21.0455ZM75.108 63.4091H108.824V59.4091H75.108V63.4091ZM106.824 61.4091V73H110.824V61.4091H106.824ZM108.824 75H124.949V71H108.824V75ZM126.949 73V61.4091H122.949V73H126.949ZM124.949 63.4091H133.301V59.4091H124.949V63.4091ZM135.301 61.4091V48.1136H131.301V61.4091H135.301ZM133.301 46.1136H124.949V50.1136H133.301V46.1136ZM126.949 48.1136V3.18182H122.949V48.1136H126.949ZM124.949 1.18182H103.71V5.18182H124.949V1.18182ZM102.022 2.11013L73.4193 47.1783L76.7966 49.3217L105.399 4.2535L102.022 2.11013ZM73.108 48.25V61.4091H77.108V48.25H73.108ZM109.165 46.1136H91.8807V50.1136H109.165V46.1136ZM93.8807 48.1136V47.5682H89.8807V48.1136H93.8807ZM93.572 48.6356L110.311 22.1129L106.928 19.978L90.1893 46.5008L93.572 48.6356ZM108.619 23.0455H109.165V19.0455H108.619V23.0455ZM107.165 21.0455V48.1136H111.165V21.0455H107.165Z" fill="#005593"/>
</svg>
