<svg width="132" height="77" viewBox="0 0 132 77" fill="none" xmlns="http://www.w3.org/2000/svg">
<path d="M32.0665 74.7045L32.0702 72.7045H32.0665V74.7045ZM61.5892 38.1932L59.5892 38.1902V38.1902L61.5892 38.1932ZM2.57784 38.1932L4.57783 38.1991L4.57784 38.1962L2.57784 38.1932ZM19.9301 38.1932L21.9301 38.202L21.9301 38.1977L19.9301 38.1932ZM44.2369 38.1932L46.2369 38.1888V38.1887L44.2369 38.1932ZM32.0627 76.7045C41.7358 76.7226 49.7052 73.1344 55.218 66.3668C60.6881 59.6517 63.5717 50.0166 63.5892 38.1961L59.5892 38.1902C59.5726 49.4152 56.8313 58.0529 52.1167 63.8406C47.4448 69.5758 40.6699 72.7206 32.0702 72.7046L32.0627 76.7045ZM63.5892 38.1962C63.6067 26.4372 60.7211 16.9364 55.23 10.3398C49.6998 3.69613 41.715 0.227272 32.0665 0.227272V4.22727C40.6907 4.22727 47.4843 7.28683 52.1558 12.8988C56.8664 18.5579 59.6058 27.0401 59.5892 38.1902L63.5892 38.1962ZM32.0665 0.227272C22.4183 0.227272 14.4577 3.68746 8.94386 10.329C3.47101 16.9212 0.595329 26.4202 0.57784 38.1902L4.57784 38.1962C4.59444 27.023 7.32671 18.539 12.0215 12.8841C16.6753 7.27845 23.4419 4.22727 32.0665 4.22727V0.227272ZM0.577847 38.1872C0.542854 49.9797 3.41869 59.6083 8.89377 66.3286C14.4096 73.0989 22.3942 76.7045 32.0665 76.7045V72.7045C23.4661 72.7045 16.6722 69.5432 11.9949 63.8021C7.27676 58.011 4.54464 49.384 4.57783 38.1991L0.577847 38.1872ZM32.0665 58.8977C29.2471 58.8977 26.8153 57.5443 24.9878 54.3344C23.0988 51.0164 21.8967 45.7412 21.9301 38.202L17.9301 38.1843C17.8953 46.0543 19.1307 52.1313 21.5117 56.3134C23.954 60.6034 27.6245 62.8977 32.0665 62.8977V58.8977ZM21.9301 38.1977C21.9468 30.811 23.155 25.6469 25.0323 22.4003C26.8461 19.2632 29.2523 17.9318 32.0665 17.9318V13.9318C27.6534 13.9318 24.0084 16.18 21.5694 20.398C19.1938 24.5066 17.9475 30.4731 17.9301 38.1887L21.9301 38.1977ZM32.0665 17.9318C34.9013 17.9318 37.3151 19.2668 39.1314 22.4018C41.0119 25.6476 42.2203 30.8107 42.2369 38.1977L46.2369 38.1887C46.2195 30.4734 44.9733 24.5058 42.5925 20.3965C40.1474 16.1764 36.493 13.9318 32.0665 13.9318V17.9318ZM42.2369 38.1976C42.2536 45.7396 41.0516 51.0157 39.1622 54.3344C37.3358 57.5425 34.9048 58.8977 32.0665 58.8977V62.8977C36.5236 62.8977 40.1949 60.6052 42.6383 56.3134C45.0189 52.132 46.2543 46.0559 46.2369 38.1888L42.2369 38.1976ZM93.6449 33.25V35.25H94.7756L95.3585 34.2812L93.6449 33.25ZM93.2358 33.25L91.2452 33.0563L91.0317 35.25H93.2358V33.25ZM94.8381 16.7841V14.7841H93.0232L92.8475 16.5904L94.8381 16.7841ZM125.759 16.7841V18.7841H127.759V16.7841H125.759ZM125.759 3.18182H127.759V1.18182H125.759V3.18182ZM80.9631 3.18182V1.18182H79.1178L78.9695 3.02111L80.9631 3.18182ZM77.929 40.8182L75.9354 40.6575L75.7908 42.4519L77.5601 42.7839L77.929 40.8182ZM92.8267 43.6136L92.4579 45.5793L93.828 45.8364L94.5433 44.6399L92.8267 43.6136ZM102.679 38.5682L102.662 40.5681L102.671 40.5682H102.679V38.5682ZM113.622 49.8182L111.622 49.808L111.622 49.8182L111.622 49.8284L113.622 49.8182ZM92.6562 52.4773L94.6541 52.3847L94.5657 50.4773H92.6562V52.4773ZM76.2926 52.4773V50.4773H74.2597L74.2929 52.5099L76.2926 52.4773ZM102.781 75.9545C111.332 75.9545 118.616 73.2607 123.783 68.5158C128.962 63.76 131.884 57.0609 131.884 49.3409H127.884C127.884 56.0072 125.384 61.615 121.078 65.5695C116.759 69.5347 110.492 71.9545 102.781 71.9545V75.9545ZM131.884 49.3409C131.884 35.0105 121.784 24.5682 108.065 24.5682V28.5682C119.438 28.5682 127.884 37.0804 127.884 49.3409H131.884ZM108.065 24.5682C100.974 24.5682 94.7132 27.5958 91.9312 32.2188L95.3585 34.2812C97.2129 31.1997 101.93 28.5682 108.065 28.5682V24.5682ZM93.6449 31.25H93.2358V35.25H93.6449V31.25ZM95.2264 33.4437L96.8287 16.9778L92.8475 16.5904L91.2452 33.0563L95.2264 33.4437ZM94.8381 18.7841H125.759V14.7841H94.8381V18.7841ZM127.759 16.7841V3.18182H123.759V16.7841H127.759ZM125.759 1.18182H80.9631V5.18182H125.759V1.18182ZM78.9695 3.02111L75.9354 40.6575L79.9225 40.9789L82.9566 3.34253L78.9695 3.02111ZM77.5601 42.7839L92.4579 45.5793L93.1956 41.6479L78.2978 38.8525L77.5601 42.7839ZM94.5433 44.6399C95.9915 42.2174 99.1497 40.5388 102.662 40.5681L102.696 36.5683C98.0264 36.5293 93.4119 38.7371 91.1101 42.5874L94.5433 44.6399ZM102.679 40.5682C105.399 40.5682 107.612 41.5217 109.14 43.0766C110.669 44.6317 111.637 46.917 111.622 49.808L115.622 49.8283C115.642 46.0034 114.343 42.6638 111.993 40.2729C109.643 37.8817 106.368 36.5682 102.679 36.5682V40.5682ZM111.622 49.8284C111.637 52.7079 110.682 54.9762 109.175 56.5162C107.67 58.0549 105.485 59 102.781 59V63C106.453 63 109.705 61.6951 112.035 59.3134C114.364 56.9329 115.642 53.6103 115.622 49.808L111.622 49.8284ZM102.781 59C98.1297 59 94.8305 56.1892 94.6541 52.3847L90.6584 52.5699C90.9593 59.0608 96.5919 63 102.781 63V59ZM92.6562 50.4773H76.2926V54.4773H92.6562V50.4773ZM74.2929 52.5099C74.5208 66.4877 86.7923 75.9545 102.781 75.9545V71.9545C88.2248 71.9545 78.4735 63.5578 78.2924 52.4447L74.2929 52.5099Z" fill="#005593"/>
</svg>
