<svg width="133" height="77" viewBox="0 0 133 77" fill="none" xmlns="http://www.w3.org/2000/svg">
<path d="M31.5665 74.7045C49.8392 74.7386 61.0551 61.2386 61.0892 38.1932C61.1233 15.2841 49.8392 2.22727 31.5665 2.22727C13.2937 2.22727 2.11193 15.25 2.07784 38.1932C2.00966 61.1705 13.2937 74.7045 31.5665 74.7045ZM31.5665 60.8977C24.3051 60.8977 19.3619 53.6023 19.4301 38.1932C19.4642 23.0909 24.3392 15.9318 31.5665 15.9318C38.8278 15.9318 43.7028 23.0909 43.7369 38.1932C43.771 53.6023 38.8619 60.8977 31.5665 60.8977ZM103.543 73.9545C119.565 73.9886 130.611 63.9318 130.577 49.3068C130.611 36.3864 121.781 26.9773 109.27 26.9773C101.463 26.9773 94.4403 30.7614 91.5426 37.0341H91.0994C91.1676 24.5909 95.3267 16.6136 103.884 16.6136C108.52 16.6136 112.202 18.9318 113.19 23.3636H129.793C128.497 11.6364 118.543 2.22727 103.884 2.22727C86.0881 2.22727 74.5312 16.2386 74.4631 39.2841C74.429 64.75 88.2017 73.9205 103.543 73.9545ZM103.44 61C97.2699 61 92.7017 56.1591 92.6676 49.8864C92.7358 43.5795 97.3381 38.7386 103.474 38.7386C109.713 38.7386 114.247 43.5114 114.213 49.8523C114.247 56.2273 109.679 61 103.44 61Z" fill="white"/>
<path d="M31.5665 74.7045L31.5702 72.7045H31.5665V74.7045ZM61.0892 38.1932L59.0892 38.1902V38.1902L61.0892 38.1932ZM2.07784 38.1932L4.07783 38.1991L4.07784 38.1962L2.07784 38.1932ZM19.4301 38.1932L21.4301 38.202L21.4301 38.1977L19.4301 38.1932ZM43.7369 38.1932L45.7369 38.1888V38.1887L43.7369 38.1932ZM31.5627 76.7045C41.2358 76.7226 49.2052 73.1344 54.718 66.3668C60.1881 59.6517 63.0717 50.0166 63.0892 38.1961L59.0892 38.1902C59.0726 49.4152 56.3313 58.0529 51.6167 63.8406C46.9448 69.5758 40.1699 72.7206 31.5702 72.7046L31.5627 76.7045ZM63.0892 38.1962C63.1067 26.4372 60.2211 16.9364 54.73 10.3398C49.1998 3.69613 41.215 0.227272 31.5665 0.227272V4.22727C40.1907 4.22727 46.9843 7.28683 51.6558 12.8988C56.3664 18.5579 59.1058 27.0401 59.0892 38.1902L63.0892 38.1962ZM31.5665 0.227272C21.9183 0.227272 13.9577 3.68746 8.44386 10.329C2.97101 16.9212 0.095329 26.4202 0.0778401 38.1902L4.07784 38.1962C4.09444 27.023 6.82671 18.539 11.5215 12.8841C16.1753 7.27845 22.9419 4.22727 31.5665 4.22727V0.227272ZM0.0778465 38.1872C0.0428543 49.9797 2.91869 59.6083 8.39377 66.3286C13.9096 73.0989 21.8942 76.7045 31.5665 76.7045V72.7045C22.9661 72.7045 16.1722 69.5432 11.4949 63.8021C6.77676 58.011 4.04464 49.384 4.07783 38.1991L0.0778465 38.1872ZM31.5665 58.8977C28.7471 58.8977 26.3153 57.5443 24.4878 54.3344C22.5988 51.0164 21.3967 45.7412 21.4301 38.202L17.4301 38.1843C17.3953 46.0543 18.6307 52.1313 21.0117 56.3134C23.454 60.6034 27.1245 62.8977 31.5665 62.8977V58.8977ZM21.4301 38.1977C21.4468 30.811 22.655 25.6469 24.5323 22.4003C26.3461 19.2632 28.7523 17.9318 31.5665 17.9318V13.9318C27.1534 13.9318 23.5084 16.18 21.0694 20.398C18.6938 24.5066 17.4475 30.4731 17.4301 38.1887L21.4301 38.1977ZM31.5665 17.9318C34.4013 17.9318 36.8151 19.2668 38.6314 22.4018C40.5119 25.6476 41.7203 30.8107 41.7369 38.1977L45.7369 38.1887C45.7195 30.4734 44.4733 24.5058 42.0925 20.3965C39.6474 16.1764 35.993 13.9318 31.5665 13.9318V17.9318ZM41.7369 38.1976C41.7536 45.7396 40.5516 51.0157 38.6622 54.3344C36.8358 57.5425 34.4048 58.8977 31.5665 58.8977V62.8977C36.0236 62.8977 39.6949 60.6052 42.1383 56.3134C44.5189 52.132 45.7543 46.0559 45.7369 38.1888L41.7369 38.1976ZM103.543 73.9545L103.538 75.9545H103.538L103.543 73.9545ZM130.577 49.3068L128.577 49.3015L128.577 49.3115L130.577 49.3068ZM91.5426 37.0341V39.0341H92.8218L93.3582 37.8728L91.5426 37.0341ZM91.0994 37.0341L89.0995 37.0231L89.0884 39.0341H91.0994V37.0341ZM113.19 23.3636L111.238 23.7991L111.587 25.3636H113.19V23.3636ZM129.793 23.3636V25.3636H132.026L131.781 23.144L129.793 23.3636ZM74.4631 39.2841L72.4631 39.2782V39.2814L74.4631 39.2841ZM92.6676 49.8864L90.6677 49.8647L90.6676 49.881L90.6676 49.8972L92.6676 49.8864ZM114.213 49.8523L112.213 49.8415L112.213 49.8522L112.213 49.863L114.213 49.8523ZM103.538 75.9545C111.968 75.9725 119.243 73.332 124.428 68.606C129.629 63.8666 132.595 57.1464 132.577 49.3022L128.577 49.3115C128.593 56.0922 126.053 61.713 121.734 65.6496C117.399 69.5998 111.14 71.9707 103.547 71.9546L103.538 75.9545ZM132.577 49.3121C132.613 35.3789 122.98 24.9773 109.27 24.9773V28.9773C120.583 28.9773 128.608 37.3938 128.577 49.3015L132.577 49.3121ZM109.27 24.9773C100.879 24.9773 93.0266 29.0527 89.727 36.1954L93.3582 37.8728C95.8541 32.47 102.047 28.9773 109.27 28.9773V24.9773ZM91.5426 35.0341H91.0994V39.0341H91.5426V35.0341ZM93.0994 37.0451C93.1326 30.9919 94.1679 26.2962 96.0258 23.1824C97.8105 20.191 100.362 18.6136 103.884 18.6136V14.6136C98.8483 14.6136 95.0417 17.0249 92.5907 21.1329C90.2127 25.1185 89.1345 30.6331 89.0995 37.0231L93.0994 37.0451ZM103.884 18.6136C107.818 18.6136 110.501 20.493 111.238 23.7991L115.142 22.9282C113.903 17.3706 109.221 14.6136 103.884 14.6136V18.6136ZM113.19 25.3636H129.793V21.3636H113.19V25.3636ZM131.781 23.144C130.363 10.316 119.472 0.227272 103.884 0.227272V4.22727C117.613 4.22727 126.631 12.9567 127.805 23.5832L131.781 23.144ZM103.884 0.227272C94.4114 0.227272 86.4871 3.98088 80.9657 10.862C75.4822 17.6958 72.4981 27.4445 72.4631 39.2782L76.4631 39.29C76.4962 28.0782 79.3246 19.2985 84.0855 13.3653C88.8084 7.47934 95.5602 4.22727 103.884 4.22727V0.227272ZM72.4631 39.2814C72.4455 52.3676 75.9807 61.5935 81.807 67.5542C87.6311 73.5128 95.4793 75.9366 103.538 75.9545L103.547 71.9546C96.265 71.9384 89.5564 69.76 84.6675 64.7583C79.7807 59.7587 76.4465 51.6664 76.4631 39.2868L72.4631 39.2814ZM103.44 59C98.4532 59 94.6962 55.1328 94.6676 49.8755L90.6676 49.8972C90.7073 57.1854 96.0866 63 103.44 63V59ZM94.6675 49.908C94.7248 44.6067 98.5226 40.7386 103.474 40.7386V36.7386C96.1535 36.7386 90.7468 42.5524 90.6677 49.8647L94.6675 49.908ZM103.474 40.7386C108.541 40.7386 112.242 44.5445 112.213 49.8415L116.213 49.863C116.253 42.4782 110.886 36.7386 103.474 36.7386V40.7386ZM112.213 49.863C112.242 55.1897 108.511 59 103.44 59V63C110.847 63 116.253 57.2649 116.213 49.8416L112.213 49.863Z" fill="#005593"/>
</svg>
