<svg width="32" height="32" viewBox="0 0 32 32" fill="none" xmlns="http://www.w3.org/2000/svg">
<mask id="path-1-inside-1" fill="white">
<path fill-rule="evenodd" clip-rule="evenodd" d="M3.2583 12.7405C3.2583 5.70431 8.96357 0 15.9998 0C23.036 0 28.7413 5.70336 28.7413 12.7396C28.7413 22.693 15.9998 32 15.9998 32C15.9998 32 3.2583 23.3307 3.2583 12.7405Z"/>
</mask>
<path fill-rule="evenodd" clip-rule="evenodd" d="M3.2583 12.7405C3.2583 5.70431 8.96357 0 15.9998 0C23.036 0 28.7413 5.70336 28.7413 12.7396C28.7413 22.693 15.9998 32 15.9998 32C15.9998 32 3.2583 23.3307 3.2583 12.7405Z" fill="#9296EE"/>
<path d="M15.9998 32L15.4373 32.8268L16.0202 33.2234L16.5896 32.8075L15.9998 32ZM15.9998 -1C8.41138 -1 2.2583 5.15193 2.2583 12.7405H4.2583C4.2583 6.2567 9.51576 1 15.9998 1V-1ZM29.7413 12.7396C29.7413 5.15088 23.5881 -1 15.9998 -1V1C22.4839 1 27.7413 6.25584 27.7413 12.7396H29.7413ZM15.9998 32C16.5896 32.8075 16.5899 32.8073 16.5902 32.8071C16.5903 32.807 16.5907 32.8067 16.591 32.8065C16.5917 32.806 16.5925 32.8054 16.5936 32.8046C16.5957 32.8031 16.5985 32.801 16.6021 32.7983C16.6093 32.793 16.6196 32.7855 16.6328 32.7757C16.6591 32.7561 16.6972 32.7276 16.7462 32.6906C16.8442 32.6164 16.986 32.5078 17.1654 32.3668C17.524 32.0848 18.0332 31.673 18.643 31.1482C19.861 30.0999 21.4874 28.5946 23.1168 26.768C26.3342 23.1611 29.7413 18.1055 29.7413 12.7396H27.7413C27.7413 17.327 24.7776 21.9016 21.6243 25.4366C20.0683 27.1809 18.5093 28.6245 17.3383 29.6323C16.7535 30.1356 16.2674 30.5286 15.9292 30.7945C15.7601 30.9274 15.6282 31.0285 15.5396 31.0955C15.4953 31.1291 15.4618 31.1541 15.4399 31.1703C15.429 31.1785 15.4209 31.1844 15.4159 31.1881C15.4134 31.1899 15.4116 31.1912 15.4106 31.192C15.4101 31.1923 15.4098 31.1926 15.4097 31.1926C15.4097 31.1927 15.4097 31.1927 15.4097 31.1927C15.4098 31.1926 15.4099 31.1925 15.9998 32ZM2.2583 12.7405C2.2583 18.4185 5.65627 23.4711 8.89033 27.0156C10.5237 28.8058 12.1541 30.2535 13.3753 31.2536C13.9867 31.7543 14.4975 32.1444 14.8576 32.4107C15.0376 32.5439 15.1801 32.6463 15.2788 32.7162C15.3281 32.7511 15.3665 32.7779 15.3932 32.7964C15.4065 32.8057 15.4169 32.8128 15.4243 32.8179C15.428 32.8204 15.4309 32.8225 15.4331 32.8239C15.4342 32.8247 15.4351 32.8253 15.4357 32.8257C15.4361 32.826 15.4365 32.8262 15.4366 32.8264C15.437 32.8266 15.4373 32.8268 15.9998 32C16.5623 31.1732 16.5625 31.1733 16.5626 31.1734C16.5626 31.1734 16.5627 31.1735 16.5627 31.1735C16.5626 31.1734 16.5623 31.1732 16.5618 31.1729C16.5609 31.1723 16.5592 31.1711 16.5568 31.1694C16.5519 31.1661 16.5441 31.1607 16.5333 31.1532C16.5117 31.1382 16.4786 31.1151 16.4346 31.0839C16.3466 31.0216 16.2154 30.9274 16.047 30.8029C15.7102 30.5537 15.2256 30.1838 14.6425 29.7063C13.4748 28.75 11.9197 27.3685 10.3678 25.6676C7.23107 22.2298 4.2583 17.6527 4.2583 12.7405H2.2583Z" fill="#C5E7FF" mask="url(#path-1-inside-1)"/>
<g clip-path="url(#clip0)">
<path d="M15.5541 6.42951C15.4465 6.0281 15.2633 5.64879 15.0128 5.31348L10.4204 9.90588C10.7558 10.1565 11.135 10.3397 11.5364 10.4472L15.5541 6.42951Z" fill="white"/>
<path d="M17.0715 8.88949L15.8335 7.47583L12.5825 10.7268L13.9962 11.9648L17.0715 8.88949Z" fill="white"/>
<path d="M14.3502 4.65045C13.0812 3.70164 11.2669 3.78877 10.0982 4.92552C9.4633 5.54298 9.11027 6.37042 9.10409 7.25539C9.09902 7.9822 9.3284 8.67317 9.75705 9.24364L14.3502 4.65045Z" fill="white"/>
<path d="M22.295 16.5253L21.0521 15.2823L21.9147 14.4197L17.6908 9.59644L14.7033 12.5839L19.5266 16.8078L20.3892 15.9452L21.6321 17.1882C22.0148 17.5709 22.0061 18.0576 21.8703 18.3854C21.7345 18.7132 21.3965 19.0636 20.8553 19.0636C20.6761 19.0636 20.4977 19.0191 20.3394 18.9349L17.8304 17.6002C15.5174 16.3697 12.7558 16.37 10.4429 17.6008L9.35254 18.181L9.79298 19.0086L10.8834 18.4284C12.9205 17.3443 15.3529 17.3441 17.3902 18.4279L19.8991 19.7625C20.1924 19.9186 20.5231 20.0011 20.8554 20.0011C21.6945 20.0011 22.4153 19.5194 22.7364 18.7442C23.0575 17.9689 22.8884 17.1187 22.295 16.5253Z" fill="white"/>
</g>
<defs>
<clipPath id="clip0">
<rect width="16" height="16" fill="white" transform="translate(8 4)"/>
</clipPath>
</defs>
</svg>
