<svg width="32" height="32" viewBox="0 0 32 32" fill="none" xmlns="http://www.w3.org/2000/svg">
<mask id="path-1-inside-1" fill="white">
<path fill-rule="evenodd" clip-rule="evenodd" d="M3.2583 12.7405C3.2583 5.70431 8.96357 0 15.9998 0C23.036 0 28.7413 5.70336 28.7413 12.7396C28.7413 22.693 15.9998 32 15.9998 32C15.9998 32 3.2583 23.3307 3.2583 12.7405Z"/>
</mask>
<path fill-rule="evenodd" clip-rule="evenodd" d="M3.2583 12.7405C3.2583 5.70431 8.96357 0 15.9998 0C23.036 0 28.7413 5.70336 28.7413 12.7396C28.7413 22.693 15.9998 32 15.9998 32C15.9998 32 3.2583 23.3307 3.2583 12.7405Z" fill="#C896F0"/>
<path d="M15.9998 32L15.4373 32.8268L16.0202 33.2234L16.5896 32.8075L15.9998 32ZM15.9998 -1C8.41138 -1 2.2583 5.15193 2.2583 12.7405H4.2583C4.2583 6.2567 9.51576 1 15.9998 1V-1ZM29.7413 12.7396C29.7413 5.15088 23.5881 -1 15.9998 -1V1C22.4839 1 27.7413 6.25584 27.7413 12.7396H29.7413ZM15.9998 32C16.5896 32.8075 16.5899 32.8073 16.5902 32.8071C16.5903 32.807 16.5907 32.8067 16.591 32.8065C16.5917 32.806 16.5925 32.8054 16.5936 32.8046C16.5957 32.8031 16.5985 32.801 16.6021 32.7983C16.6093 32.793 16.6196 32.7855 16.6328 32.7757C16.6591 32.7561 16.6972 32.7276 16.7462 32.6906C16.8442 32.6164 16.986 32.5078 17.1654 32.3668C17.524 32.0848 18.0332 31.673 18.643 31.1482C19.861 30.0999 21.4874 28.5946 23.1168 26.768C26.3342 23.1611 29.7413 18.1055 29.7413 12.7396H27.7413C27.7413 17.327 24.7776 21.9016 21.6243 25.4366C20.0683 27.1809 18.5093 28.6245 17.3383 29.6323C16.7535 30.1356 16.2674 30.5286 15.9292 30.7945C15.7601 30.9274 15.6282 31.0285 15.5396 31.0955C15.4953 31.1291 15.4618 31.1541 15.4399 31.1703C15.429 31.1785 15.4209 31.1844 15.4159 31.1881C15.4134 31.1899 15.4116 31.1912 15.4106 31.192C15.4101 31.1923 15.4098 31.1926 15.4097 31.1926C15.4097 31.1927 15.4097 31.1927 15.4097 31.1927C15.4098 31.1926 15.4099 31.1925 15.9998 32ZM2.2583 12.7405C2.2583 18.4185 5.65627 23.4711 8.89033 27.0156C10.5237 28.8058 12.1541 30.2535 13.3753 31.2536C13.9867 31.7543 14.4975 32.1444 14.8576 32.4107C15.0376 32.5439 15.1801 32.6463 15.2788 32.7162C15.3281 32.7511 15.3665 32.7779 15.3932 32.7964C15.4065 32.8057 15.4169 32.8128 15.4243 32.8179C15.428 32.8204 15.4309 32.8225 15.4331 32.8239C15.4342 32.8247 15.4351 32.8253 15.4357 32.8257C15.4361 32.826 15.4365 32.8262 15.4366 32.8264C15.437 32.8266 15.4373 32.8268 15.9998 32C16.5623 31.1732 16.5625 31.1733 16.5626 31.1734C16.5626 31.1734 16.5627 31.1735 16.5627 31.1735C16.5626 31.1734 16.5623 31.1732 16.5618 31.1729C16.5609 31.1723 16.5592 31.1711 16.5568 31.1694C16.5519 31.1661 16.5441 31.1607 16.5333 31.1532C16.5117 31.1382 16.4786 31.1151 16.4346 31.0839C16.3466 31.0216 16.2154 30.9274 16.047 30.8029C15.7102 30.5537 15.2256 30.1838 14.6425 29.7063C13.4748 28.75 11.9197 27.3685 10.3678 25.6676C7.23107 22.2298 4.2583 17.6527 4.2583 12.7405H2.2583Z" fill="#C5E7FF" mask="url(#path-1-inside-1)"/>
<path d="M12.2812 10.5625C11.5058 10.5625 10.875 11.1933 10.875 11.9688V15.7812C10.875 16.5567 11.5058 17.1875 12.2812 17.1875C13.0567 17.1875 13.6875 16.5567 13.6875 15.7812V11.9688C13.6875 11.1933 13.0567 10.5625 12.2812 10.5625Z" fill="white"/>
<path d="M9.9375 11.9688C9.9375 11.8336 9.95534 11.7029 9.97744 11.574C9.4125 11.7566 9 12.2813 9 12.9063V14.8438C9 15.4688 9.4125 15.9935 9.97744 16.1761C9.95534 16.0471 9.9375 15.9165 9.9375 15.7813V11.9688Z" fill="white"/>
<path d="M19.7812 10.5625C19.0058 10.5625 18.375 11.1933 18.375 11.9688V15.7812C18.375 16.5567 19.0058 17.1875 19.7812 17.1875C19.9222 17.1875 20.0557 17.1604 20.1841 17.1216C20.0096 17.7 19.4783 18.125 18.8438 18.125H17.3512C17.157 17.5806 16.6416 17.1875 16.0312 17.1875C15.2558 17.1875 14.625 17.8183 14.625 18.5938C14.625 19.3692 15.2558 20 16.0312 20C16.6416 20 17.157 19.6069 17.3512 19.0625H18.8438C20.136 19.0625 21.1875 18.011 21.1875 16.7188V15.7812V11.9688C21.1875 11.1933 20.5567 10.5625 19.7812 10.5625Z" fill="white"/>
<path d="M22.085 11.574C22.1071 11.7029 22.1249 11.8336 22.1249 11.9688V15.7813C22.1249 15.9165 22.1071 16.0471 22.085 16.1761C22.6499 15.9935 23.0624 15.4688 23.0624 14.8438V12.9063C23.0624 12.2813 22.6499 11.7566 22.085 11.574Z" fill="white"/>
<path d="M16.0312 4C12.154 4 9 7.154 9 11.0312V11.0432C9.27928 10.8318 9.60241 10.6771 9.95897 10.6078C10.1781 7.44534 12.8142 4.9375 16.0312 4.9375C19.2483 4.9375 21.8844 7.44534 22.1035 10.6077C22.4601 10.677 22.7832 10.8318 23.0625 11.0432V11.0312C23.0625 7.154 19.9085 4 16.0312 4Z" fill="white"/>
</svg>
