<svg width="32" height="32" viewBox="0 0 32 32" fill="none" xmlns="http://www.w3.org/2000/svg">
<mask id="path-1-inside-1" fill="white">
<path fill-rule="evenodd" clip-rule="evenodd" d="M3.2583 12.7405C3.2583 5.70431 8.96357 0 15.9998 0C23.036 0 28.7413 5.70336 28.7413 12.7396C28.7413 22.693 15.9998 32 15.9998 32C15.9998 32 3.2583 23.3307 3.2583 12.7405Z"/>
</mask>
<path fill-rule="evenodd" clip-rule="evenodd" d="M3.2583 12.7405C3.2583 5.70431 8.96357 0 15.9998 0C23.036 0 28.7413 5.70336 28.7413 12.7396C28.7413 22.693 15.9998 32 15.9998 32C15.9998 32 3.2583 23.3307 3.2583 12.7405Z" fill="#F6BF7E"/>
<path d="M15.9998 32L15.4373 32.8268L16.0202 33.2234L16.5896 32.8075L15.9998 32ZM15.9998 -1C8.41138 -1 2.2583 5.15193 2.2583 12.7405H4.2583C4.2583 6.2567 9.51576 1 15.9998 1V-1ZM29.7413 12.7396C29.7413 5.15088 23.5881 -1 15.9998 -1V1C22.4839 1 27.7413 6.25584 27.7413 12.7396H29.7413ZM15.9998 32C16.5896 32.8075 16.5899 32.8073 16.5902 32.8071C16.5903 32.807 16.5907 32.8067 16.591 32.8065C16.5917 32.806 16.5925 32.8054 16.5936 32.8046C16.5957 32.8031 16.5985 32.801 16.6021 32.7983C16.6093 32.793 16.6196 32.7855 16.6328 32.7757C16.6591 32.7561 16.6972 32.7276 16.7462 32.6906C16.8442 32.6164 16.986 32.5078 17.1654 32.3668C17.524 32.0848 18.0332 31.673 18.643 31.1482C19.861 30.0999 21.4874 28.5946 23.1168 26.768C26.3342 23.1611 29.7413 18.1055 29.7413 12.7396H27.7413C27.7413 17.327 24.7776 21.9016 21.6243 25.4366C20.0683 27.1809 18.5093 28.6245 17.3383 29.6323C16.7535 30.1356 16.2674 30.5286 15.9292 30.7945C15.7601 30.9274 15.6282 31.0285 15.5396 31.0955C15.4953 31.1291 15.4618 31.1541 15.4399 31.1703C15.429 31.1785 15.4209 31.1844 15.4159 31.1881C15.4134 31.1899 15.4116 31.1912 15.4106 31.192C15.4101 31.1923 15.4098 31.1926 15.4097 31.1926C15.4097 31.1927 15.4097 31.1927 15.4097 31.1927C15.4098 31.1926 15.4099 31.1925 15.9998 32ZM2.2583 12.7405C2.2583 18.4185 5.65627 23.4711 8.89033 27.0156C10.5237 28.8058 12.1541 30.2535 13.3753 31.2536C13.9867 31.7543 14.4975 32.1444 14.8576 32.4107C15.0376 32.5439 15.1801 32.6463 15.2788 32.7162C15.3281 32.7511 15.3665 32.7779 15.3932 32.7964C15.4065 32.8057 15.4169 32.8128 15.4243 32.8179C15.428 32.8204 15.4309 32.8225 15.4331 32.8239C15.4342 32.8247 15.4351 32.8253 15.4357 32.8257C15.4361 32.826 15.4365 32.8262 15.4366 32.8264C15.437 32.8266 15.4373 32.8268 15.9998 32C16.5623 31.1732 16.5625 31.1733 16.5626 31.1734C16.5626 31.1734 16.5627 31.1735 16.5627 31.1735C16.5626 31.1734 16.5623 31.1732 16.5618 31.1729C16.5609 31.1723 16.5592 31.1711 16.5568 31.1694C16.5519 31.1661 16.5441 31.1607 16.5333 31.1532C16.5117 31.1382 16.4786 31.1151 16.4346 31.0839C16.3466 31.0216 16.2154 30.9274 16.047 30.8029C15.7102 30.5537 15.2256 30.1838 14.6425 29.7063C13.4748 28.75 11.9197 27.3685 10.3678 25.6676C7.23107 22.2298 4.2583 17.6527 4.2583 12.7405H2.2583Z" fill="#C5E7FF" mask="url(#path-1-inside-1)"/>
<g clip-path="url(#clip0)">
<path d="M10.6479 12.5425H12.4421V15.8333H10.6479V12.5425Z" fill="white"/>
<path d="M15.1326 15.8333V14.5622C15.1326 13.9436 15.6358 13.4403 16.2544 13.4403C16.8731 13.4403 17.3763 13.9436 17.3763 14.5622V15.8333H19.1705V12.5425H13.3384V15.8333H15.1326Z" fill="white"/>
<path d="M20.0669 12.5425H21.8611V15.8333H20.0669V12.5425Z" fill="white"/>
<path d="M8.60547 16.73H23.9037V19.1222H8.60547V16.73Z" fill="white"/>
<path d="M22.3101 11.646C23.1888 11.646 23.9037 10.9312 23.9037 10.0525V9.85219H23.0073V10.0525C23.0073 10.4369 22.6945 10.7497 22.3101 10.7497H21.6902L20.9944 9.35602V8.35596H19.2002V9.25234H13.309V8.35596H11.5148V9.35599L10.819 10.7496H10.199C9.81459 10.7497 9.50185 10.4369 9.50185 10.0525V9.85219H8.60547V10.0525C8.60547 10.9312 9.32033 11.646 10.199 11.646H22.3101Z" fill="white"/>
<path d="M21.4134 7.4598C22.2921 7.4598 23.0069 6.74491 23.0069 5.86622V5.66597H22.1106V5.86622C22.1106 6.25065 21.7978 6.56342 21.4134 6.56342H20.761L16.24 3.8252L11.719 6.56342H11.0965C10.7121 6.56342 10.3993 6.25065 10.3993 5.86622V5.66597H9.50293V5.86622C9.50293 6.74491 10.2178 7.4598 11.0965 7.4598H21.4134Z" fill="white"/>
</g>
<defs>
<clipPath id="clip0">
<rect width="15.2982" height="15.2982" fill="white" transform="translate(8.60547 3.82446)"/>
</clipPath>
</defs>
</svg>
