<svg width="32" height="32" viewBox="0 0 32 32" fill="none" xmlns="http://www.w3.org/2000/svg">
<mask id="path-1-inside-1" fill="white">
<path fill-rule="evenodd" clip-rule="evenodd" d="M3.2583 12.7405C3.2583 5.70431 8.96357 0 15.9998 0C23.036 0 28.7413 5.70336 28.7413 12.7396C28.7413 22.693 15.9998 32 15.9998 32C15.9998 32 3.2583 23.3307 3.2583 12.7405Z"/>
</mask>
<path fill-rule="evenodd" clip-rule="evenodd" d="M3.2583 12.7405C3.2583 5.70431 8.96357 0 15.9998 0C23.036 0 28.7413 5.70336 28.7413 12.7396C28.7413 22.693 15.9998 32 15.9998 32C15.9998 32 3.2583 23.3307 3.2583 12.7405Z" fill="#97DB95"/>
<path d="M15.9998 32L15.4373 32.8268L16.0202 33.2234L16.5896 32.8075L15.9998 32ZM15.9998 -1C8.41138 -1 2.2583 5.15193 2.2583 12.7405H4.2583C4.2583 6.2567 9.51576 1 15.9998 1V-1ZM29.7413 12.7396C29.7413 5.15088 23.5881 -1 15.9998 -1V1C22.4839 1 27.7413 6.25584 27.7413 12.7396H29.7413ZM15.9998 32C16.5896 32.8075 16.5899 32.8073 16.5902 32.8071C16.5903 32.807 16.5907 32.8067 16.591 32.8065C16.5917 32.806 16.5925 32.8054 16.5936 32.8046C16.5957 32.8031 16.5985 32.801 16.6021 32.7983C16.6093 32.793 16.6196 32.7855 16.6328 32.7757C16.6591 32.7561 16.6972 32.7276 16.7462 32.6906C16.8442 32.6164 16.986 32.5078 17.1654 32.3668C17.524 32.0848 18.0332 31.673 18.643 31.1482C19.861 30.0999 21.4874 28.5946 23.1168 26.768C26.3342 23.1611 29.7413 18.1055 29.7413 12.7396H27.7413C27.7413 17.327 24.7776 21.9016 21.6243 25.4366C20.0683 27.1809 18.5093 28.6245 17.3383 29.6323C16.7535 30.1356 16.2674 30.5286 15.9292 30.7945C15.7601 30.9274 15.6282 31.0285 15.5396 31.0955C15.4953 31.1291 15.4618 31.1541 15.4399 31.1703C15.429 31.1785 15.4209 31.1844 15.4159 31.1881C15.4134 31.1899 15.4116 31.1912 15.4106 31.192C15.4101 31.1923 15.4098 31.1926 15.4097 31.1926C15.4097 31.1927 15.4097 31.1927 15.4097 31.1927C15.4098 31.1926 15.4099 31.1925 15.9998 32ZM2.2583 12.7405C2.2583 18.4185 5.65627 23.4711 8.89033 27.0156C10.5237 28.8058 12.1541 30.2535 13.3753 31.2536C13.9867 31.7543 14.4975 32.1444 14.8576 32.4107C15.0376 32.5439 15.1801 32.6463 15.2788 32.7162C15.3281 32.7511 15.3665 32.7779 15.3932 32.7964C15.4065 32.8057 15.4169 32.8128 15.4243 32.8179C15.428 32.8204 15.4309 32.8225 15.4331 32.8239C15.4342 32.8247 15.4351 32.8253 15.4357 32.8257C15.4361 32.826 15.4365 32.8262 15.4366 32.8264C15.437 32.8266 15.4373 32.8268 15.9998 32C16.5623 31.1732 16.5625 31.1733 16.5626 31.1734C16.5626 31.1734 16.5627 31.1735 16.5627 31.1735C16.5626 31.1734 16.5623 31.1732 16.5618 31.1729C16.5609 31.1723 16.5592 31.1711 16.5568 31.1694C16.5519 31.1661 16.5441 31.1607 16.5333 31.1532C16.5117 31.1382 16.4786 31.1151 16.4346 31.0839C16.3466 31.0216 16.2154 30.9274 16.047 30.8029C15.7102 30.5537 15.2256 30.1838 14.6425 29.7063C13.4748 28.75 11.9197 27.3685 10.3678 25.6676C7.23107 22.2298 4.2583 17.6527 4.2583 12.7405H2.2583Z" fill="#C5E7FF" mask="url(#path-1-inside-1)"/>
<path d="M22.8413 10.8272C22.5802 10.5675 22.1581 10.5686 21.8984 10.8297L13.8843 18.8872C12.8445 19.9269 11.1558 19.9269 10.1142 18.8858C9.07327 17.8444 9.07327 16.1557 10.1143 15.1147L18.3657 6.81991C19.0148 6.17081 20.0702 6.17081 20.7212 6.82132C21.372 7.47215 21.372 8.52739 20.721 9.1784L13.8855 16.0139C13.8851 16.0143 13.8847 16.0148 13.8843 16.0152C13.6239 16.2742 13.203 16.2739 12.9431 16.014C12.6828 15.7537 12.6828 15.3317 12.9431 15.0714L16.2426 11.7713C16.5029 11.5109 16.5029 11.0888 16.2425 10.8285C15.9821 10.5681 15.56 10.5682 15.2997 10.8286L12.0002 14.1286C11.2193 14.9096 11.2193 16.1758 12.0003 16.9568C12.7813 17.7378 14.0475 17.7378 14.8285 16.9568C14.8294 16.9559 14.8301 16.9549 14.831 16.954L21.6638 10.1212C22.8356 8.94946 22.8356 7.04998 21.6638 5.87827C20.492 4.70724 18.5926 4.70724 17.4216 5.87827L9.17021 14.1731C7.60974 15.7335 7.60974 18.2662 9.17134 19.8286C10.734 21.3904 13.2667 21.3904 14.8284 19.8287L22.8438 11.77C23.1035 11.5089 23.1023 11.0868 22.8413 10.8272Z" fill="white"/>
</svg>
