<svg width="32" height="32" viewBox="0 0 32 32" fill="none" xmlns="http://www.w3.org/2000/svg">
<mask id="path-1-inside-1" fill="white">
<path fill-rule="evenodd" clip-rule="evenodd" d="M3.2583 12.7405C3.2583 5.70431 8.96357 0 15.9998 0C23.036 0 28.7413 5.70336 28.7413 12.7396C28.7413 22.693 15.9998 32 15.9998 32C15.9998 32 3.2583 23.3307 3.2583 12.7405Z"/>
</mask>
<path fill-rule="evenodd" clip-rule="evenodd" d="M3.2583 12.7405C3.2583 5.70431 8.96357 0 15.9998 0C23.036 0 28.7413 5.70336 28.7413 12.7396C28.7413 22.693 15.9998 32 15.9998 32C15.9998 32 3.2583 23.3307 3.2583 12.7405Z" fill="#F486CF"/>
<path d="M15.9998 32L15.4373 32.8268L16.0202 33.2234L16.5896 32.8075L15.9998 32ZM15.9998 -1C8.41138 -1 2.2583 5.15193 2.2583 12.7405H4.2583C4.2583 6.2567 9.51576 1 15.9998 1V-1ZM29.7413 12.7396C29.7413 5.15088 23.5881 -1 15.9998 -1V1C22.4839 1 27.7413 6.25584 27.7413 12.7396H29.7413ZM15.9998 32C16.5896 32.8075 16.5899 32.8073 16.5902 32.8071C16.5903 32.807 16.5907 32.8067 16.591 32.8065C16.5917 32.806 16.5925 32.8054 16.5936 32.8046C16.5957 32.8031 16.5985 32.801 16.6021 32.7983C16.6093 32.793 16.6196 32.7855 16.6328 32.7757C16.6591 32.7561 16.6972 32.7276 16.7462 32.6906C16.8442 32.6164 16.986 32.5078 17.1654 32.3668C17.524 32.0848 18.0332 31.673 18.643 31.1482C19.861 30.0999 21.4874 28.5946 23.1168 26.768C26.3342 23.1611 29.7413 18.1055 29.7413 12.7396H27.7413C27.7413 17.327 24.7776 21.9016 21.6243 25.4366C20.0683 27.1809 18.5093 28.6245 17.3383 29.6323C16.7535 30.1356 16.2674 30.5286 15.9292 30.7945C15.7601 30.9274 15.6282 31.0285 15.5396 31.0955C15.4953 31.1291 15.4618 31.1541 15.4399 31.1703C15.429 31.1785 15.4209 31.1844 15.4159 31.1881C15.4134 31.1899 15.4116 31.1912 15.4106 31.192C15.4101 31.1923 15.4098 31.1926 15.4097 31.1926C15.4097 31.1927 15.4097 31.1927 15.4097 31.1927C15.4098 31.1926 15.4099 31.1925 15.9998 32ZM2.2583 12.7405C2.2583 18.4185 5.65627 23.4711 8.89033 27.0156C10.5237 28.8058 12.1541 30.2535 13.3753 31.2536C13.9867 31.7543 14.4975 32.1444 14.8576 32.4107C15.0376 32.5439 15.1801 32.6463 15.2788 32.7162C15.3281 32.7511 15.3665 32.7779 15.3932 32.7964C15.4065 32.8057 15.4169 32.8128 15.4243 32.8179C15.428 32.8204 15.4309 32.8225 15.4331 32.8239C15.4342 32.8247 15.4351 32.8253 15.4357 32.8257C15.4361 32.826 15.4365 32.8262 15.4366 32.8264C15.437 32.8266 15.4373 32.8268 15.9998 32C16.5623 31.1732 16.5625 31.1733 16.5626 31.1734C16.5626 31.1734 16.5627 31.1735 16.5627 31.1735C16.5626 31.1734 16.5623 31.1732 16.5618 31.1729C16.5609 31.1723 16.5592 31.1711 16.5568 31.1694C16.5519 31.1661 16.5441 31.1607 16.5333 31.1532C16.5117 31.1382 16.4786 31.1151 16.4346 31.0839C16.3466 31.0216 16.2154 30.9274 16.047 30.8029C15.7102 30.5537 15.2256 30.1838 14.6425 29.7063C13.4748 28.75 11.9197 27.3685 10.3678 25.6676C7.23107 22.2298 4.2583 17.6527 4.2583 12.7405H2.2583Z" fill="#C5E7FF" mask="url(#path-1-inside-1)"/>
<path d="M13.6562 18.5938H12.7188V20H13.6562V18.5938Z" fill="white"/>
<path d="M19.2812 18.5938H18.3438V20H19.2812V18.5938Z" fill="white"/>
<path d="M19.2812 16.7188H12.7188V17.6562H19.2812V16.7188Z" fill="white"/>
<path d="M17.4062 18.5938H16.4688V20H17.4062V18.5938Z" fill="white"/>
<path d="M15.5312 18.5938H14.5938V20H15.5312V18.5938Z" fill="white"/>
<path d="M16 4C15.5685 4 15.2188 4.34978 15.2188 4.78125V5.40625H16.7812V4.78125C16.7812 4.34978 16.4315 4 16 4Z" fill="white"/>
<path d="M18.5 4C18.0685 4 17.7188 4.34978 17.7188 4.78125V5.40625H19.2812V4.78125C19.2812 4.34978 18.9315 4 18.5 4Z" fill="white"/>
<path d="M13.5 4C13.0685 4 12.7188 4.34978 12.7188 4.78125V5.40625H14.2812V4.78125C14.2812 4.34978 13.9315 4 13.5 4Z" fill="white"/>
<path d="M11.2969 11.0625C11.2969 9.6077 11.5846 8.23116 12.1069 7.18645C12.2679 6.86441 12.4467 6.58301 12.6401 6.34473C10.0703 6.38679 8 8.4827 8 11.0625C8 13.6423 10.0703 15.7382 12.6401 15.7802C12.4467 15.5419 12.2679 15.2605 12.1069 14.9385C11.5846 13.8938 11.2969 12.5173 11.2969 11.0625Z" fill="white"/>
<path d="M19.3599 6.34473C19.5532 6.58301 19.732 6.86441 19.893 7.18645C20.4154 8.23116 20.7031 9.6077 20.7031 11.0625C20.7031 12.5173 20.4154 13.8938 19.893 14.9385C19.732 15.2605 19.5532 15.5419 19.3599 15.7802C21.9296 15.7382 23.9999 13.6423 23.9999 11.0625C23.9999 8.4827 21.9296 6.38679 19.3599 6.34473Z" fill="white"/>
<path d="M14.3594 6.34375C13.8618 6.34375 13.3464 6.80372 12.9454 7.60575C12.4869 8.52278 12.2344 9.75047 12.2344 11.0625C12.2344 12.3745 12.4869 13.6022 12.9454 14.5192C13.3464 15.3213 13.8618 15.7812 14.3594 15.7812H15.5312V6.34375H14.3594Z" fill="white"/>
<path d="M19.0546 7.60575C18.6536 6.80372 18.1382 6.34375 17.6406 6.34375H16.4688V15.7812H17.6406C18.1382 15.7812 18.6536 15.3213 19.0546 14.5192C19.5131 13.6022 19.7656 12.3745 19.7656 11.0625C19.7656 9.75047 19.5131 8.52278 19.0546 7.60575Z" fill="white"/>
</svg>
