<svg width="32" height="32" viewBox="0 0 32 32" fill="none" xmlns="http://www.w3.org/2000/svg">
<mask id="path-1-inside-1" fill="white">
<path fill-rule="evenodd" clip-rule="evenodd" d="M3.2583 12.7405C3.2583 5.70431 8.96357 0 15.9998 0C23.036 0 28.7413 5.70336 28.7413 12.7396C28.7413 22.693 15.9998 32 15.9998 32C15.9998 32 3.2583 23.3307 3.2583 12.7405Z"/>
</mask>
<path fill-rule="evenodd" clip-rule="evenodd" d="M3.2583 12.7405C3.2583 5.70431 8.96357 0 15.9998 0C23.036 0 28.7413 5.70336 28.7413 12.7396C28.7413 22.693 15.9998 32 15.9998 32C15.9998 32 3.2583 23.3307 3.2583 12.7405Z" fill="#54C5B0"/>
<path d="M15.9998 32L15.4373 32.8268L16.0202 33.2234L16.5896 32.8075L15.9998 32ZM15.9998 -1C8.41138 -1 2.2583 5.15193 2.2583 12.7405H4.2583C4.2583 6.2567 9.51576 1 15.9998 1V-1ZM29.7413 12.7396C29.7413 5.15088 23.5881 -1 15.9998 -1V1C22.4839 1 27.7413 6.25584 27.7413 12.7396H29.7413ZM15.9998 32C16.5896 32.8075 16.5899 32.8073 16.5902 32.8071C16.5903 32.807 16.5907 32.8067 16.591 32.8065C16.5917 32.806 16.5925 32.8054 16.5936 32.8046C16.5957 32.8031 16.5985 32.801 16.6021 32.7983C16.6093 32.793 16.6196 32.7855 16.6328 32.7757C16.6591 32.7561 16.6972 32.7276 16.7462 32.6906C16.8442 32.6164 16.986 32.5078 17.1654 32.3668C17.524 32.0848 18.0332 31.673 18.643 31.1482C19.861 30.0999 21.4874 28.5946 23.1168 26.768C26.3342 23.1611 29.7413 18.1055 29.7413 12.7396H27.7413C27.7413 17.327 24.7776 21.9016 21.6243 25.4366C20.0683 27.1809 18.5093 28.6245 17.3383 29.6323C16.7535 30.1356 16.2674 30.5286 15.9292 30.7945C15.7601 30.9274 15.6282 31.0285 15.5396 31.0955C15.4953 31.1291 15.4618 31.1541 15.4399 31.1703C15.429 31.1785 15.4209 31.1844 15.4159 31.1881C15.4134 31.1899 15.4116 31.1912 15.4106 31.192C15.4101 31.1923 15.4098 31.1926 15.4097 31.1926C15.4097 31.1927 15.4097 31.1927 15.4097 31.1927C15.4098 31.1926 15.4099 31.1925 15.9998 32ZM2.2583 12.7405C2.2583 18.4185 5.65627 23.4711 8.89033 27.0156C10.5237 28.8058 12.1541 30.2535 13.3753 31.2536C13.9867 31.7543 14.4975 32.1444 14.8576 32.4107C15.0376 32.5439 15.1801 32.6463 15.2788 32.7162C15.3281 32.7511 15.3665 32.7779 15.3932 32.7964C15.4065 32.8057 15.4169 32.8128 15.4243 32.8179C15.428 32.8204 15.4309 32.8225 15.4331 32.8239C15.4342 32.8247 15.4351 32.8253 15.4357 32.8257C15.4361 32.826 15.4365 32.8262 15.4366 32.8264C15.437 32.8266 15.4373 32.8268 15.9998 32C16.5623 31.1732 16.5625 31.1733 16.5626 31.1734C16.5626 31.1734 16.5627 31.1735 16.5627 31.1735C16.5626 31.1734 16.5623 31.1732 16.5618 31.1729C16.5609 31.1723 16.5592 31.1711 16.5568 31.1694C16.5519 31.1661 16.5441 31.1607 16.5333 31.1532C16.5117 31.1382 16.4786 31.1151 16.4346 31.0839C16.3466 31.0216 16.2154 30.9274 16.047 30.8029C15.7102 30.5537 15.2256 30.1838 14.6425 29.7063C13.4748 28.75 11.9197 27.3685 10.3678 25.6676C7.23107 22.2298 4.2583 17.6527 4.2583 12.7405H2.2583Z" fill="#C5E7FF" mask="url(#path-1-inside-1)"/>
<path d="M12 19H13.5938C13.68 19 13.75 18.93 13.75 18.8438V15.6373C13.75 15.5643 13.699 15.5028 13.6282 15.4851C13.4035 15.4289 13.2392 15.2207 13.2505 14.9761C13.2631 14.7071 13.4947 14.5 13.764 14.5H18.2359C18.5052 14.5 18.7369 14.7071 18.7494 14.9761C18.7608 15.2207 18.5964 15.4289 18.3717 15.4851C18.3009 15.5028 18.2499 15.5643 18.2499 15.6373V18.8438C18.2499 18.93 18.3199 19 18.4062 19H19.8437C19.93 19 19.9999 18.9302 19.9999 18.844C19.9999 17.3342 19.9999 5.64756 19.9999 6C19.9999 5.72384 19.7761 5.5 19.4999 5.5H12.5C12.2238 5.5 12 5.72384 12 6V19ZM17.75 7.5C17.75 7.22375 17.9738 7 18.25 7C18.5262 7 18.75 7.22375 18.75 7.5V8C18.75 8.27625 18.5262 8.5 18.25 8.5C17.9738 8.5 17.75 8.27625 17.75 8V7.5ZM17.75 10C17.75 9.72375 17.9738 9.5 18.25 9.5C18.5262 9.5 18.75 9.72375 18.75 10V10.5C18.75 10.7762 18.5262 11 18.25 11C17.9738 11 17.75 10.7762 17.75 10.5V10ZM17.75 12.5C17.75 12.2238 17.9738 12 18.25 12C18.5262 12 18.75 12.2238 18.75 12.5V13C18.75 13.2762 18.5262 13.5 18.25 13.5C17.9738 13.5 17.75 13.2762 17.75 13V12.5ZM15.5 7.5C15.5 7.22375 15.7238 7 16 7C16.2762 7 16.5 7.22375 16.5 7.5V8C16.5 8.27625 16.2762 8.5 16 8.5C15.7238 8.5 15.5 8.27625 15.5 8V7.5ZM15.5 10C15.5 9.72375 15.7238 9.5 16 9.5C16.2762 9.5 16.5 9.72375 16.5 10V10.5C16.5 10.7762 16.2762 11 16 11C15.7238 11 15.5 10.7762 15.5 10.5V10ZM15.5 12.5C15.5 12.2238 15.7238 12 16 12C16.2762 12 16.5 12.2238 16.5 12.5V13C16.5 13.2762 16.2762 13.5 16 13.5C15.7238 13.5 15.5 13.2762 15.5 13V12.5ZM13.25 7.5C13.25 7.22375 13.4737 7 13.75 7C14.0262 7 14.25 7.22375 14.25 7.5V8C14.25 8.27625 14.0262 8.5 13.75 8.5C13.4737 8.5 13.25 8.27625 13.25 8V7.5ZM13.25 10C13.25 9.72375 13.4737 9.5 13.75 9.5C14.0262 9.5 14.25 9.72375 14.25 10V10.5C14.25 10.7762 14.0262 11 13.75 11C13.4737 11 13.25 10.7762 13.25 10.5V10ZM13.25 12.5C13.25 12.2238 13.4737 12 13.75 12C14.0262 12 14.25 12.2238 14.25 12.5V13C14.25 13.2762 14.0262 13.5 13.75 13.5C13.4737 13.5 13.25 13.2762 13.25 13V12.5Z" fill="white"/>
<path d="M14.9062 19H17.0938C17.18 19 17.25 18.93 17.25 18.8438V15.6562C17.25 15.57 17.18 15.5 17.0938 15.5H14.9062C14.82 15.5 14.75 15.57 14.75 15.6562V18.8438C14.75 18.93 14.82 19 14.9062 19Z" fill="white"/>
<path d="M18.75 3.5C18.75 3.22384 18.5262 3 18.25 3H13.75C13.4738 3 13.25 3.22384 13.25 3.5V4.34375C13.25 4.43003 13.32 4.5 13.4062 4.5H18.5938C18.68 4.5 18.75 4.43003 18.75 4.34375V3.5Z" fill="white"/>
<path d="M23.5 8.75H21.1562C21.07 8.75 21 8.81997 21 8.90625V18.8438C21 18.93 21.07 19 21.1562 19H23.5C23.7762 19 24 18.7762 24 18.5V9.25C24 8.97384 23.7762 8.75 23.5 8.75ZM23 16.25C23 16.5262 22.7763 16.75 22.5 16.75C22.2237 16.75 22 16.5262 22 16.25V15.75C22 15.4738 22.2237 15.25 22.5 15.25C22.7763 15.25 23 15.4738 23 15.75V16.25ZM23 14C23 14.2762 22.7763 14.5 22.5 14.5C22.2237 14.5 22 14.2762 22 14V13.5C22 13.2238 22.2237 13 22.5 13C22.7763 13 23 13.2238 23 13.5V14ZM23 11.75C23 12.0262 22.7763 12.25 22.5 12.25C22.2237 12.25 22 12.0262 22 11.75V11.25C22 10.9738 22.2237 10.75 22.5 10.75C22.7763 10.75 23 10.9738 23 11.25V11.75Z" fill="white"/>
<path d="M8 9.25V18.5C8 18.7762 8.22384 19 8.5 19H10.8438C10.93 19 11 18.93 11 18.8438V8.90625C11 8.81997 10.93 8.75 10.8438 8.75H8.5C8.22384 8.75 8 8.97384 8 9.25ZM9 11.25C9 10.9738 9.22375 10.75 9.5 10.75C9.77625 10.75 10 10.9738 10 11.25V11.75C10 12.0262 9.77625 12.25 9.5 12.25C9.22375 12.25 9 12.0262 9 11.75V11.25ZM9 13.5C9 13.2238 9.22375 13 9.5 13C9.77625 13 10 13.2238 10 13.5V14C10 14.2762 9.77625 14.5 9.5 14.5C9.22375 14.5 9 14.2762 9 14V13.5ZM9 15.75C9 15.4738 9.22375 15.25 9.5 15.25C9.77625 15.25 10 15.4738 10 15.75V16.25C10 16.5262 9.77625 16.75 9.5 16.75C9.22375 16.75 9 16.5262 9 16.25V15.75Z" fill="white"/>
</svg>
