<svg width="24" height="24" viewBox="0 0 24 24" fill="none" xmlns="http://www.w3.org/2000/svg">
<path d="M21.7504 5.96017C21.0332 6.26954 20.2527 6.4922 19.4488 6.57892C20.2834 6.08306 20.9085 5.2997 21.2066 4.37579C20.4234 4.8417 19.5654 5.16841 18.6707 5.34142C18.2967 4.94163 17.8444 4.62315 17.342 4.40581C16.8396 4.18847 16.2978 4.07693 15.7504 4.07813C13.5355 4.07813 11.7543 5.87345 11.7543 8.07657C11.7543 8.38595 11.7918 8.69532 11.8527 8.99298C8.53632 8.81954 5.57851 7.23517 3.61211 4.80938C3.25381 5.42137 3.06605 6.1182 3.06836 6.82735C3.06836 8.21485 3.77383 9.43829 4.84961 10.1578C4.21563 10.1329 3.5965 9.9586 3.04258 9.64923V9.69845C3.04258 11.6414 4.41601 13.2516 6.24648 13.6219C5.90279 13.7112 5.54923 13.7568 5.19414 13.7578C4.93398 13.7578 4.68789 13.732 4.43945 13.6969C4.9457 15.2813 6.41992 16.432 8.17538 16.4695C6.80195 17.5453 5.08164 18.1781 3.21367 18.1781C2.87851 18.1781 2.56914 18.1664 2.24805 18.1289C4.01992 19.2656 6.12226 19.9219 8.38632 19.9219C15.7363 19.9219 19.7582 13.8328 19.7582 8.54767C19.7582 8.37423 19.7582 8.20079 19.7465 8.02735C20.5246 7.45782 21.2066 6.75235 21.7504 5.96017Z" fill="#696969"/>
</svg>
