<svg width="16" height="14" viewBox="0 0 16 14" fill="none" xmlns="http://www.w3.org/2000/svg">
<path d="M1.33333 3.00016H0V6.3335H0.00666667L0 12.3335C0 13.0668 0.6 13.6668 1.33333 13.6668H13.3333V12.3335H1.33333V3.00016ZM14.6667 1.66683H9.33333L8 0.333496H4C3.26667 0.333496 2.67333 0.933496 2.67333 1.66683L2.66667 9.66683C2.66667 10.4002 3.26667 11.0002 4 11.0002H14.6667C15.4 11.0002 16 10.4002 16 9.66683V3.00016C16 2.26683 15.4 1.66683 14.6667 1.66683ZM4.66667 9.00016L7.66667 5.00016L10 8.00683L11.6667 6.00016L14 9.00016H4.66667Z" fill="#CACACA"/>
</svg>
