<svg width="24" height="18" viewBox="0 0 24 18" fill="none" xmlns="http://www.w3.org/2000/svg">
<path d="M23.775 4.1999C23.775 4.1999 23.55 2.5499 22.8 1.7999C21.9 0.824903 20.85 0.824902 20.4 0.749902C17.025 0.524902 12 0.524902 12 0.524902C12 0.524902 6.975 0.524902 3.6 0.749902C3.15 0.824902 2.1 0.824903 1.2 1.7999C0.45 2.5499 0.225 4.1999 0.225 4.1999C0.225 4.1999 0 6.1499 0 8.0999V9.8999C0 11.8499 0.225 13.7999 0.225 13.7999C0.225 13.7999 0.45 15.4499 1.2 16.1999C2.1 17.1749 3.3 17.0999 3.825 17.2499C5.775 17.3999 12 17.4749 12 17.4749C12 17.4749 17.025 17.4749 20.4 17.2499C20.85 17.1749 21.9 17.1749 22.8 16.1999C23.55 15.4499 23.775 13.7999 23.775 13.7999C23.775 13.7999 24 11.8499 24 9.8999V8.0999C24 6.1499 23.775 4.1999 23.775 4.1999ZM9.525 12.1499V5.3999L15.975 8.7749L9.525 12.1499Z" fill="#313131"/>
</svg>
