<svg width="485" height="360" viewBox="0 0 485 360" fill="none" xmlns="http://www.w3.org/2000/svg">
<g clip-path="url(#clip0)">
<path opacity="0.1" d="M281.622 50.4697C250.548 49.6686 220.953 42.2228 192.692 34.0767C164.431 25.9305 136.44 16.8872 106.11 12.5695C86.6017 9.79169 64.2899 9.3983 48.5751 17.1655C33.4461 24.6304 28.5584 37.5165 25.932 49.5102C23.9539 58.5152 22.792 67.9902 28.2079 76.4195C31.9721 82.2724 38.646 87.1899 43.2649 92.7981C59.3349 112.305 47.975 136.355 30.5653 155.401C22.4031 164.334 12.9204 172.854 6.61626 182.368C0.312107 191.881 -2.6023 202.771 2.91443 212.477C8.37835 222.072 21.4044 229.311 35.5155 234.392C64.1747 244.711 97.9329 247.662 130.875 249.336C203.774 253.04 277.056 251.432 350.147 249.816C377.198 249.221 404.364 248.621 430.973 245.498C445.751 243.776 461.005 241.036 471.736 234.43C485.353 226.044 488.728 211.843 479.601 201.327C464.294 183.687 421.985 179.302 411.273 160.371C405.386 149.951 411.431 138.346 419.992 128.679C438.352 107.949 469.124 89.7613 470.742 66.0616C471.856 49.7885 457.063 33.4866 434.19 25.7866C410.217 17.7172 376.967 18.7294 359.289 32.0905C341.068 45.8641 309.062 51.1606 281.622 50.4697Z" fill="#FFB629"/>
<g opacity="0.8">
<path opacity="0.8" d="M450.735 85.7698C450.735 85.7698 445.319 83.5725 428.091 91.4692C410.864 99.3659 408.713 98.3633 404.253 97.1543C399.792 95.9453 397.305 95.6623 392.523 89.0705C392.523 89.0705 389.162 70.8064 385.888 67.9615C382.613 65.1166 368.756 69.5782 368.756 69.5782C368.756 69.5782 352.134 73.397 348.946 51.1894C348.946 51.1894 351.193 34.4557 348.13 29.3176C348.13 29.3176 354.314 31.9802 364.512 27.6816C374.71 23.3831 382.872 32.316 382.872 32.316C382.872 32.316 385.446 38.9701 385.177 42.9329C384.908 46.8956 386.536 48.3924 391.419 46.4734C391.419 46.4734 393.819 43.0768 390.425 37.4637C387.03 31.8507 384.625 27.6672 385.571 23.3063C386.517 18.9454 389.229 12.9053 397.953 9.87328C406.677 6.84126 418.532 6.27515 424.222 3.93397C429.911 1.59279 431.284 0.0240021 431.284 0.0240021C431.284 0.0240021 427.784 3.53098 436.033 18.3841C444.282 33.2371 439.024 39.6898 439.024 39.6898C439.024 39.6898 434.636 50.1387 415.267 49.2848C415.267 49.2848 396.604 49.966 406.778 57.8723C406.778 57.8723 413.294 56.5482 423.04 53.4538C432.787 50.3594 439.812 63.1304 441.559 72.0154C443.307 80.9003 450.735 85.7698 450.735 85.7698Z" fill="#FFB629"/>
<path opacity="0.8" d="M425.653 11.2694L425.754 11.2406C426.503 14.0759 418.163 25.4652 411.033 34.5229L410.951 34.4605C421.005 21.6847 426.248 13.4474 425.653 11.2694Z" fill="#444053"/>
<path opacity="0.8" d="M411.096 34.2734L411.139 34.3885C405.444 41.6232 398.281 50.2587 392.548 56.6537C392.001 57.263 391.458 57.9011 390.94 58.5727L390.771 58.4432C391.3 57.786 391.842 57.1431 392.39 56.5242C398.122 50.1195 405.406 41.5032 411.096 34.2734Z" fill="#444053"/>
<path opacity="0.8" d="M390.91 58.2513L391.026 58.4432C380.592 71.4589 379.901 91.666 379.877 91.8435L377.678 89.3296C377.702 89.1281 380.405 71.3533 390.91 58.2513Z" fill="#444053"/>
<path opacity="0.8" d="M438.64 78.7127C438.64 78.7127 426.339 72.3224 416.751 74.6156C407.162 76.9088 385.58 66.5078 385.58 66.5078C385.58 66.5078 376.415 62.7898 374.571 58.5488C374.571 58.5488 368.286 51.9042 367.926 48.474C367.566 45.0438 361.43 36.3891 357.454 36.0773" stroke="#444053" stroke-miterlimit="10"/>
<path opacity="0.8" d="M436.859 84.8631C436.859 84.8631 430.665 80.694 431.385 75.8294" stroke="#444053" stroke-miterlimit="10"/>
<path opacity="0.8" d="M427.357 90.2507C427.357 90.2507 418.494 87.0363 417.605 74.4189" stroke="#444053" stroke-miterlimit="10"/>
<path opacity="0.8" d="M413.058 93.513C413.058 93.513 404.588 86.4943 407.402 74.227" stroke="#444053" stroke-miterlimit="10"/>
<path opacity="0.8" d="M395.874 90.0827C395.874 90.0827 390.237 78.2665 395.255 70.5809" stroke="#444053" stroke-miterlimit="10"/>
<path opacity="0.8" d="M438.784 70.9215C438.784 70.9215 432.374 72.9557 433.752 76.3235" stroke="#444053" stroke-miterlimit="10"/>
<path opacity="0.8" d="M431.049 59.302C431.049 59.302 422.474 62.0174 422.272 74.1407" stroke="#444053" stroke-miterlimit="10"/>
<path opacity="0.8" d="M419.093 56.505C419.093 56.505 411.291 66.1288 411.843 74.8747" stroke="#444053" stroke-miterlimit="10"/>
<path opacity="0.8" d="M405.429 60.2806C405.429 60.2806 397.675 67.6832 398.664 71.7947" stroke="#444053" stroke-miterlimit="10"/>
<path opacity="0.8" d="M400.753 57.666C400.753 57.666 393.484 58.9662 392.471 56.5818" stroke="#444053" stroke-miterlimit="10"/>
<path opacity="0.8" d="M391.309 48.8962C391.309 48.8962 394.982 53.7561 395.928 52.667" stroke="#444053" stroke-miterlimit="10"/>
<path opacity="0.8" d="M427.712 45.821C427.712 45.821 409.39 47.1499 405.246 41.6328" stroke="#444053" stroke-miterlimit="10"/>
<path opacity="0.8" d="M387.452 24.4097C387.452 24.4097 396.051 42.8465 402.293 45.1973" stroke="#444053" stroke-miterlimit="10"/>
<path opacity="0.8" d="M396.479 15.6255C396.479 15.6255 401.76 32.5846 408.299 37.8811" stroke="#444053" stroke-miterlimit="10"/>
<path opacity="0.8" d="M435.423 31.8267C435.423 31.8267 421.5 37.7996 413.126 31.7547" stroke="#444053" stroke-width="0.75" stroke-miterlimit="10"/>
<path opacity="0.8" d="M408.887 12.0082C408.887 12.0082 412.07 24.4817 416.358 27.4897" stroke="#444053" stroke-width="0.75" stroke-miterlimit="10"/>
<path opacity="0.8" d="M433.319 17.8467C433.319 17.8467 425.488 20.8068 422.564 18.5376" stroke="#444053" stroke-width="0.75" stroke-miterlimit="10"/>
<path opacity="0.8" d="M384.6 52.9693C384.6 52.9693 384.6 63.8356 381.638 64.608" stroke="#444053" stroke-miterlimit="10"/>
<path opacity="0.8" d="M360.393 67.0499C360.393 67.0499 372.156 68.0574 377.577 61.9934" stroke="#444053" stroke-miterlimit="10"/>
<path opacity="0.8" d="M381.566 40.1311C381.566 40.1311 378.723 51.1654 370.873 54.1207" stroke="#444053" stroke-miterlimit="10"/>
<path opacity="0.8" d="M353.34 55.44C353.34 55.44 361.665 58.3185 368.824 50.9687" stroke="#444053" stroke-miterlimit="10"/>
<path opacity="0.8" d="M372.314 30.6561C372.314 30.6561 371.527 40.016 366.433 44.3961" stroke="#444053" stroke-miterlimit="10"/>
<path opacity="0.8" d="M353.657 41.177C353.657 41.177 360.566 41.2202 362.184 38.9749" stroke="#444053" stroke-miterlimit="10"/>
</g>
<path opacity="0.1" d="M126.212 360C184.019 360 230.881 356.671 230.881 352.564C230.881 348.457 184.019 345.128 126.212 345.128C68.405 345.128 21.543 348.457 21.543 352.564C21.543 356.671 68.405 360 126.212 360Z" fill="#FFB629"/>
<path d="M186.849 312.078C188.289 309.492 190.013 307.055 191.405 304.435C192.678 302.037 193.672 299.494 194.819 297.028C196.783 292.806 199.203 288.815 201.407 284.708C202.847 282.017 204.239 279.085 203.961 276.044C203.697 273.165 202.007 270.67 201.354 267.888C198.694 256.465 192.294 245.978 188.39 234.929C187.391 232.127 186.422 229.306 185.173 226.601C182.773 221.395 179.412 216.718 176.051 212.079C174.84 210.306 173.491 208.631 172.018 207.07C170.812 205.866 169.458 204.806 168.364 203.501C166.107 200.814 165.051 196.947 162.228 194.865C162.18 194.99 162.127 195.11 162.074 195.234C160.053 190.077 153.273 186.676 149.341 182.401C147.052 179.791 144.945 177.025 143.037 174.125L134.476 161.762C133.002 159.632 131.499 157.445 130.904 154.907C130.174 151.846 130.851 148.584 130.131 145.523C129.67 143.68 128.773 141.975 127.514 140.553C127.596 140.529 127.682 140.495 127.768 140.476C129.401 140.039 131.129 139.962 132.747 139.574C136.276 138.734 139.344 136.479 142.859 135.578C144.655 135.098 146.57 135.002 148.198 134.138C148.99 133.665 149.614 132.957 149.984 132.112C150.354 131.268 150.452 130.329 150.263 129.427C149.125 123.406 152.303 117.304 151.766 111.197C151.621 109.508 151.189 107.862 150.911 106.188C150.263 102.302 150.383 98.3201 150.613 94.3765C151.709 92.5994 153.024 90.9667 154.526 89.5167C156.687 87.4346 159.265 85.6787 160.768 83.0736C162.079 80.766 162.396 77.9787 162.064 75.34C161.829 73.421 161.176 71.4013 159.664 70.2355C158.151 69.0697 155.981 68.9833 154.152 69.5926C153.897 69.6742 153.648 69.7749 153.403 69.8805C152.638 69.4981 151.804 69.2754 150.95 69.2259C150.097 69.1764 149.242 69.3012 148.438 69.5926C146.614 70.1971 145.048 71.4013 143.579 72.6534C142.708 73.3357 141.945 74.1443 141.313 75.0522C140.386 76.4914 140.117 78.2665 139.767 79.96C139.022 83.2293 137.935 86.4114 136.526 89.4543C136.267 89.9916 135.566 90.9559 134.999 91.877L133.972 91.6659C133.525 95.9405 129.943 99.0781 127.764 102.772C126.703 104.566 125.958 106.529 125.003 108.385C123.913 110.406 122.695 112.356 121.359 114.224C120.062 116.143 118.764 118.044 117.465 119.928C115.836 122.402 114.073 124.785 112.183 127.067C110.421 126.923 108.659 126.793 106.902 126.764C103.952 126.722 101.006 126.984 98.1106 127.546C97.9418 126.529 97.8376 125.502 97.7985 124.471C97.7985 124.409 97.7985 124.347 97.7985 124.284C97.7985 124.035 97.8273 123.737 97.8609 123.416C100.356 121.746 102.387 119.471 103.764 116.804C105.141 114.137 105.819 111.165 105.734 108.165C105.649 105.165 104.804 102.236 103.279 99.6512C101.753 97.0661 99.5969 94.9097 97.0111 93.3835C97.1064 92.8442 97.1674 92.2993 97.1935 91.7523C97.1935 91.4309 97.1935 91.1046 97.1935 90.7928C97.1935 90.6297 97.1935 90.4666 97.1599 90.313C97.1302 89.9895 97.0756 89.6687 96.9967 89.3535C96.9583 89.2 96.915 89.0465 96.8622 88.8738C96.7601 88.5728 96.6265 88.2833 96.4637 88.0103C96.4537 87.9935 96.4424 87.9774 96.4301 87.9623C96.3677 87.8615 96.3053 87.7608 96.2332 87.6648C96.1612 87.5689 96.1708 87.5881 96.142 87.5497C96.0915 87.4795 96.037 87.4122 95.9788 87.3482L95.8587 87.2235C95.8059 87.1659 95.7531 87.1083 95.6955 87.0556L95.5611 86.9356L95.393 86.7869L95.2394 86.6717L95.0665 86.5422L94.8985 86.4319L94.7256 86.3215C94.668 86.2831 94.6056 86.2496 94.5432 86.216L94.3655 86.1152L94.1735 86.0193L93.9958 85.9329L93.7846 85.8418L93.6117 85.765L93.3813 85.6787L93.218 85.6163L92.9683 85.5299L92.8195 85.482L92.5458 85.3956L92.4162 85.3572L92.1185 85.2757L92.0033 85.2421L91.6912 85.1653L91.6 85.1413L91.2543 85.0646H91.1967L90.6877 84.9542C88.5847 84.5225 86.4689 84.1499 84.3403 83.8364C82.5975 83.5774 80.8113 83.3567 79.0925 83.7453C76.7206 84.273 74.7425 85.8754 72.5242 86.8684C69.9027 88.0486 66.9931 88.3605 64.1987 89.0081C61.4043 89.6558 58.5283 90.764 56.7759 93.0524C55.4411 94.7987 54.9081 97.02 54.5096 99.1836C51.1871 117.241 54.7689 135.765 55.4459 154.12C55.71 161.263 55.3883 168.901 51.3359 174.749L63.1376 174.437C63.7042 174.437 64.2755 174.404 64.8517 174.37C65.4279 174.337 66.004 174.293 66.5706 174.226C68.0673 174.086 69.5213 173.651 70.8486 172.945C71.4632 172.596 72.0243 172.159 72.5146 171.65C74.1183 170 74.9729 167.692 75.7555 165.485C76.0196 164.742 76.2837 163.988 76.519 163.23C76.615 162.914 76.7062 162.597 76.7878 162.271L76.8262 162.117L76.9607 162.18C77.4408 163.082 77.9834 163.964 78.5595 164.818C80.6193 167.85 83.2312 170.441 85.824 173.017C90.9758 178.127 96.2429 183.327 102.701 186.609C104.88 187.707 107.238 188.633 108.899 190.447C109.715 191.325 110.421 192.452 111.578 192.754C112.299 192.941 113.091 192.754 113.777 193.061C114.786 193.483 115.155 194.697 115.621 195.695C116.087 196.693 117.138 197.71 118.137 197.254C117.95 198.181 118.027 199.141 118.36 200.026C118.693 200.911 119.268 201.684 120.019 202.258C120.503 202.526 120.92 202.9 121.239 203.352C121.392 203.764 121.477 204.198 121.488 204.638C121.693 205.863 122.341 206.971 123.308 207.751C122.372 209.301 123.121 211.522 123.145 213.455C123.145 215.077 122.612 216.641 122.247 218.219C121.186 222.849 121.767 227.694 122.631 232.362C123.111 234.939 123.721 237.606 125.401 239.607C125.949 240.254 126.602 240.816 127.178 241.444C128.278 242.682 129.192 244.074 129.891 245.575C131.348 248.547 132.34 251.724 132.834 254.997C133.066 256.639 133.535 258.239 134.226 259.747C135.278 262.04 134.317 264.861 135.259 267.202C135.686 268.253 136.473 269.15 136.728 270.248C137.088 271.846 136.248 273.443 136.022 275.07C135.475 278.879 138.226 282.415 138.475 286.253C138.516 286.478 138.468 286.71 138.341 286.9C138.154 287.112 137.832 287.107 137.578 287.227C137.097 287.457 136.968 288.105 136.814 288.642C136.661 289.179 136.228 289.789 135.695 289.625C127.807 293.842 119.64 297.738 111.751 301.955L108.15 303.874L88.892 314.155C88.6582 314.271 88.4617 314.45 88.325 314.673C88.1883 314.895 88.117 315.151 88.119 315.412C88.119 315.642 88.1478 315.892 88.167 316.108C86.8178 316.443 85.5215 316.846 84.5996 317.014C84.2203 317.086 83.841 317.158 83.4665 317.24C83.5576 317.094 83.6165 316.93 83.6393 316.76C83.6409 316.524 83.555 316.295 83.3982 316.118C83.2414 315.941 83.0246 315.828 82.7895 315.801C82.3191 315.754 81.8443 315.816 81.4019 315.983C80.3011 316.284 79.1767 316.491 78.041 316.602C76.6918 316.731 75.3186 316.726 74.0127 317.082C72.7067 317.437 71.4199 318.228 70.8918 319.48C70.6276 320.205 70.51 320.974 70.5461 321.745C70.5168 324.71 70.8686 327.667 71.5928 330.543C71.6042 330.657 71.6418 330.767 71.7026 330.865C71.7634 330.962 71.8457 331.044 71.9433 331.105C72.1113 331.172 72.313 331.105 72.481 331.181C72.6289 331.271 72.7397 331.41 72.7931 331.575C73.5997 333.407 73.787 335.451 74.0031 337.447C74.3231 340.405 74.7281 343.356 75.2178 346.298C75.5059 348.016 75.8612 349.81 76.9799 351.134C78.209 352.573 80.1536 353.212 82.0309 353.466C85.992 353.998 89.9915 353.197 93.8998 352.377C94.6296 352.223 95.4122 352.036 95.902 351.47C96.2601 351.018 96.4318 350.447 96.3821 349.872C96.2909 347.901 94.4952 346.514 92.8627 345.406L90.6349 343.866C90.4449 343.765 90.2942 343.603 90.2072 343.407C90.1201 343.21 90.1016 342.99 90.1548 342.782L90.2988 339.87H89.8667C90.3468 337.816 91.1198 335.845 92.6322 334.434C93.6741 333.475 95.0329 332.803 96.1228 331.93C97.5212 333.004 99.2151 333.625 100.977 333.71C103.858 329.833 107.915 327.195 111.972 324.594C115.267 322.514 118.673 320.615 122.175 318.905C125.011 317.504 127.892 316.191 130.817 314.966C134.946 313.229 139.152 311.68 143.363 310.168C146.172 309.161 149.005 308.168 151.593 306.681C158.315 302.799 163.063 295.051 162.156 287.294C161.013 277.507 163.457 267.307 163.294 257.453C163.246 254.575 163.14 251.696 162.266 248.938C162.469 249.082 162.66 249.242 162.837 249.418C164.585 251.049 165.008 253.639 166.678 255.501C167.98 256.964 169.958 257.9 170.745 259.684C171.345 261.051 171.259 262.899 172.512 263.685C172.867 263.911 173.29 264.007 173.645 264.227C174.07 264.53 174.428 264.917 174.697 265.364C176.027 267.259 177.405 269.289 177.549 271.601C177.611 272.518 177.525 273.578 178.197 274.197C178.389 274.374 178.634 274.504 178.735 274.744C178.946 275.223 178.389 275.732 178.293 276.264C178.154 277.003 178.883 277.564 179.335 278.183C179.711 278.7 179.914 279.322 179.914 279.961C179.914 280.6 179.711 281.222 179.335 281.738C175.398 286.848 174.687 293.732 171.245 299.196C170.054 301.082 168.729 302.867 167.576 304.776C164.033 310.638 162.242 317.374 160.504 324.009C161.246 325.301 162.253 326.422 163.457 327.3C162.806 329.534 161.685 331.604 160.168 333.369C159.781 333.801 159.418 334.254 159.083 334.727C158.801 334.371 158.432 334.093 158.012 333.921C157.381 336.675 157.059 339.491 157.052 342.316C157.052 344.178 157.306 346.303 158.819 347.378C159.422 347.758 160.086 348.032 160.782 348.189L164.076 349.148C164.656 349.37 165.284 349.431 165.896 349.326C166.285 349.215 166.63 348.975 167.029 348.899C167.462 348.854 167.899 348.911 168.306 349.067L171.153 349.896C172.116 350.153 173.057 350.485 173.967 350.89C174.778 351.278 175.527 351.782 176.324 352.214C177.65 352.883 179.026 353.447 180.439 353.902L185.346 355.591C186.713 356.133 188.142 356.503 189.6 356.695C190.608 356.781 191.631 356.695 192.625 356.867C193.384 356.997 194.118 357.27 194.882 357.347C196.148 357.385 197.394 357.015 198.435 356.292C198.841 356.062 199.192 355.746 199.462 355.366C200.182 354.243 199.563 352.761 198.862 351.628C197.561 349.527 195.933 347.56 193.787 346.351C192.918 345.871 191.977 345.516 191.079 345.075C188.525 343.828 186.599 341.745 184.184 340.321C183.876 340.102 183.502 339.996 183.125 340.021C182.747 340.046 182.391 340.201 182.115 340.46C180.108 339.16 177.938 337.888 176.833 335.773C176.341 334.752 176.017 333.658 175.873 332.534C177.001 332.803 178.139 333.014 179.287 333.201C181.155 325.966 183.195 318.602 186.849 312.078ZM140.722 107.469C140.626 108.011 140.521 108.548 140.406 109.086C139.445 113.591 138.072 118.638 134.932 121.991C133.899 122.974 132.699 123.765 131.389 124.327L131.038 124.5C133.3 118.465 136.901 112.871 140.722 107.469Z" fill="url(#paint0_linear)"/>
<path d="M145.37 80.7468C145.726 79.0725 145.994 77.3166 146.921 75.8725C147.555 74.9646 148.32 74.1561 149.192 73.4738C150.661 72.2312 152.231 71.0367 154.061 70.4322C155.89 69.8277 158.041 69.9092 159.577 71.0702C161.114 72.2312 161.762 74.2318 162.002 76.1412C162.329 78.7654 162.002 81.5288 160.701 83.8172C159.212 86.4126 156.629 88.135 154.459 90.2171C152.887 91.7201 151.52 93.4235 150.392 95.2832C149.88 96.2526 149.258 97.1603 148.539 97.989C148.175 98.4013 147.719 98.7224 147.207 98.9265C146.696 99.1307 146.144 99.2121 145.596 99.1644C144.669 99.0157 143.915 98.3728 143.195 97.7587C142.307 96.9816 139.916 95.5951 139.834 94.3621C139.777 93.3642 141.644 91.0998 142.101 90.1643C143.52 87.1491 144.616 83.9924 145.37 80.7468Z" fill="#FBBEBE"/>
<path opacity="0.1" d="M145.37 80.7468C145.726 79.0725 145.994 77.3166 146.921 75.8725C147.555 74.9646 148.32 74.1561 149.192 73.4738C150.661 72.2312 152.231 71.0367 154.061 70.4322C155.89 69.8277 158.041 69.9092 159.577 71.0702C161.114 72.2312 161.762 74.2318 162.002 76.1412C162.329 78.7654 162.002 81.5288 160.701 83.8172C159.212 86.4126 156.629 88.135 154.459 90.2171C152.887 91.7201 151.52 93.4235 150.392 95.2832C149.88 96.2526 149.258 97.1603 148.539 97.989C148.175 98.4013 147.719 98.7224 147.207 98.9265C146.696 99.1307 146.144 99.2121 145.596 99.1644C144.669 99.0157 143.915 98.3728 143.195 97.7587C142.307 96.9816 139.916 95.5951 139.834 94.3621C139.777 93.3642 141.644 91.0998 142.101 90.1643C143.52 87.1491 144.616 83.9924 145.37 80.7468Z" fill="black"/>
<path d="M94.957 128.698C98.8039 127.676 102.774 127.191 106.754 127.259C113.394 127.355 120.231 128.962 126.555 126.928C128.187 126.362 129.774 125.674 131.303 124.869C132.576 124.236 133.872 123.584 134.847 122.547C137.991 119.218 139.345 114.205 140.33 109.729C141.314 105.252 141.568 100.656 141.823 96.0844C143.46 96.8472 145.184 97.6005 146.999 97.4469C148.814 97.2934 150.624 95.9117 150.614 94.0887C150.345 98.3249 150.134 102.614 150.849 106.797C151.128 108.457 151.56 110.093 151.709 111.772C152.247 117.836 149.063 123.896 150.201 129.878C150.389 130.776 150.291 131.709 149.921 132.548C149.55 133.387 148.927 134.089 148.137 134.556C146.504 135.434 144.584 135.544 142.788 135.995C139.269 136.892 136.196 139.128 132.662 139.962C131.015 140.351 129.301 140.442 127.678 140.86C125.345 141.474 123.227 142.807 120.851 143.23C119.069 143.546 117.235 143.33 115.435 143.484C113.869 143.613 112.333 144.026 110.763 144.064C106.922 144.16 103.287 141.987 100.733 139.104C98.1787 136.22 96.5607 132.19 94.957 128.698Z" fill="#FFB629"/>
<path opacity="0.1" d="M94.957 128.698C98.8039 127.676 102.774 127.191 106.754 127.259C113.394 127.355 120.231 128.962 126.555 126.928C128.187 126.362 129.774 125.674 131.303 124.869C132.576 124.236 133.872 123.584 134.847 122.547C137.991 119.218 139.345 114.205 140.33 109.729C141.314 105.252 141.568 100.656 141.823 96.0844C143.46 96.8472 145.184 97.6005 146.999 97.4469C148.814 97.2934 150.624 95.9117 150.614 94.0887C150.345 98.3249 150.134 102.614 150.849 106.797C151.128 108.457 151.56 110.093 151.709 111.772C152.247 117.836 149.063 123.896 150.201 129.878C150.389 130.776 150.291 131.709 149.921 132.548C149.55 133.387 148.927 134.089 148.137 134.556C146.504 135.434 144.584 135.544 142.788 135.995C139.269 136.892 136.196 139.128 132.662 139.962C131.015 140.351 129.301 140.442 127.678 140.86C125.345 141.474 123.227 142.807 120.851 143.23C119.069 143.546 117.235 143.33 115.435 143.484C113.869 143.613 112.333 144.026 110.763 144.064C106.922 144.16 103.287 141.987 100.733 139.104C98.1787 136.22 96.5607 132.19 94.957 128.698Z" fill="black"/>
<path d="M267.628 134.594C274.165 134.594 280.556 136.531 285.991 140.16C291.427 143.789 295.663 148.948 298.165 154.983C300.666 161.018 301.321 167.658 300.045 174.065C298.769 180.471 295.621 186.356 290.998 190.975C286.375 195.593 280.485 198.738 274.073 200.012C267.661 201.286 261.015 200.631 254.976 198.131C248.936 195.63 243.775 191.397 240.143 185.965C236.512 180.533 234.574 174.147 234.575 167.615C234.577 158.857 238.06 150.458 244.258 144.265C250.456 138.073 258.863 134.594 267.628 134.594ZM267.628 126.438C259.476 126.438 251.507 128.854 244.73 133.379C237.952 137.904 232.669 144.336 229.55 151.862C226.431 159.387 225.615 167.667 227.205 175.656C228.796 183.645 232.722 190.982 238.486 196.742C244.251 202.501 251.595 206.423 259.59 208.011C267.585 209.6 275.872 208.783 283.403 205.666C290.934 202.548 297.371 197.269 301.899 190.496C306.427 183.723 308.843 175.76 308.843 167.615C308.83 156.698 304.483 146.231 296.757 138.511C289.03 130.791 278.554 126.45 267.628 126.438Z" fill="#3F3D56"/>
<path d="M271.184 116.805H261.523V126.966H271.184V116.805Z" fill="#3F3D56"/>
<path d="M296.696 125.898L288.415 120.927L283.177 129.636L291.458 134.608L296.696 125.898Z" fill="#3F3D56"/>
<path d="M313.678 146.008L308.994 137.566L300.1 142.492L304.783 150.934L313.678 146.008Z" fill="#3F3D56"/>
<path d="M308.866 197.388L313.985 189.202L305.361 183.817L300.242 192.003L308.866 197.388Z" fill="#3F3D56"/>
<path d="M230.474 150.931L235.157 142.489L226.263 137.562L221.58 146.005L230.474 150.931Z" fill="#3F3D56"/>
<path d="M235.015 192L229.896 183.814L221.272 189.198L226.391 197.384L235.015 192Z" fill="#3F3D56"/>
<path d="M243.794 134.607L252.074 129.636L246.837 120.926L238.556 125.897L243.794 134.607Z" fill="#3F3D56"/>
<path d="M271.184 208.264H261.523V218.426H271.184V208.264Z" fill="#3F3D56"/>
<path d="M291.46 200.625L283.18 205.597L288.417 214.306L296.698 209.335L291.46 200.625Z" fill="#3F3D56"/>
<path d="M238.556 209.336L246.837 214.307L252.074 205.597L243.794 200.626L238.556 209.336Z" fill="#3F3D56"/>
<path d="M227.459 163.552H215.763V172.187H227.459V163.552Z" fill="#3F3D56"/>
<path d="M307.795 172.187H319.491V163.552H307.795V172.187Z" fill="#3F3D56"/>
<path d="M344.409 75.1481C350.946 75.1481 357.337 77.0852 362.772 80.7143C368.208 84.3435 372.444 89.5017 374.946 95.5367C377.447 101.572 378.102 108.212 376.826 114.619C375.55 121.025 372.402 126.91 367.779 131.529C363.156 136.147 357.266 139.292 350.854 140.566C344.442 141.84 337.797 141.185 331.757 138.685C325.718 136.184 320.556 131.951 316.925 126.519C313.293 121.087 311.356 114.701 311.357 108.169C311.358 99.4111 314.841 91.012 321.039 84.8195C327.238 78.627 335.644 75.1481 344.409 75.1481ZM344.409 66.9923C336.257 66.9923 328.289 69.4077 321.511 73.9331C314.733 78.4584 309.45 84.8904 306.331 92.4156C303.212 99.9409 302.396 108.221 303.987 116.21C305.577 124.199 309.503 131.537 315.268 137.296C321.032 143.055 328.376 146.977 336.371 148.565C344.367 150.154 352.654 149.337 360.185 146.22C367.715 143.102 374.152 137.823 378.68 131.05C383.208 124.277 385.625 116.315 385.624 108.169C385.611 97.2516 381.264 86.7847 373.538 79.0651C365.811 71.3456 355.335 67.0038 344.409 66.9923Z" fill="#3F3D56"/>
<path d="M347.967 57.3638H338.307V67.5249H347.967V57.3638Z" fill="#3F3D56"/>
<path d="M373.481 66.4489L365.2 61.4774L359.963 70.1872L368.243 75.1586L373.481 66.4489Z" fill="#3F3D56"/>
<path d="M390.462 86.5604L385.778 78.1181L376.884 83.0443L381.567 91.4866L390.462 86.5604Z" fill="#3F3D56"/>
<path d="M385.648 137.943L390.768 129.757L382.144 124.373L377.024 132.559L385.648 137.943Z" fill="#3F3D56"/>
<path d="M307.252 91.4909L311.936 83.0485L303.041 78.1223L298.358 86.5647L307.252 91.4909Z" fill="#3F3D56"/>
<path d="M311.796 132.557L306.677 124.372L298.053 129.756L303.172 137.942L311.796 132.557Z" fill="#3F3D56"/>
<path d="M320.577 75.1595L328.857 70.188L323.62 61.4783L315.339 66.4497L320.577 75.1595Z" fill="#3F3D56"/>
<path d="M347.967 148.819H338.307V158.98H347.967V148.819Z" fill="#3F3D56"/>
<path d="M368.242 141.181L359.962 146.152L365.199 154.862L373.48 149.891L368.242 141.181Z" fill="#3F3D56"/>
<path d="M315.337 149.888L323.617 154.86L328.855 146.15L320.574 141.178L315.337 149.888Z" fill="#3F3D56"/>
<path d="M304.236 104.106H292.54V112.741H304.236V104.106Z" fill="#3F3D56"/>
<path d="M384.583 112.741H396.279V104.106H384.583V112.741Z" fill="#3F3D56"/>
<path d="M190.823 72.6054C191.212 72.6054 191.601 72.6054 191.99 72.6054C200.653 72.9007 208.854 76.5846 214.824 82.8635C220.795 89.1424 224.058 97.5136 223.911 106.174C223.764 114.834 220.218 123.089 214.037 129.162C207.856 135.234 199.535 138.638 190.866 138.638C190.478 138.638 190.089 138.638 189.695 138.638C181.031 138.343 172.831 134.659 166.86 128.379C160.889 122.1 157.626 113.728 157.774 105.068C157.922 96.4073 161.469 88.1515 167.651 82.0795C173.833 76.0074 182.155 72.605 190.823 72.6054ZM190.823 64.4497C180.014 64.4483 169.637 68.6903 161.927 76.2615C154.218 83.8326 149.795 94.1269 149.61 104.926C149.424 115.725 153.493 126.165 160.938 133.996C168.383 141.826 178.609 146.421 189.412 146.789C189.892 146.789 190.372 146.813 190.852 146.813C201.661 146.813 212.038 142.571 219.746 134.999C227.454 127.427 231.876 117.133 232.061 106.334C232.245 95.5356 228.177 85.0965 220.732 77.2665C213.287 69.4365 203.062 64.8422 192.259 64.4737C191.779 64.4737 191.299 64.4497 190.818 64.4497H190.823Z" fill="#3F3D56"/>
<path d="M196.159 54.9831L186.505 54.6479L186.152 64.8029L195.806 65.138L196.159 54.9831Z" fill="#3F3D56"/>
<path d="M221.336 64.9486L213.233 59.6929L207.696 68.2156L215.799 73.4714L221.336 64.9486Z" fill="#3F3D56"/>
<path d="M237.611 85.6351L233.224 77.0354L224.164 81.65L228.551 90.2497L237.611 85.6351Z" fill="#3F3D56"/>
<path d="M231.025 136.804L236.426 128.801L227.994 123.12L222.594 131.123L231.025 136.804Z" fill="#3F3D56"/>
<path d="M154.286 87.6646L159.26 79.3899L150.542 74.1581L145.568 82.4328L154.286 87.6646Z" fill="#3F3D56"/>
<path d="M156.723 129.662L151.893 121.265L143.045 126.345L147.876 134.743L156.723 129.662Z" fill="#3F3D56"/>
<path d="M168.176 71.8054L176.624 67.1243L171.692 58.238L163.244 62.9191L168.176 71.8054Z" fill="#3F3D56"/>
<path d="M192.984 146.378L183.33 146.043L182.977 156.198L192.631 156.533L192.984 146.378Z" fill="#3F3D56"/>
<path d="M213.518 139.455L205.069 144.136L210.001 153.022L218.449 148.341L213.518 139.455Z" fill="#3F3D56"/>
<path d="M160.351 146.313L168.454 151.569L173.991 143.046L165.888 137.79L160.351 146.313Z" fill="#3F3D56"/>
<path d="M150.839 100.179L139.15 99.7732L138.85 108.404L150.539 108.809L150.839 100.179Z" fill="#3F3D56"/>
<path d="M230.836 111.584L242.525 111.989L242.825 103.359L231.137 102.953L230.836 111.584Z" fill="#3F3D56"/>
<path d="M84.3924 316.208C83.2029 316.353 82.0495 316.713 80.9882 317.269C79.5478 318.147 78.6596 319.696 78.0258 321.26C76.4365 325.185 76.1053 329.493 76.038 333.734C75.9804 337.149 76.0957 340.647 77.32 343.832C77.6558 344.841 78.2384 345.749 79.0149 346.476C79.6979 347.013 80.489 347.396 81.3339 347.598C83.1584 348.078 85.2758 348.078 86.769 346.927C88.4303 345.627 88.848 343.338 89.1985 341.261C89.6786 338.459 90.346 335.504 92.4298 333.551C93.9758 332.112 96.1893 331.392 97.3128 329.608C98.6523 327.487 97.9466 324.719 97.0919 322.359C96.3477 320.315 95.2578 316.165 93.1164 315.119C90.975 314.073 86.6202 315.805 84.3924 316.208Z" fill="#FBBEBE"/>
<path d="M163.361 326.259C162.714 328.547 161.566 330.662 160 332.453C159.04 333.547 157.864 334.875 158.368 336.233C158.573 336.693 158.878 337.101 159.261 337.428C166.3 344.312 176.147 347.661 185.918 348.879C186.075 348.922 186.241 348.922 186.398 348.879C186.686 348.75 186.753 348.4 186.792 348.078C186.948 347.061 186.948 346.025 186.792 345.008C186.312 342.609 184.223 340.944 182.178 339.63C180.132 338.315 177.895 337.039 176.752 334.895C175.312 332.227 175.931 328.754 174.236 326.259C172.863 324.23 170.314 323.381 167.894 322.982C167.054 322.853 165.267 321.932 164.533 322.359C163.784 322.791 163.616 325.424 163.361 326.259Z" fill="#FBBEBE"/>
<path d="M83.4328 315.959C83.4344 315.722 83.3485 315.494 83.1917 315.317C83.0348 315.14 82.8181 315.027 82.583 314.999C82.113 314.951 81.6381 315.012 81.1954 315.177C80.0944 315.476 78.9701 315.681 77.8345 315.791C76.4853 315.921 75.1073 315.916 73.7965 316.271C72.4858 316.626 71.2038 317.408 70.6709 318.67C70.4116 319.39 70.2942 320.154 70.3252 320.92C70.298 323.864 70.6498 326.801 71.3718 329.656C71.3845 329.77 71.4231 329.88 71.4847 329.977C71.5463 330.075 71.6292 330.157 71.7271 330.217C71.8952 330.284 72.0969 330.217 72.2649 330.294C72.4125 330.382 72.5233 330.52 72.577 330.683C73.3884 332.506 73.5757 334.521 73.7917 336.516C74.1118 339.456 74.5167 342.385 75.0065 345.305C75.2945 347.008 75.6498 348.798 76.7734 350.103C78.0025 351.542 79.9518 352.161 81.8292 352.415C85.7951 352.943 89.7994 352.147 93.7173 351.331C94.4643 351.256 95.1669 350.942 95.7194 350.434C96.0774 349.986 96.2493 349.417 96.1996 348.846C96.1084 346.888 94.3079 345.488 92.6754 344.413L90.4284 342.902C90.2716 342.815 90.1369 342.694 90.0347 342.547C89.9282 342.323 89.8898 342.073 89.9242 341.827L90.0683 338.949C88.5757 338.972 87.1175 339.4 85.8492 340.187C84.5808 340.973 83.5499 342.089 82.8663 343.415C82.5542 344.034 82.2613 344.758 81.6131 344.998C80.8113 345.301 79.9182 344.624 79.6494 343.813C79.4624 342.976 79.4871 342.105 79.7214 341.28C81.0369 334.237 80.7297 326.998 81.5315 319.879C81.5811 319.08 81.8267 318.305 82.2469 317.624C82.6358 317.086 83.3608 316.616 83.4328 315.959Z" fill="#3F3D56"/>
<path d="M181.495 343.266C181.826 343.813 182.34 344.226 182.647 344.792C182.954 345.358 182.95 346.183 182.397 346.505C182.071 346.648 181.709 346.685 181.36 346.61C174.311 345.736 167.693 342.745 162.381 338.032C161.499 337.287 160.717 336.431 160.057 335.485C159.437 334.525 158.914 333.398 157.858 333.004C157.226 335.739 156.904 338.536 156.897 341.342C156.897 343.19 157.152 345.3 158.664 346.37C159.271 346.746 159.936 347.017 160.633 347.171L163.931 348.102C164.513 348.322 165.143 348.383 165.756 348.28C166.145 348.174 166.491 347.929 166.889 347.858C167.323 347.811 167.762 347.867 168.171 348.021L171.018 348.851C171.982 349.096 172.924 349.416 173.837 349.81C174.648 350.194 175.402 350.698 176.194 351.125C177.523 351.79 178.902 352.35 180.318 352.799L185.331 354.536C186.701 355.076 188.133 355.444 189.595 355.629C190.603 355.716 191.626 355.629 192.624 355.802C193.383 355.932 194.117 356.205 194.886 356.282C196.152 356.317 197.396 355.949 198.439 355.231C198.845 355.004 199.197 354.692 199.471 354.315C200.191 353.197 199.572 351.724 198.866 350.597C197.565 348.515 195.937 346.562 193.786 345.372C192.912 344.893 191.971 344.538 191.073 344.101C188.519 342.863 186.584 340.796 184.169 339.38C181.888 338.056 180.419 341.506 181.495 343.266Z" fill="#3F3D56"/>
<path d="M111.094 141.622C108.446 143.44 105.412 144.619 102.231 145.067C100.567 145.274 98.89 145.364 97.2133 145.336C90.2218 145.327 83.2427 144.745 76.3467 143.594C79.093 140.572 81.8682 137.357 82.9053 133.395C83.4192 131.304 83.5252 129.135 83.2174 127.004C82.8015 124.271 82.1493 121.579 81.268 118.959C84.2094 119.117 87.1587 119.041 90.0881 118.733C91.759 118.566 95.8497 117.045 97.2901 118.196C98.6393 119.266 97.6214 123.051 97.5974 124.797C97.5974 124.86 97.5974 124.922 97.5974 124.985C97.6729 127.635 98.2445 130.249 99.2827 132.689C101.395 137.41 105.913 141.287 111.094 141.622Z" fill="#FBBEBE"/>
<path opacity="0.1" d="M97.616 124.774C95.5118 126.147 93.1376 127.055 90.6532 127.435C88.1687 127.816 85.6315 127.661 83.212 126.98C82.7962 124.247 82.1439 121.555 81.2627 118.935C84.2041 119.093 87.1533 119.017 90.0827 118.709C91.7536 118.542 95.8443 117.021 97.2847 118.172C98.6579 119.242 97.64 123.027 97.616 124.774Z" fill="black"/>
<path d="M87.9948 126.817C97.7 126.817 105.568 118.956 105.568 109.258C105.568 99.5609 97.7 91.6995 87.9948 91.6995C78.2895 91.6995 70.4219 99.5609 70.4219 109.258C70.4219 118.956 78.2895 126.817 87.9948 126.817Z" fill="#FBBEBE"/>
<path d="M162.553 198.108C162.563 199.526 162.203 200.921 161.508 202.157C160.813 203.393 159.808 204.426 158.592 205.156C157.234 205.868 155.778 206.378 154.271 206.667C146.234 208.586 137.999 210.164 129.746 209.694C127.96 209.593 126.145 209.382 124.541 208.6C122.938 207.818 121.569 206.355 121.329 204.59C121.318 204.153 121.232 203.721 121.075 203.313C120.756 202.864 120.339 202.493 119.855 202.229C119.113 201.659 118.545 200.893 118.218 200.017C117.89 199.141 117.815 198.19 118.002 197.273C116.998 197.72 115.952 196.712 115.481 195.719C115.01 194.726 114.641 193.527 113.633 193.109C112.946 192.817 112.154 192.989 111.429 192.802C110.272 192.505 109.566 191.363 108.75 190.509C107.083 188.729 104.721 187.808 102.541 186.714C96.074 183.457 90.8022 178.294 85.6407 173.219C83.0432 170.662 80.4265 168.085 78.3667 165.063C77.7857 164.214 77.2624 163.341 76.7678 162.444C75.2063 159.452 73.8523 156.357 72.7155 153.18C72.0625 151.481 71.4 149.687 71.6688 147.902C71.6928 147.739 71.7264 147.576 71.7649 147.423C72.0994 146.263 72.6393 145.173 73.3589 144.203C75.145 141.579 77.488 139.094 80.5609 138.288C83.6338 137.482 86.7018 138.456 89.8227 139.118C90.859 139.348 91.9096 139.509 92.9675 139.598C96.2757 139.833 99.5502 138.945 102.748 138.063L106.234 137.103C107.981 136.623 108.855 134.512 110.622 134.143C111.411 134.03 112.215 134.07 112.989 134.263C116.576 134.944 120.191 135.822 123.346 137.645C124.048 138.053 124.72 138.51 125.357 139.013C127.604 140.788 129.381 143.153 130.034 145.916C130.754 148.953 130.077 152.196 130.807 155.233C131.402 157.742 132.91 159.93 134.389 162.045L142.969 174.289C144.884 177.17 146.993 179.917 149.282 182.511C153.882 187.515 162.438 191.301 162.553 198.108Z" fill="#FFB629"/>
<path d="M139.643 80.7468C139.998 79.0725 140.262 77.3166 141.189 75.8725C141.822 74.9646 142.588 74.1561 143.46 73.4738C144.934 72.2312 146.499 71.0367 148.328 70.4322C150.158 69.8277 152.309 69.9092 153.845 71.0702C155.381 72.2312 156.03 74.2318 156.27 76.1412C156.596 78.7654 156.27 81.5288 154.968 83.8172C153.48 86.4126 150.897 88.135 148.727 90.2171C147.156 91.7215 145.789 93.4247 144.66 95.2832C144.147 96.2526 143.525 97.1603 142.807 97.989C142.442 98.4013 141.986 98.7224 141.475 98.9265C140.964 99.1307 140.412 99.2121 139.863 99.1644C138.942 99.0157 138.183 98.3728 137.463 97.7587C136.575 96.9816 134.179 95.5951 134.102 94.3621C134.044 93.3642 135.912 91.0998 136.368 90.1643C137.787 87.1483 138.884 83.9919 139.643 80.7468Z" fill="#FBBEBE"/>
<path d="M201.401 284.142C199.192 288.215 196.772 292.182 194.804 296.375C193.656 298.827 192.662 301.35 191.385 303.735C189.993 306.335 188.279 308.753 186.824 311.325C183.16 317.806 181.12 325.117 179.233 332.318C173.955 331.529 168.877 329.737 164.272 327.041C163.96 326.859 163.662 326.667 163.374 326.461C162.143 325.579 161.113 324.446 160.354 323.136C162.097 316.549 163.888 309.852 167.436 304.032C168.593 302.113 169.918 300.362 171.109 298.491C174.561 293.07 175.272 286.229 179.214 281.153C179.59 280.641 179.794 280.023 179.794 279.388C179.794 278.752 179.59 278.134 179.214 277.622C178.758 277.032 178.033 276.471 178.167 275.741C178.268 275.209 178.825 274.729 178.609 274.23C178.508 273.99 178.263 273.861 178.071 273.688C177.399 273.069 177.485 272.014 177.428 271.107C177.279 268.809 175.901 266.789 174.547 264.913C174.277 264.469 173.919 264.084 173.495 263.781C173.14 263.565 172.718 263.469 172.362 263.249C171.104 262.462 171.196 260.629 170.591 259.272C169.803 257.482 167.82 256.571 166.519 255.117C164.863 253.27 164.44 250.694 162.678 249.077C162.5 248.902 162.309 248.742 162.107 248.597C162.98 251.308 163.067 254.201 163.129 257.055C163.297 266.837 160.849 276.965 161.996 286.685C162.899 294.394 158.155 302.089 151.409 305.942C148.816 307.419 145.984 308.408 143.17 309.41C138.95 310.902 134.744 312.442 130.605 314.169C127.679 315.378 124.799 316.682 121.963 318.079C118.457 319.78 115.045 321.666 111.741 323.731C107.679 326.312 103.617 328.936 100.731 332.789C97.9415 332.712 95.3872 331.037 93.6203 328.879C91.8534 326.72 90.7395 324.081 89.7264 321.51C88.8286 319.279 87.9451 316.976 87.8779 314.572C87.89 314.314 87.9747 314.065 88.1226 313.852C88.2704 313.64 88.4752 313.474 88.7134 313.373L108 303.159L111.606 301.24C119.504 297.052 127.686 293.18 135.584 288.997C136.117 289.155 136.544 288.551 136.703 288.037C136.861 287.524 136.972 286.862 137.471 286.632C137.721 286.512 138.047 286.517 138.234 286.306C138.356 286.117 138.404 285.889 138.369 285.667C138.114 281.829 135.358 278.342 135.91 274.556C136.146 272.944 136.976 271.357 136.616 269.759C136.362 268.66 135.574 267.773 135.147 266.732C134.187 264.405 135.147 261.603 134.11 259.324C133.421 257.826 132.952 256.236 132.718 254.604C132.221 251.353 131.227 248.197 129.77 245.248C129.068 243.757 128.155 242.376 127.057 241.147C126.476 240.523 125.823 239.966 125.271 239.319C123.595 237.333 122.976 234.684 122.5 232.123C121.636 227.483 121.06 222.671 122.116 218.075C122.481 216.507 123.038 214.952 123.014 213.345C122.99 211.22 122.054 208.739 123.533 207.204C124.145 206.655 124.889 206.273 125.693 206.096C129.093 205.084 132.631 204.623 136.151 204.177L152.259 202.071C154.103 201.826 155.99 201.591 157.617 200.675C159.802 199.471 161.252 197.24 162.14 194.918C164.968 196.981 166.024 200.824 168.281 203.486C169.381 204.786 170.739 205.837 171.945 207.032C173.418 208.582 174.768 210.246 175.982 212.007C179.343 216.617 182.704 221.261 185.105 226.433C186.358 229.119 187.328 231.921 188.327 234.708C192.259 245.68 198.669 256.096 201.329 267.437C201.982 270.21 203.677 272.714 203.941 275.55C204.238 278.558 202.846 281.465 201.401 284.142Z" fill="#3F3D56"/>
<path opacity="0.1" d="M117.042 193.018C116.647 193.747 116.442 194.564 116.446 195.393C116.806 193.618 119.25 192.634 119.409 190.878C119.481 190.068 119.332 190.106 118.833 190.533C118.074 191.19 117.743 192.322 117.042 193.018Z" fill="black"/>
<path opacity="0.1" d="M124.489 198.41C123.973 198.846 123.587 199.415 123.375 200.056C122.959 200.958 122.879 201.979 123.149 202.934C123.509 202.767 123.629 202.325 123.74 201.941C123.917 201.344 124.173 200.772 124.503 200.243C124.791 199.763 126.121 198.693 126.116 198.19C126.102 197.417 124.844 198.137 124.489 198.41Z" fill="black"/>
<path opacity="0.1" d="M125.349 138.979C124.22 139.95 122.975 140.778 121.642 141.445C118.161 143.206 114.306 144.136 110.801 145.844C109.072 146.73 107.392 147.708 105.769 148.775L95.3503 155.372C94.5133 155.851 93.7419 156.436 93.0553 157.114C91.8021 158.447 91.8069 160.793 90.6546 162.223C89.5023 163.653 87.5145 164.459 85.5988 164.554C83.6798 164.566 81.7736 164.241 79.9668 163.595C78.8726 163.268 77.7984 162.877 76.7499 162.424C75.6534 161.959 74.6155 161.367 73.6579 160.659C71.7997 159.258 70.2969 157.219 70.0184 154.902C69.8933 153.312 70.1043 151.713 70.6378 150.21C70.9262 149.232 71.2973 148.28 71.7469 147.365C72.003 146.844 72.2984 146.344 72.6304 145.868C75.031 142.481 79.2418 140.893 83.3182 140.111C85.4596 139.694 87.6394 139.44 89.8048 139.075C90.8411 139.305 91.8918 139.466 92.9497 139.555C96.2578 139.79 99.5323 138.902 102.73 138.019L106.216 137.06C107.963 136.58 108.837 134.469 110.604 134.1C111.394 133.986 112.197 134.027 112.971 134.22C116.558 134.901 120.173 135.779 123.328 137.602C124.034 138.012 124.709 138.472 125.349 138.979Z" fill="black"/>
<path d="M133.848 92.376C133.401 96.6218 129.814 99.7402 127.606 103.41C126.545 105.19 125.801 107.143 124.845 108.985C123.75 110.994 122.531 112.932 121.196 114.79L117.293 120.451C114.998 123.78 112.679 127.139 109.745 129.926C104.631 130.794 100.344 134.589 95.4945 136.431C91.615 137.904 87.3851 138.106 83.3135 138.897C79.242 139.689 75.0216 141.296 72.6306 144.654C71.7402 145.979 71.066 147.436 70.6332 148.972C70.0966 150.473 69.887 152.071 70.0186 153.659C70.3115 155.972 71.7951 158.006 73.6533 159.416C75.5114 160.827 77.7344 161.662 79.9622 162.352C81.7696 162.996 83.6754 163.321 85.5942 163.312C87.5147 163.216 89.4641 162.477 90.6548 160.98C91.8455 159.483 91.7879 157.205 93.0555 155.871C93.7438 155.194 94.5168 154.608 95.3553 154.129L105.774 147.533C107.396 146.472 109.074 145.5 110.801 144.621C114.306 142.908 118.162 141.982 121.643 140.221C125.124 138.461 128.364 135.554 129.061 131.716C131.183 119.923 139.35 109.983 146.345 100.244C146.115 100.196 146.187 99.673 146.101 99.4523C145.208 97.1399 143.22 95.3984 140.982 94.2998C138.745 93.2011 136.248 92.8941 133.848 92.376Z" fill="#FFB629"/>
<path d="M97.0112 92.4623C97.1411 91.1833 96.8888 89.8945 96.2862 88.7587C95.1291 86.8397 92.7044 86.1632 90.5246 85.7122C88.4152 85.2805 86.2962 84.9095 84.1677 84.5992C82.42 84.345 80.6291 84.1195 78.9102 84.5129C76.5095 85.0358 74.5554 86.6238 72.3324 87.6121C69.706 88.7827 66.7964 89.0897 63.9924 89.7374C61.1884 90.385 58.3172 91.4836 56.56 93.7577C55.2252 95.4848 54.6922 97.6916 54.2937 99.8409C50.9664 117.779 54.5482 136.177 55.23 154.408C55.4941 161.503 55.1724 169.088 51.1152 174.917L62.9313 174.605C65.9562 174.528 69.2067 174.37 71.5737 172.504C73.6671 170.863 74.6562 168.22 75.554 165.715C76.2598 163.744 76.9704 161.734 77.0617 159.642C77.2489 155.358 74.8146 151.15 75.6213 146.933C76.2118 143.786 78.5021 141.243 80.9556 139.176C83.409 137.108 86.1362 135.338 88.1192 132.805C91.6625 128.328 92.3395 122.212 91.8978 116.527C91.6337 113.144 91.0288 109.762 91.3216 106.38C91.5425 103.852 92.3443 101.242 94.0008 99.27C95.8637 97.0344 96.848 95.6335 97.0112 92.4623Z" fill="#3F3D56"/>
<path opacity="0.1" d="M96.2858 88.7586C95.1479 86.8684 92.7856 86.1872 90.6202 85.7362C91.7714 86.1455 92.7564 86.9207 93.4242 87.9431C94.029 89.0781 94.2815 90.3676 94.1492 91.6467C93.986 94.8131 93.0017 96.214 91.1196 98.4544C89.4631 100.426 88.6613 103.031 88.4404 105.564C88.1476 108.947 88.7525 112.329 89.0166 115.711C89.4583 121.396 88.7813 127.513 85.2427 131.989C83.255 134.503 80.5278 136.307 78.0791 138.36C75.6305 140.413 73.3306 142.97 72.7401 146.118C71.9478 150.335 74.3821 154.542 74.1805 158.826C74.0892 160.918 73.3738 162.928 72.668 164.9C71.775 167.404 70.7811 170.043 68.6877 171.684C66.2871 173.55 63.0558 173.713 60.0453 173.79L51.6766 174.01C51.4893 174.317 51.2973 174.624 51.0908 174.917L62.9069 174.605C65.9318 174.528 69.1823 174.37 71.5493 172.504C73.6427 170.863 74.6318 168.22 75.5296 165.715C76.2354 163.744 76.946 161.733 77.0373 159.642C77.2245 155.358 74.7902 151.15 75.5969 146.933C76.1874 143.786 78.4777 141.243 80.9311 139.176C83.3846 137.108 86.1118 135.338 88.0947 132.805C91.6381 128.328 92.3151 122.212 91.8734 116.527C91.6093 113.144 91.0044 109.762 91.2972 106.38C91.5181 103.852 92.3199 101.242 93.9764 99.27C95.8585 97.0343 96.8572 95.6335 97.006 92.4623C97.1374 91.1838 96.8868 89.895 96.2858 88.7586Z" fill="black"/>
<path opacity="0.1" d="M185.062 273.64L163.375 326.485C162.143 325.603 161.114 324.47 160.354 323.16C162.097 316.573 163.888 309.876 167.436 304.056C168.594 302.137 169.919 300.386 171.109 298.515C174.562 293.094 175.272 286.253 179.214 281.177C179.591 280.665 179.794 280.047 179.794 279.412C179.794 278.776 179.591 278.158 179.214 277.646C178.758 277.056 178.033 276.495 178.167 275.765C178.268 275.233 178.825 274.753 178.609 274.254C178.508 274.014 178.263 273.885 178.071 273.712C177.399 273.093 177.486 272.038 177.428 271.131C177.279 268.833 175.901 266.813 174.547 264.937C174.277 264.493 173.919 264.108 173.496 263.805C173.14 263.589 172.718 263.493 172.363 263.273C171.105 262.486 171.196 260.653 170.591 259.296C169.804 257.506 167.821 256.595 166.519 255.141C164.863 253.294 164.44 250.718 162.678 249.101L162.529 248.727L164.22 238.532L185.062 273.64Z" fill="black"/>
</g>
<defs>
<linearGradient id="paint0_linear" x1="127.653" y1="357.366" x2="127.653" y2="69.18" gradientUnits="userSpaceOnUse">
<stop stop-color="#808080" stop-opacity="0.25"/>
<stop offset="0.54" stop-color="#808080" stop-opacity="0.12"/>
<stop offset="1" stop-color="#808080" stop-opacity="0.1"/>
</linearGradient>
<clipPath id="clip0">
<rect width="484.714" height="360" fill="white"/>
</clipPath>
</defs>
</svg>
