<svg width="80" height="80" viewBox="0 0 80 80" fill="none" xmlns="http://www.w3.org/2000/svg">
<path d="M29.5 68.5L1.5 68V74.5L2.5 77L6 79H74.5L77.5 77L79 74V68.5L66 68H52L49.5 69.5C48.5 69.8333 45.2 70.6 40 71C34.8 71.4 30.8333 69.5 29.5 68.5Z" fill="#46B1FF"/>
<path d="M60.5 31.5L65.5 22.5V13L60.5 6L49 17.5L55 34L60.5 31.5Z" fill="#46B1FF"/>
<path d="M13.5 30L32 29.5V45H14L13.5 30Z" fill="#46B1FF"/>
<path d="M7.74219 72.2578H10.3228V74.8385H7.74219V72.2578Z" fill="#FFFFFF"/>
<path d="M12.9033 72.2578H15.484V74.8385H12.9033V72.2578Z" fill="#FFFFFF"/>
<path d="M18.0645 72.2578H20.6451V74.8385H18.0645V72.2578Z" fill="#FFFFFF"/>
<path d="M61.9355 72.2578H72.2581V74.8385H61.9355V72.2578Z" fill="#FFFFFF"/>
<path d="M77.4193 67.0968V24.5161C77.4193 20.9589 74.5249 18.0645 70.9677 18.0645H67.0968C67.0968 8.10295 58.9938 0 49.0323 0C39.0707 0 30.9677 8.10295 30.9677 18.0645H9.03226C5.47505 18.0645 2.58065 20.9589 2.58065 24.5161V67.0968H0V73.5484C0 77.1056 2.89441 80 6.45161 80H73.5484C77.1056 80 80 77.1056 80 73.5484V67.0968H77.4193ZM70.9677 20.6452C73.1017 20.6452 74.8387 22.3822 74.8387 24.5161V67.0968H72.2581V25.8064C72.2581 24.3832 71.1007 23.2258 69.6774 23.2258H66.3357C66.5845 22.3897 66.7641 21.5266 66.8901 20.6452H70.9677ZM34.2981 13.3228L47.9933 19.0297L52.6827 33.0954C51.5096 33.3808 50.2917 33.5484 49.0323 33.5484C40.4939 33.5484 33.5484 26.6028 33.5484 18.0645C33.5484 16.41 33.8155 14.8179 34.2981 13.3228ZM55.1342 32.2902L50.5084 18.4129L60.8436 8.07712C63.13 10.7756 64.5161 14.2591 64.5161 18.0645C64.5161 24.4361 60.6452 29.9175 55.1342 32.2902ZM49.0323 2.58065C52.8377 2.58065 56.3212 3.96673 59.0209 6.25189L48.7317 16.5404L35.298 10.9444C37.8799 5.98223 43.062 2.58065 49.0323 2.58065ZM5.16129 24.5161C5.16129 22.3822 6.89831 20.6452 9.03226 20.6452H31.1744C31.3004 21.5266 31.4787 22.3897 31.7288 23.2258H10.3226C8.89932 23.2258 7.74194 24.3832 7.74194 25.8064V67.0968H5.16129V24.5161ZM77.4193 73.5484C77.4193 75.6823 75.6823 77.4193 73.5484 77.4193H6.45161C4.31767 77.4193 2.58065 75.6823 2.58065 73.5484V69.6774H29.1639C31.0194 71.3458 33.3934 72.2581 35.9085 72.2581H44.0927C46.6079 72.2581 48.9819 71.3458 50.8373 69.6774H67.0968V67.0968H49.7883L49.4103 67.4748C47.9895 68.8955 46.1019 69.6774 44.0915 69.6774H35.9073C33.8981 69.6774 32.0092 68.8955 30.5885 67.4748L30.2117 67.0968H10.3226V25.8064H32.7356C35.6426 31.8996 41.8441 36.129 49.0323 36.129C56.2204 36.129 62.4219 31.8996 65.3289 25.8064H69.6774V69.6774H77.4193V73.5484Z" fill="#FFFFFF"/>
<path d="M63.2259 54.1936C62.4339 54.1936 61.6968 54.4349 61.0825 54.8451L56.5809 51.4699C56.6955 51.1045 56.7743 50.724 56.7743 50.3226C56.7743 48.1887 55.0373 46.4517 52.9033 46.4517C50.7694 46.4517 49.0324 48.1887 49.0324 50.3226C49.0324 50.7668 49.1224 51.187 49.2604 51.5846L42.0339 57.3665C41.4416 56.9973 40.7486 56.7742 40.0001 56.7742C39.1319 56.7742 38.338 57.0723 37.6916 57.5561L32.1277 53.8464C32.2052 53.5434 32.2582 53.2309 32.2582 52.9033C32.2582 50.7693 30.5211 49.0323 28.3872 49.0323C26.2532 49.0323 24.5162 50.7693 24.5162 52.9033C24.5162 53.2309 24.5691 53.5434 24.6466 53.8464L19.0828 57.5561C18.4363 57.071 17.6425 56.7742 16.7743 56.7742C14.6403 56.7742 12.9033 58.5113 12.9033 60.6452C12.9033 62.7792 14.6403 64.5162 16.7743 64.5162C18.9082 64.5162 20.6453 62.7792 20.6453 60.6452C20.6453 60.3176 20.5923 60.0051 20.5148 59.702L26.0787 55.9924C26.7251 56.4775 27.519 56.7742 28.3872 56.7742C29.2554 56.7742 30.0492 56.4775 30.6957 55.9924L36.2595 59.702C36.182 60.0051 36.1291 60.3188 36.1291 60.6452C36.1291 62.7792 37.8661 64.5162 40.0001 64.5162C42.134 64.5162 43.8711 62.7792 43.8711 60.6452C43.8711 60.201 43.781 59.7808 43.643 59.3832L50.8695 53.6014C51.4618 53.9706 52.1548 54.1936 52.9033 54.1936C53.6953 54.1936 54.4324 53.9523 55.0467 53.5421L59.5484 56.9173C59.4337 57.2827 59.3549 57.6632 59.3549 58.0646C59.3549 60.1985 61.092 61.9355 63.2259 61.9355C65.3598 61.9355 67.0969 60.1985 67.0969 58.0646C67.0969 55.9306 65.3598 54.1936 63.2259 54.1936ZM16.7743 61.9355C16.0636 61.9355 15.484 61.3559 15.484 60.6452C15.484 59.9345 16.0636 59.3549 16.7743 59.3549C17.485 59.3549 18.0646 59.9345 18.0646 60.6452C18.0646 61.3559 17.485 61.9355 16.7743 61.9355ZM28.3872 54.1936C27.6765 54.1936 27.0969 53.614 27.0969 52.9033C27.0969 52.1926 27.6765 51.613 28.3872 51.613C29.0979 51.613 29.6775 52.1926 29.6775 52.9033C29.6775 53.614 29.0979 54.1936 28.3872 54.1936ZM40.0001 61.9355C39.2894 61.9355 38.7098 61.3559 38.7098 60.6452C38.7098 59.9345 39.2894 59.3549 40.0001 59.3549C40.7108 59.3549 41.2904 59.9345 41.2904 60.6452C41.2904 61.3559 40.7108 61.9355 40.0001 61.9355ZM52.9033 51.613C52.1926 51.613 51.613 51.0333 51.613 50.3226C51.613 49.6119 52.1926 49.0323 52.9033 49.0323C53.614 49.0323 54.1936 49.6119 54.1936 50.3226C54.1936 51.0333 53.614 51.613 52.9033 51.613ZM63.2259 59.3549C62.5152 59.3549 61.9356 58.7752 61.9356 58.0646C61.9356 57.3539 62.5152 56.7742 63.2259 56.7742C63.9366 56.7742 64.5162 57.3539 64.5162 58.0646C64.5162 58.7752 63.9366 59.3549 63.2259 59.3549Z" fill="#FFFFFF"/>
<path d="M33.5485 28.3872H12.9033V46.4517H33.5485V28.3872ZM30.9678 43.8711H15.484V30.9679H30.9678V43.8711Z" fill="#FFFFFF"/>
<path d="M18.0645 33.5483H28.387V36.129H18.0645V33.5483Z" fill="#FFFFFF"/>
<path d="M18.0645 38.71H28.387V41.2906H18.0645V38.71Z" fill="#FFFFFF"/>
<path d="M36.1289 41.29H38.7095V43.8707H36.1289V41.29Z" fill="#FFFFFF"/>
<path d="M41.2905 41.29H67.097V43.8707H41.2905V41.29Z" fill="#FFFFFF"/>
</svg>
