<svg width="80" height="80" viewBox="0 0 80 80" fill="none" xmlns="http://www.w3.org/2000/svg">
<g clip-path="url(#clip0)">
<circle cx="40" cy="14" r="13" fill="#E4F4FF"/>
<rect x="17" y="34" width="46" height="10" fill="#E4F4FF"/>
<rect x="1" y="61" width="77" height="6" fill="#E4F4FF"/>
<path d="M57.422 15.0758H63.4352C64.0831 15.0758 64.6082 14.5508 64.6082 13.9029C64.6082 13.255 64.0831 12.73 63.4352 12.73H57.422C56.774 12.73 56.249 13.255 56.249 13.9029C56.249 14.5508 56.774 15.0758 57.422 15.0758Z" fill="#005593"/>
<path d="M74.2776 12.73H68.434C67.7861 12.73 67.2611 13.255 67.2611 13.9029C67.2611 14.5508 67.7861 15.0759 68.434 15.0759H74.2776C76.0986 15.0759 77.5801 16.5573 77.5801 18.3784V59.8587H14.5021C13.8542 59.8587 13.3292 60.3837 13.3292 61.0316C13.3292 61.6796 13.8542 62.2046 14.5021 62.2046H77.5802V63.4682C77.5802 65.2892 76.0986 66.7707 74.2777 66.7707H5.72261C3.90159 66.7707 2.42009 65.2891 2.42009 63.4682V62.2046H9.50353C10.1515 62.2046 10.6765 61.6796 10.6765 61.0316C10.6765 60.3837 10.1515 59.8587 9.50353 59.8587H2.42009V18.3785C2.42009 16.5573 3.90174 15.076 5.72261 15.076H22.5782C23.2261 15.076 23.7511 14.551 23.7511 13.9031C23.7511 13.2551 23.2261 12.7301 22.5782 12.7301H5.72261C2.60807 12.7301 0.0742188 15.264 0.0742188 18.3785V63.4682C0.0742188 66.5827 2.60807 69.1166 5.72261 69.1166H25.143V73.6962L22.1914 77.654H20.7751C20.1272 77.654 19.6022 78.179 19.6022 78.8269C19.6022 79.4749 20.1272 79.9999 20.7751 79.9999H59.5524C60.2003 79.9999 60.7253 79.4749 60.7253 78.8269C60.7253 78.179 60.2003 77.654 59.5524 77.654H57.9655L55.0139 73.6962V69.1166H74.2779C77.3924 69.1166 79.9263 66.5827 79.9263 63.4682V18.3785C79.926 15.264 77.3921 12.73 74.2776 12.73ZM52.9006 74.7866L55.0391 77.654H25.1175L27.256 74.7866C27.4072 74.584 27.4887 74.3382 27.4887 74.0855V69.1168H52.6677V74.0855C52.6679 74.3382 52.7494 74.584 52.9006 74.7866Z" fill="#005593"/>
<path d="M40.0002 27.8061C47.6665 27.8061 53.9033 21.5692 53.9033 13.903C53.9033 6.23689 47.6664 0 40.0002 0C32.3341 0 26.0972 6.23689 26.0972 13.9029C26.097 21.5692 32.3339 27.8061 40.0002 27.8061ZM40.0002 2.34587C46.3729 2.34587 51.5574 7.53025 51.5574 13.9029C51.5574 20.2755 46.3729 25.4601 40.0002 25.4601C33.6276 25.4601 28.443 20.2755 28.443 13.9029C28.443 7.53025 33.6276 2.34587 40.0002 2.34587Z" fill="#005593"/>
<path d="M37.6564 19.7195C37.8805 19.9231 38.1629 20.0245 38.4452 20.0245C38.7394 20.0245 39.0333 19.9144 39.2602 19.6954L47.6009 11.6422C48.0667 11.1922 48.0799 10.4497 47.6299 9.98365C47.1798 9.51776 46.4376 9.50462 45.9714 9.95456L38.4215 17.2444L36.0709 15.1075C35.5919 14.6721 34.8498 14.7068 34.4139 15.1865C33.9782 15.6657 34.0134 16.4077 34.4929 16.8435L37.6564 19.7195Z" fill="#005593"/>
<path d="M18.3505 35.049H51.3491C51.9971 35.049 52.5221 34.524 52.5221 33.8761C52.5221 33.2281 51.9971 32.7031 51.3491 32.7031H18.3505C16.666 32.7031 15.2959 34.0736 15.2959 35.7579V42.6889C15.2959 44.3734 16.6662 45.7437 18.3505 45.7437H37.6216C38.2695 45.7437 38.7945 45.2187 38.7945 44.5707C38.7945 43.9228 38.2695 43.3978 37.6216 43.3978H18.3505C17.9597 43.3978 17.6418 43.0798 17.6418 42.6889V35.7579C17.6418 35.3671 17.9597 35.049 18.3505 35.049Z" fill="#005593"/>
<path d="M56.3477 35.049H61.6496C62.0404 35.049 62.3583 35.3669 62.3583 35.7579V42.6889C62.3583 43.0798 62.0404 43.3978 61.6496 43.3978H57.1679C56.5199 43.3978 55.9949 43.9228 55.9949 44.5707C55.9949 45.2187 56.5199 45.7437 57.1679 45.7437H61.6496C63.3341 45.7437 64.7042 44.3732 64.7042 42.6889V35.7579C64.7042 34.0734 63.3339 32.7031 61.6496 32.7031H56.3477C55.6998 32.7031 55.1748 33.2281 55.1748 33.8761C55.1748 34.524 55.6998 35.049 56.3477 35.049Z" fill="#005593"/>
<path d="M53.8361 45.7766C53.7294 45.0557 53.2318 44.4701 52.5373 44.2488L43.696 41.4324C43.1347 41.2532 42.5342 41.3426 42.0489 41.6762C41.5633 42.0098 41.265 42.5386 41.2306 43.1266L40.6898 52.3898C40.6474 53.1173 41.0153 53.7918 41.6501 54.1498C42.285 54.5078 43.0524 54.4737 43.6531 54.0613L45.4035 52.8587L47.5532 55.9874C47.8338 56.3958 48.2565 56.6704 48.7438 56.7606C48.8578 56.7819 48.9722 56.7922 49.0859 56.7922C49.4573 56.7922 49.8197 56.6804 50.1321 56.4657L52.957 54.5249C53.7995 53.9456 54.0141 52.7888 53.4351 51.9461L51.285 48.817L53.0352 47.6145C53.6358 47.2018 53.9428 46.4974 53.8361 45.7766ZM49.2083 54.2541L46.6724 50.5635C46.4962 50.307 46.2255 50.131 45.9196 50.0744C45.8486 50.0611 45.7771 50.0547 45.7058 50.0547C45.4702 50.0547 45.2383 50.1257 45.0416 50.2608L43.0854 51.605L43.5385 43.8443L50.9455 46.2039L48.9895 47.5479C48.733 47.7242 48.5571 47.9949 48.5005 48.3008C48.4437 48.6065 48.5108 48.9226 48.6869 49.1788L51.2231 52.8698L49.2083 54.2541Z" fill="#005593"/>
</g>
<defs>
<clipPath id="clip0">
<rect width="80" height="80" fill="white"/>
</clipPath>
</defs>
</svg>
