<svg width="80" height="80" viewBox="0 0 80 80" fill="none" xmlns="http://www.w3.org/2000/svg">
<path d="M57.4998 33V18.5V17.5H62.4998L62.9998 33L66.4998 34.5L68.4998 36.5V39V43.5L67.9998 46L65.4998 47.5H62.9998V75H57.4998L57.9998 47.5C57.4998 47.6667 55.8998 47.8 53.4998 47C50.4998 46 51.4998 40 51.4998 36.5C51.4998 33.7 55.4998 33 57.4998 33Z" fill="#46B1FF"/>
<circle cx="46.5" cy="62.5" r="5.5" fill="#46B1FF"/>
<path d="M35.5 34.5L48 30L39.5 24L35.5 34.5Z" fill="#46B1FF"/>
<rect x="12" y="34" width="16" height="13" fill="#46B1FF"/>
<path d="M78.63 36.5967C79.2772 36.5967 79.8019 36.072 79.8019 35.4248V24.1683C79.8019 19.8601 76.297 16.3553 71.9889 16.3553H69.5734V14.8044C69.5734 13.1769 68.2494 11.8528 66.6219 11.8528H64.5341C62.9066 11.8528 61.5825 13.1769 61.5825 14.8044V16.3553H55.6148V14.8044C55.6148 13.4244 54.6616 12.2659 53.3798 11.9444V9.34826C53.3798 5.87779 50.5564 3.0542 47.0858 3.0542H42.3978C41.7506 3.0542 41.2259 3.57889 41.2259 4.22607C41.2259 4.87326 41.7506 5.39795 42.3978 5.39795H47.0858C49.2639 5.39795 51.0361 7.16998 51.0361 9.34826V11.853H48.6923V9.34826C48.6923 8.46248 47.9717 7.7417 47.0858 7.7417H32.8719C31.9861 7.7417 31.2653 8.46232 31.2653 9.34826V11.853H28.9216V9.34826C28.9216 7.17014 30.6936 5.39795 32.8719 5.39795H37.4036C38.0508 5.39795 38.5755 4.87326 38.5755 4.22607C38.5755 3.57889 38.0508 3.0542 37.4036 3.0542H32.8719C29.4014 3.0542 26.5778 5.87764 26.5778 9.34826V11.9445C25.2961 12.2661 24.3428 13.4245 24.3428 14.8045V16.3554H18.3752V14.8045C18.3752 13.177 17.0511 11.853 15.4236 11.853H13.3362C11.7087 11.853 10.3847 13.177 10.3847 14.8045V16.3554H7.81297C3.50484 16.3554 0 19.8603 0 24.1684V68.9351C0 73.2433 3.50484 76.7481 7.81297 76.7481H71.9891C76.2972 76.7481 79.802 73.2433 79.802 68.9351V40.419C79.802 39.7719 79.2773 39.2472 78.6302 39.2472C77.983 39.2472 77.4583 39.7719 77.4583 40.419V68.9351C77.4583 71.9509 75.0048 74.4044 71.9891 74.4044H63.8092V48.8534H64.0589C67.0952 48.8534 69.5652 46.3833 69.5652 43.3472V37.569C69.5652 34.5328 67.095 32.0626 64.0589 32.0626H63.8092V18.6992H71.9891C75.0048 18.6992 77.4583 21.1526 77.4583 24.1684V35.425C77.4581 36.072 77.9828 36.5967 78.63 36.5967ZM56.1981 32.0626C53.1619 32.0626 50.6919 34.5328 50.6919 37.569V43.3472C50.6919 46.3834 53.162 48.8534 56.1981 48.8534H56.4478V74.4044H23.5105V65.9901L30.3927 63.5412C31.6114 63.1075 32.25 61.7631 31.8164 60.5444L29.4514 53.8981C29.0178 52.6794 27.6734 52.0406 26.4545 52.4744L23.5105 53.522V48.8536H23.7602C26.7964 48.8536 29.2664 46.3834 29.2664 43.3473V37.5692C29.2664 34.5329 26.7962 32.0628 23.7602 32.0628H23.5105V18.6994H56.4478V32.0628H56.1981V32.0626ZM16.1491 66.1214L12.4161 67.4476L10.0525 60.7984L16.1491 58.629V66.1214ZM15.8994 46.5097C14.1555 46.5097 12.7369 45.0909 12.7369 43.3472V37.569C12.7369 35.8251 14.1556 34.4064 15.8994 34.4064H23.76C25.5039 34.4064 26.9225 35.8251 26.9225 37.569V43.3472C26.9225 45.0911 25.5037 46.5097 23.76 46.5097H15.8994ZM23.5105 56.01L27.2434 54.6839L29.6069 61.3331L23.5105 63.5025V56.01ZM46.4577 16.3554V14.8045C46.4577 14.4694 46.7303 14.1967 47.0655 14.1967H52.6634C52.9986 14.1967 53.2713 14.4694 53.2713 14.8045V16.3554H46.4577ZM46.3487 10.0854V11.9445C45.067 12.2661 44.1139 13.4245 44.1139 14.8045V16.3554H35.8442V14.8045C35.8442 13.4245 34.8909 12.2661 33.6094 11.9445V10.0854H46.3487ZM26.6869 14.8045C26.6869 14.4694 26.9595 14.1967 27.2947 14.1967H32.8927C33.2278 14.1967 33.5005 14.4694 33.5005 14.8045V16.3554H26.6869V14.8045ZM12.7284 14.8045C12.7284 14.4694 13.0011 14.1967 13.3362 14.1967H15.4241C15.7592 14.1967 16.0319 14.4694 16.0319 14.8045V16.3554H12.7284V14.8045ZM2.34375 68.9351V24.1684C2.34375 21.1526 4.79719 18.6992 7.81297 18.6992H11.5566H16.1491V22.8586C16.1491 23.5058 16.6737 24.0304 17.3209 24.0304C17.9681 24.0304 18.4928 23.5058 18.4928 22.8586V18.6992H21.1667V32.0626H18.4928V27.8528C18.4928 27.2056 17.9681 26.6809 17.3209 26.6809C16.6737 26.6809 16.1491 27.2056 16.1491 27.8528V32.0626H15.8994C12.8631 32.0626 10.3931 34.5328 10.3931 37.569V43.3472C10.3931 46.3834 12.8633 48.8534 15.8994 48.8534H16.1491V56.1414L9.26703 58.5903C8.67656 58.8003 8.20328 59.2278 7.93437 59.7939C7.66547 60.36 7.63312 60.9969 7.84328 61.5872L10.2083 68.2334C10.4184 68.8237 10.8459 69.297 11.4119 69.5659C11.7314 69.7176 12.0734 69.794 12.417 69.794C12.682 69.794 12.9481 69.7484 13.2052 69.657L16.1494 68.6094V74.4042H7.81297C4.79719 74.4044 2.34375 71.9508 2.34375 68.9351ZM18.4928 74.4044V48.8534H21.1667V74.4044H18.4928ZM61.4653 74.4044H58.7914V48.8534H61.4653V74.4044ZM67.2213 37.5689V43.347C67.2213 45.0909 65.8025 46.5095 64.0588 46.5095H56.1981C54.4542 46.5095 53.0356 45.0908 53.0356 43.347V37.5689C53.0356 35.825 54.4544 34.4062 56.1981 34.4062H64.0588C65.8027 34.4064 67.2213 35.8251 67.2213 37.5689ZM58.7916 32.0626V18.6992H61.4653V32.0626H58.7916ZM63.9264 16.3554V14.8045C63.9264 14.4694 64.1991 14.1967 64.5342 14.1967H66.622C66.9572 14.1967 67.2298 14.4694 67.2298 14.8045V16.3554H63.9264Z" fill="#FFFFFF"/>
<path d="M24.5788 42.9939V37.9219C24.5788 37.2747 24.0542 36.75 23.407 36.75H16.2524C15.6053 36.75 15.0806 37.2747 15.0806 37.9219V42.9939C15.0806 43.6411 15.6053 44.1658 16.2524 44.1658H23.407C24.0542 44.1658 24.5788 43.6411 24.5788 42.9939ZM22.2351 41.822H17.4243V39.0938H22.2351V41.822Z" fill="#FFFFFF"/>
<path d="M55.3794 37.9219V42.9939C55.3794 43.6411 55.9041 44.1658 56.5513 44.1658H63.7058C64.353 44.1658 64.8777 43.6411 64.8777 42.9939V37.9219C64.8777 37.2747 64.353 36.75 63.7058 36.75H56.5513C55.9041 36.75 55.3794 37.2747 55.3794 37.9219ZM57.7231 39.0938H62.5339V41.822H57.7231V39.0938Z" fill="#FFFFFF"/>
<path d="M49.4936 29.9719C49.57 29.3371 49.285 28.7255 48.7497 28.376L40.2951 22.8524C39.8726 22.5763 39.3547 22.5063 38.8741 22.66C38.3934 22.8138 38.0123 23.1716 37.8287 23.6418V23.6419L33.9753 33.5057C33.735 34.1208 33.8709 34.7977 34.33 35.2725C34.6523 35.606 35.08 35.7835 35.5217 35.7835C35.7089 35.7835 35.8987 35.7516 36.0841 35.6863L48.392 31.3463C48.9951 31.1332 49.4172 30.6068 49.4936 29.9719ZM36.6947 32.9854L39.7092 25.269L46.3233 29.59L36.6947 32.9854Z" fill="#FFFFFF"/>
<path d="M39.2891 62.3763C39.2891 66.2082 42.4066 69.3258 46.2386 69.3258C50.0706 69.3258 53.1881 66.2083 53.1881 62.3763C53.1881 58.5443 50.0706 55.4268 46.2386 55.4268C42.4066 55.4268 39.2891 58.5443 39.2891 62.3763ZM50.8442 62.3763C50.8442 64.9158 48.7781 66.9821 46.2384 66.9821C43.6988 66.9821 41.6327 64.916 41.6327 62.3763C41.6327 59.8366 43.6988 57.7705 46.2384 57.7705C48.7781 57.7705 50.8442 59.8366 50.8442 62.3763Z" fill="#FFFFFF"/>
</svg>
