<svg width="150" height="48" viewBox="0 0 150 48" fill="none" xmlns="http://www.w3.org/2000/svg">
<g clip-path="url(#clip0)">
<path fill-rule="evenodd" clip-rule="evenodd" d="M11 4.82227C4.38145 9.09524 0 16.5359 0 24.9999C0 30.2247 1.66952 35.0595 4.50419 38.9999H7.68233C4.45202 35.2383 2.5 30.3471 2.5 24.9999C2.5 18.0109 5.8348 11.8008 11 7.87394V4.82227ZM37 7.87394C42.1652 11.8008 45.5 18.0109 45.5 24.9999C45.5 30.3471 43.548 35.2383 40.3177 38.9999H43.4958C46.3305 35.0595 48 30.2247 48 24.9999C48 16.5359 43.6185 9.09524 37 4.82227V7.87394Z" fill="#8D8D8D"/>
<path d="M21.3477 23H18.377V13.543L15.459 14.3955V12.1455L21.0752 10.2031H21.3477V23ZM30.6915 23H27.7208V13.543L24.8028 14.3955V12.1455L30.419 10.2031H30.6915V23Z" fill="#8D8D8D"/>
<path d="M18.8184 3.9458C18.8184 4.54346 18.7217 5.06348 18.5283 5.50586C18.335 5.94531 18.0669 6.29834 17.7241 6.56494L18.7876 7.3999L17.9482 8.14258L16.5859 7.04834C16.4307 7.07471 16.2695 7.08789 16.1025 7.08789C15.5723 7.08789 15.0991 6.96045 14.6831 6.70557C14.2671 6.45068 13.9448 6.0874 13.7163 5.61572C13.4878 5.14111 13.3721 4.59619 13.3691 3.98096V3.66455C13.3691 3.03467 13.4819 2.48096 13.7075 2.00342C13.936 1.52295 14.2568 1.15527 14.6699 0.900391C15.0859 0.642578 15.5605 0.513672 16.0938 0.513672C16.627 0.513672 17.1001 0.642578 17.5132 0.900391C17.9292 1.15527 18.25 1.52295 18.4756 2.00342C18.7041 2.48096 18.8184 3.0332 18.8184 3.66016V3.9458ZM17.4824 3.65576C17.4824 2.98486 17.3623 2.4751 17.1221 2.12646C16.8818 1.77783 16.5391 1.60352 16.0938 1.60352C15.6514 1.60352 15.3101 1.77637 15.0698 2.12207C14.8296 2.46484 14.708 2.96875 14.7051 3.63379V3.9458C14.7051 4.59912 14.8252 5.10596 15.0654 5.46631C15.3057 5.82666 15.6514 6.00684 16.1025 6.00684C16.5449 6.00684 16.8848 5.83398 17.1221 5.48828C17.3594 5.13965 17.4795 4.63281 17.4824 3.96777V3.65576ZM22.5493 6.5166C22.2358 6.89746 21.8022 7.08789 21.2485 7.08789C20.7388 7.08789 20.3491 6.94141 20.0796 6.64844C19.813 6.35547 19.6768 5.92627 19.6709 5.36084V2.24512H20.9409V5.31689C20.9409 5.81201 21.1665 6.05957 21.6177 6.05957C22.0483 6.05957 22.3442 5.91016 22.5054 5.61133V2.24512H23.7798V7H22.5845L22.5493 6.5166ZM27.4932 7C27.4346 6.88574 27.3921 6.74365 27.3657 6.57373C27.0581 6.9165 26.6582 7.08789 26.166 7.08789C25.7002 7.08789 25.3135 6.95312 25.0059 6.68359C24.7012 6.41406 24.5488 6.07422 24.5488 5.66406C24.5488 5.16016 24.7349 4.77344 25.1069 4.50391C25.4819 4.23438 26.0225 4.09814 26.7285 4.09521H27.313V3.82275C27.313 3.60303 27.2559 3.42725 27.1416 3.29541C27.0303 3.16357 26.853 3.09766 26.6099 3.09766C26.396 3.09766 26.2275 3.14893 26.1045 3.25146C25.9844 3.354 25.9243 3.49463 25.9243 3.67334H24.6543C24.6543 3.39795 24.7393 3.14307 24.9092 2.90869C25.0791 2.67432 25.3193 2.49121 25.6299 2.35938C25.9404 2.22461 26.2891 2.15723 26.6758 2.15723C27.2617 2.15723 27.7261 2.30518 28.0688 2.60107C28.4146 2.89404 28.5874 3.30713 28.5874 3.84033V5.90137C28.5903 6.35254 28.6533 6.69385 28.7764 6.92529V7H27.4932ZM26.4429 6.1167C26.6304 6.1167 26.8032 6.07568 26.9614 5.99365C27.1196 5.90869 27.2368 5.7959 27.313 5.65527V4.83789H26.8384C26.2026 4.83789 25.8643 5.05762 25.8232 5.49707L25.8188 5.57178C25.8188 5.72998 25.8745 5.86035 25.9858 5.96289C26.0972 6.06543 26.2495 6.1167 26.4429 6.1167ZM28.3589 1.48047V1.5332H27.3481L26.6714 0.895996L25.9946 1.5332H25.0015V1.46289L26.3022 0.25H27.0405L28.3589 1.48047ZM25.6299 7.95801C25.6299 7.78223 25.6958 7.63721 25.8276 7.52295C25.9595 7.40869 26.1294 7.35156 26.3374 7.35156C26.5483 7.35156 26.7197 7.40869 26.8516 7.52295C26.9834 7.63721 27.0493 7.78223 27.0493 7.95801C27.0493 8.13086 26.9834 8.27588 26.8516 8.39307C26.7227 8.51025 26.5513 8.56885 26.3374 8.56885C26.1235 8.56885 25.9521 8.51025 25.8232 8.39307C25.6943 8.27588 25.6299 8.13086 25.6299 7.95801ZM30.7319 2.24512L30.7715 2.79443C31.1113 2.36963 31.5669 2.15723 32.1382 2.15723C32.6421 2.15723 33.0171 2.30518 33.2632 2.60107C33.5093 2.89697 33.6353 3.33936 33.6411 3.92822V7H32.3711V3.95898C32.3711 3.68945 32.3125 3.49463 32.1953 3.37451C32.0781 3.25146 31.8833 3.18994 31.6108 3.18994C31.2534 3.18994 30.9854 3.34229 30.8066 3.64697V7H29.5366V2.24512H30.7319Z" fill="#8D8D8D"/>
<path d="M23.7964 22C23.1562 22.6132 22.2304 23.5908 21.3166 24.8762C20.5291 25.9839 19.8872 27.1169 19.3906 28.2706C21.1625 29.4987 22.678 30.9612 23.8863 32.6165C25.084 30.9759 26.5836 29.5244 28.3354 28.3035C27.8159 27.1241 27.1433 25.9684 26.3177 24.8416C25.3852 23.5692 24.4449 22.6043 23.7964 22Z" fill="#8D8D8D"/>
<path d="M24.2771 47.964C25.0985 47.8336 26.3826 47.5601 27.8308 46.9977C31.091 45.7315 33.6162 43.6668 35.3362 40.8606C38.6007 35.5343 37.5264 29.7232 36.8841 27.396C36.0102 27.5978 34.6972 27.967 33.231 28.6056C29.797 30.1006 27.1769 32.293 25.4434 35.1208C23.7237 37.9271 23.0568 41.0699 23.4614 44.4629C23.6412 45.969 24.0041 47.1981 24.2771 47.964Z" fill="#8D8D8D"/>
<path d="M4.58348 34.184C2.98053 34.2873 1.6428 34.5584 0.773438 34.7776C0.973057 35.629 1.34161 36.9096 1.98526 38.3415C3.49263 41.6954 5.723 44.2631 8.61466 45.9737C10.8828 47.3154 13.3992 48.0192 16.0965 48.0706C13.6203 46.6037 11.5807 44.6166 10.1072 42.2122C8.65098 39.8362 7.7855 37.1141 7.54708 34.2066C6.58849 34.1277 5.60027 34.1188 4.58348 34.184Z" fill="#8D8D8D"/>
<path d="M10.8899 27.396C10.6568 28.2401 10.3669 29.5393 10.2473 31.0978C9.96732 34.7478 10.7041 38.0324 12.4375 40.8606C14.1576 43.6665 16.6828 45.7315 19.943 46.9977C20.4124 47.1799 20.8628 47.3302 21.2874 47.4568C21.0896 46.7211 20.9026 45.8495 20.7806 44.874C20.3528 41.4532 20.8956 38.1254 22.3518 35.1569C22.3444 35.1448 22.3373 35.1328 22.3299 35.1208C20.5965 32.2926 17.9768 30.1006 14.5427 28.6056C13.0766 27.9673 11.7639 27.5978 10.8899 27.396Z" fill="#8D8D8D"/>
<path d="M47.0005 34.7774C46.1315 34.5581 44.7931 34.287 43.1898 34.1838C42.173 34.1186 41.1848 34.1268 40.2262 34.2061C39.9878 37.1132 39.1226 39.836 37.666 42.2119C36.1925 44.616 34.1526 46.6035 31.6768 48.0704C34.3744 48.0189 36.8912 47.3148 39.1586 45.9735C44.6051 42.7517 46.4493 37.1266 47.0005 34.7774Z" fill="#8D8D8D"/>
</g>
<path d="M63.174 22.18C61.638 22.18 60.378 21.73 59.394 20.83C58.422 19.918 57.936 18.472 57.936 16.492V9.4H60.726V16.294C60.726 18.43 61.542 19.498 63.174 19.498C64.05 19.498 64.674 19.204 65.046 18.616C65.418 18.028 65.604 17.254 65.604 16.294V9.4H68.394V16.492C68.394 18.472 67.902 19.918 66.918 20.83C65.946 21.73 64.698 22.18 63.174 22.18ZM70.3637 9.4H75.7637C76.5317 9.4 77.1857 9.544 77.7257 9.832C78.2657 10.12 78.6677 10.51 78.9317 11.002C79.1957 11.482 79.3277 12.016 79.3277 12.604C79.3277 13.312 79.1477 13.894 78.7877 14.35C78.4277 14.794 78.0077 15.082 77.5277 15.214V15.34C77.8877 15.388 78.2597 15.526 78.6437 15.754C79.0397 15.982 79.3757 16.318 79.6517 16.762C79.9277 17.194 80.0657 17.722 80.0657 18.346C80.0657 18.946 79.9277 19.528 79.6517 20.092C79.3877 20.656 78.9617 21.118 78.3737 21.478C77.7857 21.838 77.0537 22.018 76.1777 22.018H70.3637V9.4ZM74.9177 14.53C75.4097 14.53 75.8297 14.416 76.1777 14.188C76.5257 13.96 76.6997 13.582 76.6997 13.054C76.6997 12.538 76.5197 12.172 76.1597 11.956C75.8117 11.728 75.3977 11.614 74.9177 11.614H73.1177V14.53H74.9177ZM75.5477 19.786C76.0397 19.786 76.4717 19.666 76.8437 19.426C77.2157 19.186 77.4017 18.766 77.4017 18.166C77.4017 17.578 77.2097 17.158 76.8257 16.906C76.4537 16.654 76.0277 16.528 75.5477 16.528H73.1177V19.786H75.5477ZM81.5962 9.4H84.8542L89.4622 17.698H89.5162V9.4H92.2882V22.018H88.9942L84.4222 14.026H84.3682V22.018H81.5962V9.4ZM94.3227 9.382H99.2907C100.407 9.382 101.391 9.634 102.243 10.138C103.095 10.63 103.755 11.35 104.223 12.298C104.703 13.234 104.943 14.356 104.943 15.664C104.943 16.996 104.703 18.136 104.223 19.084C103.743 20.032 103.071 20.752 102.207 21.244C101.355 21.736 100.371 21.982 99.2547 21.982H94.3227V9.382ZM98.7327 19.462C99.7167 19.462 100.497 19.18 101.073 18.616C101.649 18.052 101.937 17.068 101.937 15.664C101.937 14.26 101.649 13.276 101.073 12.712C100.509 12.148 99.7287 11.866 98.7327 11.866H97.0407V19.462H98.7327ZM69.258 36.718C69.258 37.738 69.096 38.68 68.772 39.544C68.46 40.396 67.998 41.116 67.386 41.704L68.898 43.738H66.468L65.748 42.766C65.052 43.03 64.302 43.162 63.498 43.162C62.238 43.162 61.17 42.874 60.294 42.298C59.418 41.71 58.758 40.93 58.314 39.958C57.882 38.974 57.666 37.888 57.666 36.7C57.666 35.512 57.888 34.42 58.332 33.424C58.776 32.428 59.436 31.636 60.312 31.048C61.188 30.448 62.25 30.148 63.498 30.148C64.722 30.148 65.766 30.442 66.63 31.03C67.506 31.618 68.16 32.416 68.592 33.424C69.036 34.42 69.258 35.518 69.258 36.718ZM63.48 40.66C63.696 40.66 63.912 40.63 64.128 40.57L62.22 37.996H64.65L65.658 39.346C66.066 38.65 66.27 37.762 66.27 36.682C66.27 35.554 66.03 34.6 65.55 33.82C65.07 33.04 64.38 32.65 63.48 32.65C62.868 32.65 62.346 32.836 61.914 33.208C61.494 33.58 61.176 34.072 60.96 34.684C60.756 35.296 60.654 35.962 60.654 36.682C60.654 37.798 60.894 38.74 61.374 39.508C61.866 40.276 62.568 40.66 63.48 40.66ZM79.6219 43H76.7959V41.578H76.6699C76.4659 42.022 76.1419 42.4 75.6979 42.712C75.2539 43.024 74.7139 43.18 74.0779 43.18C72.8419 43.18 71.9959 42.784 71.5399 41.992C71.0839 41.2 70.8559 40.318 70.8559 39.346V33.478H73.6459V38.878C73.6459 39.478 73.7719 39.964 74.0239 40.336C74.2759 40.696 74.6659 40.876 75.1939 40.876C75.7459 40.876 76.1479 40.69 76.3999 40.318C76.6639 39.934 76.7959 39.454 76.7959 38.878V33.478H79.6219V43ZM84.768 43.162C83.592 43.162 82.68 42.718 82.032 41.83C81.396 40.93 81.078 39.73 81.078 38.23C81.078 36.718 81.408 35.518 82.068 34.63C82.728 33.73 83.64 33.28 84.804 33.28C85.608 33.28 86.226 33.46 86.658 33.82C87.09 34.168 87.39 34.522 87.558 34.882H87.702V33.478H90.528V43H87.702V41.47H87.558C87.378 41.854 87.066 42.232 86.622 42.604C86.19 42.976 85.572 43.162 84.768 43.162ZM85.83 40.912C86.466 40.912 86.94 40.648 87.252 40.12C87.564 39.58 87.72 38.944 87.72 38.212C87.72 37.492 87.564 36.868 87.252 36.34C86.94 35.8 86.466 35.53 85.83 35.53C85.17 35.53 84.684 35.794 84.372 36.322C84.072 36.838 83.922 37.462 83.922 38.194C83.922 38.938 84.072 39.58 84.372 40.12C84.684 40.648 85.17 40.912 85.83 40.912ZM85.038 29.428H87.054L89.7 32.362H87.18L86.064 31.12H85.992L84.912 32.362H82.41L85.038 29.428ZM85.974 47.518C85.566 47.518 85.224 47.38 84.948 47.104C84.684 46.828 84.552 46.492 84.552 46.096C84.552 45.7 84.684 45.364 84.948 45.088C85.224 44.824 85.566 44.692 85.974 44.692C86.37 44.692 86.706 44.83 86.982 45.106C87.258 45.382 87.396 45.712 87.396 46.096C87.396 46.492 87.258 46.828 86.982 47.104C86.706 47.38 86.37 47.518 85.974 47.518ZM92.5298 33.478H95.3378V34.864H95.4818C95.6858 34.42 96.0158 34.048 96.4718 33.748C96.9398 33.436 97.5038 33.28 98.1638 33.28C99.4118 33.28 100.276 33.676 100.756 34.468C101.236 35.248 101.476 36.124 101.476 37.096V43H98.6678V37.582C98.6678 36.958 98.5298 36.466 98.2538 36.106C97.9778 35.746 97.5698 35.566 97.0298 35.566C96.4538 35.566 96.0278 35.758 95.7518 36.142C95.4758 36.514 95.3378 36.994 95.3378 37.582V43H92.5298V33.478Z" fill="#8D8D8D"/>
<path d="M127.032 9.4V43H117.528V16.744H111.288V9.4H127.032ZM146.485 9.4V43H136.981V16.744H130.741V9.4H146.485Z" fill="#8D8D8D"/>
<defs>
<clipPath id="clip0">
<rect width="48" height="48" fill="white"/>
</clipPath>
</defs>
</svg>
