<svg width="304" height="340" viewBox="0 0 304 340" fill="none" xmlns="http://www.w3.org/2000/svg">
<g opacity="0.05">
<g clip-path="url(#clip0)">
<path fill-rule="evenodd" clip-rule="evenodd" d="M-0.479164 46.937C-54.9443 81.3824 -91 141.363 -91 209.594C-91 251.71 -77.262 290.684 -53.9362 322.448H-27.7832C-54.3645 292.126 -70.4271 252.697 -70.4271 209.594C-70.4271 153.254 -42.9845 103.193 -0.479164 71.5372V46.937ZM213.479 71.5372C255.984 103.193 283.427 153.254 283.427 209.594C283.427 252.697 267.365 292.126 240.783 322.448H266.936C290.262 290.684 304 251.71 304 209.594C304 141.363 267.944 81.3824 213.479 46.937V71.5372Z" fill="#005593"/>
<path d="M84.6732 197.5H60.2268V119.677L36.2144 126.692V108.177L82.4311 92.1924H84.6732V197.5Z" fill="#005593"/>
<path d="M161.565 197.5H137.119V119.677L113.106 126.692V108.177L159.323 92.1924H161.565V197.5Z" fill="#005593"/>
<path d="M63.8596 32.4705C63.8596 37.3887 63.064 41.668 61.4728 45.3085C59.8816 48.9248 57.6757 51.8299 54.8549 54.0238L63.6065 60.8949L56.6993 67.0065L45.4886 58.0018C44.2109 58.2188 42.8849 58.3273 41.5107 58.3273C37.147 58.3273 33.2534 57.2785 29.8299 55.1811C26.4065 53.0836 23.7545 50.0941 21.874 46.2126C19.9935 42.3069 19.0412 37.8227 19.0171 32.7598V30.156C19.0171 24.9726 19.9453 20.416 21.8017 16.4863C23.6822 12.5324 26.3221 9.50678 29.7214 7.4093C33.1449 5.28772 37.0505 4.22693 41.4384 4.22693C45.8262 4.22693 49.7198 5.28772 53.1191 7.4093C56.5426 9.50678 59.1825 12.5324 61.0389 16.4863C62.9194 20.416 63.8596 24.9606 63.8596 30.1199V32.4705ZM52.866 30.0837C52.866 24.5628 51.8775 20.3678 49.9006 17.4989C47.9236 14.6299 45.1029 13.1954 41.4384 13.1954C37.7979 13.1954 34.9892 14.6179 33.0123 17.4627C31.0354 20.2834 30.0349 24.4302 30.0107 29.9029V32.4705C30.0107 37.8468 30.9992 42.0176 32.9761 44.983C34.9531 47.9484 37.7979 49.4311 41.5107 49.4311C45.1511 49.4311 47.9478 48.0087 49.9006 45.1638C51.8534 42.2949 52.8419 38.124 52.866 32.6513V30.0837Z" fill="#005593"/>
<path d="M94.5623 53.626C91.9826 56.7602 88.4145 58.3273 83.8579 58.3273C79.663 58.3273 76.4565 57.1218 74.2385 54.7109C72.0446 52.3001 70.9235 48.7681 70.8753 44.1151V18.4753H81.3265V43.7534C81.3265 47.8279 83.1829 49.8651 86.8957 49.8651C90.4397 49.8651 92.8747 48.6355 94.2006 46.1764V18.4753H104.688V57.604H94.8516L94.5623 53.626Z" fill="#005593"/>
<path d="M135.246 57.604C134.764 56.6638 134.414 55.4945 134.197 54.0962C131.666 56.9169 128.375 58.3273 124.325 58.3273C120.491 58.3273 117.309 57.2183 114.778 55.0002C112.27 52.7822 111.017 49.9856 111.017 46.6104C111.017 42.4636 112.548 39.2812 115.609 37.0632C118.695 34.8452 123.143 33.7242 128.954 33.7H133.763V31.4579C133.763 29.6498 133.293 28.2032 132.353 27.1183C131.437 26.0334 129.978 25.491 127.977 25.491C126.217 25.491 124.831 25.9129 123.818 26.7567C122.83 27.6005 122.336 28.7577 122.336 30.2284H111.885C111.885 27.9621 112.584 25.8647 113.982 23.9359C115.38 22.0072 117.357 20.5004 119.913 19.4155C122.468 18.3065 125.337 17.752 128.52 17.752C133.341 17.752 137.163 18.9695 139.983 21.4045C142.828 23.8154 144.251 27.2148 144.251 31.6026V48.5632C144.275 52.2759 144.793 55.0846 145.806 56.9892V57.604H135.246ZM126.603 50.3352C128.146 50.3352 129.568 49.9977 130.87 49.3226C132.172 48.6234 133.136 47.6953 133.763 46.538V39.8116H129.858C124.626 39.8116 121.841 41.6198 121.504 45.2361L121.468 45.8509C121.468 47.1528 121.926 48.2256 122.842 49.0695C123.758 49.9133 125.012 50.3352 126.603 50.3352ZM142.37 12.1829V12.6168H134.053L128.483 7.37314L122.914 12.6168H114.741V12.0382L125.446 2.05713H131.521L142.37 12.1829ZM119.913 65.4876C119.913 64.0411 120.455 62.8477 121.54 61.9074C122.625 60.9672 124.023 60.4971 125.735 60.4971C127.471 60.4971 128.881 60.9672 129.966 61.9074C131.051 62.8477 131.594 64.0411 131.594 65.4876C131.594 66.91 131.051 68.1034 129.966 69.0678C128.905 70.0321 127.495 70.5143 125.735 70.5143C123.975 70.5143 122.565 70.0321 121.504 69.0678C120.443 68.1034 119.913 66.91 119.913 65.4876Z" fill="#005593"/>
<path d="M161.898 18.4753L162.224 22.9957C165.02 19.4999 168.769 17.752 173.471 17.752C177.617 17.752 180.703 18.9695 182.728 21.4045C184.754 23.8395 185.79 27.48 185.839 32.3258V57.604H175.387V32.579C175.387 30.361 174.905 28.7577 173.941 27.7693C172.976 26.7567 171.373 26.2504 169.131 26.2504C166.19 26.2504 163.984 27.5041 162.513 30.0114V57.604H152.062V18.4753H161.898Z" fill="#005593"/>
<path d="M66.0854 305.966C66.0854 325.044 89.7933 348.892 101.647 358.431L104.88 277.349L111.346 358.431C122.661 349.422 145.615 326.316 146.908 305.966C148.726 277.349 119.428 240.252 104.88 220.114C91.9486 240.782 66.0854 277.349 66.0854 305.966Z" fill="#005593"/>
<path d="M33.7715 251.91C37.651 250.638 53.7076 263.039 61.251 269.398L54.7853 234.423C58.6647 236.966 62.8675 257.74 64.4839 267.809C68.7944 260.92 77.4155 245.233 77.4155 237.602C77.4155 228.063 46.703 204.215 40.2373 205.805C35.0646 207.077 33.7715 237.071 33.7715 251.91Z" fill="#005593"/>
<path d="M179.237 251.91C175.358 250.638 159.301 263.039 151.758 269.398L158.224 234.423C154.344 236.966 150.141 257.74 148.525 267.809C144.214 260.92 135.593 245.233 135.593 237.602C135.593 228.063 166.306 204.215 172.772 205.805C177.944 207.077 179.237 237.071 179.237 251.91Z" fill="#005593"/>
<path d="M72.5578 350.483C49.9276 344.124 2.08083 325.364 -8.26441 301.198C-21.196 270.99 -11.4973 240.783 -8.26441 240.783C-5.03152 240.783 11.1328 255.622 27.2972 258.272C38.6123 260.126 54.7767 272.898 54.7767 286.889C54.7767 300.88 56.932 319.216 58.0096 326.635C45.9619 316.682 22.6216 296.808 15.9756 289.082C22.6724 299.266 46.5708 335.148 72.5578 350.483Z" fill="#005593"/>
<path d="M140.442 350.483C163.072 344.124 210.919 325.364 221.264 301.198C234.196 270.99 224.497 240.783 221.264 240.783C218.032 240.783 201.867 255.622 185.703 258.272C174.388 260.126 158.223 272.898 158.223 286.889C158.223 300.88 156.068 319.216 154.99 326.635C167.038 316.682 190.378 296.808 197.024 289.082C190.328 299.266 166.429 335.148 140.442 350.483Z" fill="#005593"/>
<path d="M15.9794 395.002C30.2041 395.002 66.0891 375.923 82.2536 366.384C62.8563 361.615 48.3083 364.113 28.9109 366.384C9.5136 368.655 4.66426 361.615 -22.8153 361.615C-3.41796 347.23 27.2945 363.128 45.0754 358.435C38.6096 358.435 11.13 329.817 -11.5002 329.817C-29.6044 329.817 -56.7606 345.716 -74.5415 366.384C-48.6784 366.384 -17.966 395.002 15.9794 395.002Z" fill="#005593"/>
<path d="M197.021 395.002C182.796 395.002 146.911 375.923 130.747 366.384C150.144 361.615 164.692 364.113 184.09 366.384C203.487 368.655 208.336 361.615 235.816 361.615C216.418 347.23 185.706 363.128 167.925 358.435C174.391 358.435 201.87 329.817 224.501 329.817C242.605 329.817 269.761 345.716 287.542 366.384C261.679 366.384 230.966 395.002 197.021 395.002Z" fill="#005593"/>
</g>
</g>
<defs>
<clipPath id="clip0">
<rect width="395" height="395" fill="white" transform="translate(-91)"/>
</clipPath>
</defs>
</svg>
