<svg width="128" height="128" viewBox="0 0 128 128" fill="none" xmlns="http://www.w3.org/2000/svg">
<g clip-path="url(#clip0)">
<path fill-rule="evenodd" clip-rule="evenodd" d="M29.3333 15.21C11.6839 26.372 0 45.8089 0 67.919C0 81.567 4.45189 94.1964 12.0107 104.49H20.4857C11.8718 94.6637 6.66667 81.8868 6.66667 67.919C6.66667 49.662 15.5595 33.4396 29.3333 23.1817V15.21ZM98.6667 23.1817C112.441 33.4396 121.333 49.662 121.333 67.919C121.333 81.8868 116.128 94.6637 107.514 104.49H115.989C123.548 94.1964 128 81.567 128 67.919C128 45.8089 116.316 26.372 98.6667 15.21V23.1817Z" fill="#0094FF"/>
<path d="M56.9272 64H49.0054V38.7812L41.2241 41.0547V35.0547L56.2007 29.875H56.9272V64Z" fill="#0094FF"/>
<path d="M81.8441 64H73.9222V38.7812L66.141 41.0547V35.0547L81.1176 29.875H81.8441V64Z" fill="#0094FF"/>
<path d="M50.1821 10.522C50.1821 12.1157 49.9243 13.5024 49.4087 14.6821C48.8931 15.854 48.1782 16.7954 47.2642 17.5063L50.1001 19.7329L47.8618 21.7134L44.229 18.7954C43.8149 18.8657 43.3853 18.9009 42.9399 18.9009C41.5259 18.9009 40.2642 18.561 39.1548 17.8813C38.0454 17.2017 37.186 16.2329 36.5767 14.9751C35.9673 13.7095 35.6587 12.2563 35.6509 10.6157V9.77197C35.6509 8.09229 35.9517 6.61572 36.5532 5.34229C37.1626 4.06104 38.0181 3.08057 39.1196 2.40088C40.229 1.71338 41.4946 1.36963 42.9165 1.36963C44.3384 1.36963 45.6001 1.71338 46.7017 2.40088C47.811 3.08057 48.6665 4.06104 49.2681 5.34229C49.8774 6.61572 50.1821 8.08838 50.1821 9.76025V10.522ZM46.6196 9.74854C46.6196 7.95947 46.2993 6.6001 45.6587 5.67041C45.0181 4.74072 44.104 4.27588 42.9165 4.27588C41.7368 4.27588 40.8267 4.73682 40.186 5.65869C39.5454 6.57275 39.2212 7.9165 39.2134 9.68994V10.522C39.2134 12.2642 39.5337 13.6157 40.1743 14.5767C40.8149 15.5376 41.7368 16.0181 42.9399 16.0181C44.1196 16.0181 45.0259 15.5571 45.6587 14.6353C46.2915 13.7056 46.6118 12.354 46.6196 10.5806V9.74854Z" fill="#0094FF"/>
<path d="M60.1313 17.3774C59.2954 18.3931 58.1392 18.9009 56.6626 18.9009C55.3032 18.9009 54.2642 18.5103 53.5454 17.729C52.8345 16.9478 52.4712 15.8032 52.4556 14.2954V5.98682H55.8423V14.1782C55.8423 15.4985 56.4438 16.1587 57.647 16.1587C58.7954 16.1587 59.5845 15.7603 60.0142 14.9634V5.98682H63.4126V18.6665H60.2251L60.1313 17.3774Z" fill="#0094FF"/>
<path d="M73.3149 18.6665C73.1587 18.3618 73.0454 17.9829 72.9751 17.5298C72.1548 18.4438 71.0884 18.9009 69.7759 18.9009C68.5337 18.9009 67.5024 18.5415 66.6821 17.8228C65.8696 17.104 65.4634 16.1978 65.4634 15.104C65.4634 13.7603 65.9595 12.729 66.9517 12.0103C67.9517 11.2915 69.3931 10.9282 71.2759 10.9204H72.8345V10.1938C72.8345 9.60791 72.6821 9.13916 72.3774 8.7876C72.0806 8.43604 71.6079 8.26025 70.9595 8.26025C70.3892 8.26025 69.9399 8.39697 69.6118 8.67041C69.2915 8.94385 69.1313 9.31885 69.1313 9.79541H65.7446C65.7446 9.06104 65.9712 8.38135 66.4243 7.75635C66.8774 7.13135 67.5181 6.64307 68.3462 6.2915C69.1743 5.93213 70.104 5.75244 71.1353 5.75244C72.6978 5.75244 73.936 6.14697 74.8501 6.93604C75.772 7.71729 76.2329 8.81885 76.2329 10.2407V15.7368C76.2407 16.9399 76.4087 17.8501 76.7368 18.4673V18.6665H73.3149ZM70.5142 16.311C71.0142 16.311 71.4751 16.2017 71.897 15.9829C72.3188 15.7563 72.6313 15.4556 72.8345 15.0806V12.9009H71.5688C69.8735 12.9009 68.9712 13.4868 68.8618 14.6587L68.8501 14.8579C68.8501 15.2798 68.9985 15.6274 69.2954 15.9009C69.5923 16.1743 69.9985 16.311 70.5142 16.311ZM75.6235 3.94775V4.08838H72.9282L71.1235 2.38916L69.3188 4.08838H66.6704V3.90088L70.1392 0.666504H72.1079L75.6235 3.94775ZM68.3462 21.2212C68.3462 20.7524 68.522 20.3657 68.8735 20.061C69.2251 19.7563 69.6782 19.604 70.2329 19.604C70.7954 19.604 71.2524 19.7563 71.604 20.061C71.9556 20.3657 72.1313 20.7524 72.1313 21.2212C72.1313 21.6821 71.9556 22.0688 71.604 22.3813C71.2603 22.6938 70.8032 22.8501 70.2329 22.8501C69.6626 22.8501 69.2056 22.6938 68.8618 22.3813C68.5181 22.0688 68.3462 21.6821 68.3462 21.2212Z" fill="#0094FF"/>
<path d="M81.9517 5.98682L82.0571 7.45166C82.9634 6.31885 84.1782 5.75244 85.7017 5.75244C87.0454 5.75244 88.0454 6.14697 88.7017 6.93604C89.3579 7.7251 89.6938 8.90479 89.7095 10.4751V18.6665H86.3228V10.5571C86.3228 9.83838 86.1665 9.31885 85.854 8.99854C85.5415 8.67041 85.022 8.50635 84.2954 8.50635C83.3423 8.50635 82.6274 8.9126 82.1509 9.7251V18.6665H78.7642V5.98682H81.9517Z" fill="#0094FF"/>
<path d="M50.9038 99.1481C50.9038 105.33 58.5864 113.058 62.4276 116.15L63.4752 89.8746L65.5705 116.15C69.2372 113.23 76.6753 105.743 77.0943 99.1481C77.6836 89.8746 68.1895 77.8534 63.4752 71.3276C59.2848 78.0252 50.9038 89.8746 50.9038 99.1481Z" fill="#F0899C"/>
<path d="M40.4321 81.6314C41.6893 81.2193 46.8924 85.2378 49.3369 87.2986L47.2417 75.9647C48.4988 76.789 49.8607 83.5208 50.3845 86.7837C51.7813 84.5512 54.575 79.4679 54.575 76.9949C54.575 73.9038 44.6226 66.1759 42.5274 66.6911C40.8512 67.1032 40.4321 76.823 40.4321 81.6314Z" fill="#F0899C"/>
<path d="M87.5708 81.6314C86.3137 81.2193 81.1105 85.2378 78.666 87.2986L80.7613 75.9647C79.5041 76.789 78.1422 83.5208 77.6184 86.7837C76.2216 84.5512 73.4279 79.4679 73.4279 76.9949C73.4279 73.9038 83.3803 66.1759 85.4756 66.6911C87.1518 67.1032 87.5708 76.823 87.5708 81.6314Z" fill="#F0899C"/>
<path d="M53.0012 113.574C45.6678 111.513 30.1631 105.434 26.8107 97.6033C22.6202 87.8146 25.7631 78.0259 26.8107 78.0259C27.8583 78.0259 33.0963 82.8344 38.3344 83.693C42.0011 84.2941 47.2392 88.4328 47.2392 92.9665C47.2392 97.5002 47.9376 103.442 48.2868 105.846C44.3827 102.621 36.8193 96.1809 34.6657 93.6771C36.8358 96.9772 44.5801 108.605 53.0012 113.574Z" fill="#F0899C"/>
<path d="M74.9993 113.574C82.3327 111.513 97.8374 105.434 101.19 97.6033C105.38 87.8146 102.237 78.0259 101.19 78.0259C100.142 78.0259 94.9042 82.8344 89.6661 83.693C85.9994 84.2941 80.7613 88.4328 80.7613 92.9665C80.7613 97.5002 80.0629 103.442 79.7137 105.846C83.6177 102.621 91.1812 96.1809 93.3348 93.6771C91.1647 96.9772 83.4204 108.605 74.9993 113.574Z" fill="#F0899C"/>
<path d="M34.6668 128C39.2764 128 50.9049 121.818 56.143 118.727C49.8573 117.181 45.143 117.991 38.8573 118.727C32.5716 119.463 31.0002 117.181 22.0954 117.181C28.3811 112.52 38.3335 117.672 44.0954 116.151C42.0002 116.151 33.0954 106.877 25.7621 106.877C19.8954 106.877 11.0954 112.029 5.3335 118.727C13.7145 118.727 23.6668 128 34.6668 128Z" fill="#F0899C"/>
<path d="M93.3337 128C88.7241 128 77.0956 121.818 71.8575 118.727C78.1432 117.181 82.8575 117.991 89.1432 118.727C95.4289 119.463 97.0003 117.181 105.905 117.181C99.6194 112.52 89.667 117.672 83.9051 116.151C86.0003 116.151 94.9051 106.877 102.238 106.877C108.105 106.877 116.905 112.029 122.667 118.727C114.286 118.727 104.334 128 93.3337 128Z" fill="#F0899C"/>
</g>
<defs>
<clipPath id="clip0">
<rect width="128" height="128" fill="white"/>
</clipPath>
</defs>
</svg>
