<svg width="362" height="170" viewBox="0 0 362 170" fill="none" xmlns="http://www.w3.org/2000/svg">
<rect width="362" height="170" fill="#FFE197"/>
<g clip-path="url(#clip0)">
<path d="M135.722 67.7382L115.852 74.2053C114.977 74.4865 114.04 74.0179 113.758 73.1431L110.009 61.6459C109.728 60.7711 110.197 59.8339 111.071 59.5527L130.942 53.0855C131.816 52.8044 132.754 53.273 133.035 54.1478L136.784 65.645C137.096 66.5197 136.597 67.457 135.722 67.7382Z" fill="#FFCE55"/>
<path d="M133.452 55.3626L110.426 62.8468L111.401 65.8477L134.428 58.3635L133.452 55.3626Z" fill="#404041"/>
<path d="M134.222 65.0512C134.441 65.7386 134.066 66.4884 133.378 66.7071C132.691 66.9258 131.941 66.5509 131.722 65.8636C131.504 65.1762 131.879 64.4264 132.566 64.2077C133.253 63.989 134.003 64.3639 134.222 65.0512Z" fill="#404041"/>
<path d="M59.8972 71.1125L44.3385 86.8899L23 65.8638L36.4655 52.2109L38.3088 52.0546L40.4332 51.8984L59.8972 71.1125Z" fill="#E6E7E8"/>
<path d="M36.4668 52.2109L38.3101 54.0229L40.4346 51.8984L36.4668 52.2109Z" fill="#A6A8AB"/>
<path d="M31.1027 62.3855L26.7363 66.8115L31.1624 71.1779L35.5287 66.7518L31.1027 62.3855Z" fill="#D0D2D3"/>
<path d="M38.6932 55.1351L32.7031 61.207L33.2592 61.7556L39.2492 55.6837L38.6932 55.1351Z" fill="#D0D2D3"/>
<path d="M39.8435 56.2937L33.8535 62.3656L34.4096 62.9141L40.3996 56.8422L39.8435 56.2937Z" fill="#D0D2D3"/>
<path d="M40.9959 57.4079L35.0059 63.4799L35.5619 64.0284L41.5519 57.9565L40.9959 57.4079Z" fill="#D0D2D3"/>
<path d="M42.1248 58.5454L36.1348 64.6173L36.6908 65.1658L42.6808 59.0939L42.1248 58.5454Z" fill="#D0D2D3"/>
<path d="M37.173 68.3923L32.8066 72.8184L37.2327 77.1847L41.5991 72.7587L37.173 68.3923Z" fill="#D0D2D3"/>
<path d="M44.7635 61.142L38.7734 67.2139L39.3295 67.7624L45.3195 61.6905L44.7635 61.142Z" fill="#D0D2D3"/>
<path d="M45.9139 62.2566L39.9238 68.3285L40.4799 68.877L46.4699 62.8051L45.9139 62.2566Z" fill="#D0D2D3"/>
<path d="M47.0428 63.3939L41.0527 69.4658L41.6088 70.0144L47.5988 63.9425L47.0428 63.3939Z" fill="#D0D2D3"/>
<path d="M48.1932 64.5082L42.2031 70.5801L42.7592 71.1286L48.7492 65.0567L48.1932 64.5082Z" fill="#D0D2D3"/>
<path d="M43.2609 74.377L38.8945 78.8031L43.3206 83.1695L47.6869 78.7434L43.2609 74.377Z" fill="#D0D2D3"/>
<path d="M50.8514 67.1273L44.8613 73.1992L45.4174 73.7478L51.4074 67.6759L50.8514 67.1273Z" fill="#D0D2D3"/>
<path d="M51.9803 68.2642L45.9902 74.3361L46.5463 74.8846L52.5363 68.8127L51.9803 68.2642Z" fill="#D0D2D3"/>
<path d="M53.1326 69.3792L47.1426 75.4512L47.6986 75.9997L53.6887 69.9278L53.1326 69.3792Z" fill="#D0D2D3"/>
<path d="M54.2596 70.5154L48.2695 76.5873L48.8256 77.1358L54.8156 71.0639L54.2596 70.5154Z" fill="#D0D2D3"/>
<path d="M60.1474 69.4567L43.214 83.7657L23.875 60.865L38.5277 48.493L40.371 48.5243L42.4955 48.5555L60.1474 69.4567Z" fill="#F9FAFE"/>
<path d="M38.5273 48.493L40.2144 50.4926L42.4951 48.5555L38.5273 48.493Z" fill="#A6A8AB"/>
<path d="M32.2487 58.1544L27.5 62.167L31.5126 66.9157L36.2613 62.9031L32.2487 58.1544Z" fill="#D0D2D3"/>
<path d="M40.4931 51.632L33.9785 57.1367L34.4826 57.7333L40.9972 52.2286L40.4931 51.632Z" fill="#D0D2D3"/>
<path d="M41.5204 52.8547L35.0059 58.3594L35.51 58.9559L42.0245 53.4512L41.5204 52.8547Z" fill="#D0D2D3"/>
<path d="M42.5497 54.0767L36.0352 59.5814L36.5393 60.178L43.0538 54.6733L42.5497 54.0767Z" fill="#D0D2D3"/>
<path d="M43.5771 55.2992L37.0625 60.804L37.5666 61.4005L44.0812 55.8958L43.5771 55.2992Z" fill="#D0D2D3"/>
<path d="M37.7546 64.6876L33.0059 68.7002L37.0185 73.4489L41.7672 69.4363L37.7546 64.6876Z" fill="#D0D2D3"/>
<path d="M45.999 58.1652L39.4844 63.6699L39.9885 64.2665L46.5031 58.7618L45.999 58.1652Z" fill="#D0D2D3"/>
<path d="M47.0283 59.3871L40.5137 64.8918L41.0178 65.4884L47.5324 59.9837L47.0283 59.3871Z" fill="#D0D2D3"/>
<path d="M48.0556 60.6098L41.541 66.1145L42.0451 66.7111L48.5597 61.2063L48.0556 60.6098Z" fill="#D0D2D3"/>
<path d="M49.0829 61.8324L42.5684 67.3372L43.0725 67.9337L49.587 62.429L49.0829 61.8324Z" fill="#D0D2D3"/>
<path d="M43.2624 71.2223L38.5137 75.2349L42.5263 79.9836L47.275 75.971L43.2624 71.2223Z" fill="#D0D2D3"/>
<path d="M51.4853 64.6754L44.9707 70.1802L45.4748 70.7767L51.9894 65.272L51.4853 64.6754Z" fill="#D0D2D3"/>
<path d="M52.5126 65.8974L45.998 71.4021L46.5021 71.9987L53.0167 66.494L52.5126 65.8974Z" fill="#D0D2D3"/>
<path d="M53.5614 67.1443L47.0469 72.649L47.551 73.2456L54.0655 67.7409L53.5614 67.1443Z" fill="#D0D2D3"/>
<path d="M54.6142 68.3456L48.0996 73.8503L48.6037 74.4469L55.1183 68.9422L54.6142 68.3456Z" fill="#D0D2D3"/>
<path d="M36.8094 66.895L34.7474 63.3021C34.1851 62.3336 34.5287 61.0839 35.4972 60.4903L48.8377 52.7734C49.8063 52.2111 51.056 52.5547 51.6496 53.5232L66.3647 78.9233C66.9271 79.8918 66.5834 81.1415 65.6149 81.7351L54.8363 87.9836L50.4936 90.483L48.7128 91.514C47.7443 92.0764 46.4946 91.7327 45.901 90.7642L35.341 72.4874C34.7787 71.5189 35.1223 70.2692 36.0909 69.6756C37.0594 69.1132 37.403 67.8635 36.8094 66.895Z" fill="#FFCE55"/>
<path opacity="0.3" d="M65.5513 79.9861L47.4932 90.421L36.5271 71.4881L37.4644 70.9258C38.8703 70.1135 39.3389 68.3327 38.5266 66.9268L35.5898 61.8655L50.1488 53.4301L65.5513 79.9861Z" stroke="white" stroke-width="0.35" stroke-miterlimit="10"/>
<path opacity="0.2" d="M61.0215 78.9546C61.6151 78.6109 61.8338 77.8298 61.4901 77.2362L50.3054 57.9285C49.9617 57.3349 49.1806 57.1162 48.587 57.4598C47.9934 57.8035 47.7747 58.5846 48.1184 59.1782L59.3032 78.4859C59.6468 79.1108 60.3966 79.2982 61.0215 78.9546Z" fill="white"/>
<path d="M84.6409 30.6845C84.7034 30.4658 84.7346 30.2158 84.7346 29.9971C84.7346 28.31 83.36 26.9354 81.6729 26.9354C81.2042 26.9354 80.7981 27.0291 80.3919 27.2166C80.267 26.0918 79.2985 25.217 78.1425 25.217C77.174 25.217 76.3617 25.8106 76.0493 26.6542C75.8618 26.5917 75.6431 26.5605 75.4244 26.5605C74.4247 26.5605 73.5499 27.1541 73.1125 27.9976C73.0187 27.9976 72.925 27.9976 72.8313 27.9976C71.2692 27.9976 69.957 29.1848 69.8008 30.7157H84.6409V30.6845Z" fill="#CAEAFF"/>
<path d="M78.1424 25.217C77.8925 25.217 77.6113 25.2795 77.3926 25.342C78.2049 25.6232 78.7985 26.3418 78.8922 27.2166C79.2671 27.0291 79.7045 26.9354 80.1731 26.9354C80.2356 26.9354 80.2981 26.9354 80.3606 26.9354C80.1107 25.9356 79.2046 25.217 78.1424 25.217Z" fill="#81D4FA"/>
<path d="M81.6404 26.9355C81.3905 26.9355 81.1406 26.9668 80.8906 27.0293C82.2028 27.3729 83.2026 28.5602 83.2026 29.9973C83.2026 30.2472 83.1713 30.4659 83.1088 30.6846H84.6085C84.6709 30.4659 84.7022 30.216 84.7022 29.9973C84.7334 28.3102 83.3588 26.9355 81.6404 26.9355Z" fill="#81D4FA"/>
<path d="M80.3926 27.2167C80.5488 27.1542 80.7362 27.0918 80.9237 27.0293C80.7362 26.998 80.5488 26.9668 80.3613 26.9355C80.3613 27.0293 80.3613 27.123 80.3926 27.2167Z" fill="#CAEAFF"/>
<path d="M69.1761 30.6846C69.1761 30.5597 69.2073 30.4347 69.2073 30.3097C69.2073 28.3414 67.614 26.7168 65.6457 26.6856C65.1146 25.9045 64.3023 25.3422 63.365 25.1547C63.1775 23.3427 61.6467 21.9055 59.7721 21.9055C58.1475 21.9055 56.7728 22.9678 56.3042 24.4674C55.9918 24.3737 55.6794 24.3424 55.3357 24.3424C53.6799 24.3424 52.3052 25.4359 51.8678 26.9668C51.3054 26.6231 50.6806 26.4357 49.9933 26.4357C47.9937 26.4357 46.3691 28.0603 46.3691 30.0598C46.3691 30.2785 46.4004 30.4972 46.4316 30.7159H69.1761V30.6846Z" fill="#CAEAFF"/>
<path d="M54.5234 24.4983V24.467C54.4922 24.467 54.4609 24.467 54.4297 24.4983C54.4609 24.467 54.4922 24.467 54.5234 24.4983Z" fill="#CAEAFF"/>
<path d="M65.6136 26.7167C65.0825 25.9357 64.2702 25.3733 63.3329 25.1859C63.1454 23.3738 61.6146 21.9366 59.74 21.9366C59.4276 21.9366 59.1152 21.9679 58.834 22.0616C60.2711 22.4365 61.3959 23.6862 61.5208 25.1859C62.4581 25.3733 63.2704 25.9357 63.8015 26.7167C65.7698 26.748 67.3632 28.3413 67.3632 30.3408C67.3632 30.4658 67.3631 30.5908 67.3319 30.7158H69.144C69.144 30.5908 69.1752 30.4658 69.1752 30.3408C69.1752 28.3413 67.6131 26.748 65.6136 26.7167Z" fill="#81D4FA"/>
<path d="M49.0859 26.5606C49.4296 26.6544 49.7733 26.7793 50.0544 26.9668C50.1169 26.7793 50.1794 26.6231 50.2419 26.4357C50.1482 26.4357 50.0545 26.4357 49.9607 26.4357C49.6795 26.4357 49.3671 26.4669 49.0859 26.5606Z" fill="#CAEAFF"/>
<path d="M79.0177 33.2773C79.049 33.1523 79.049 33.0273 79.049 32.9024C79.049 31.7152 78.0805 30.7154 76.862 30.7154H75.4249C75.4561 30.5592 75.4561 30.403 75.4561 30.2155C75.4561 28.5597 74.2064 27.185 72.613 26.9976C72.0507 24.9981 70.2386 23.5297 68.0517 23.5297C65.8022 23.5297 63.9277 25.0918 63.459 27.185C63.1154 27.0601 62.7405 26.9976 62.3656 26.9976C60.5847 26.9976 59.1163 28.466 59.1163 30.2468C59.1163 30.403 59.1476 30.5592 59.1476 30.7467H57.8667C56.6794 30.7467 55.6797 31.7152 55.6797 32.9336C55.6797 33.0586 55.6797 33.1836 55.7109 33.3085H79.0177V33.2773Z" fill="white"/>
<path d="M72.612 27.0287C72.0497 25.0292 70.2376 23.5608 68.0506 23.5608C67.8632 23.5608 67.6757 23.592 67.457 23.592C69.3628 23.842 70.9562 25.2166 71.4248 27.0287C73.0182 27.2161 74.2679 28.5908 74.2679 30.2467C74.2679 30.4029 74.2366 30.5591 74.2366 30.7465H75.3926C75.4238 30.5903 75.4238 30.4341 75.4238 30.2467C75.4551 28.5908 74.2054 27.2474 72.612 27.0287Z" fill="#81D4FA"/>
<path d="M77.892 32.9334C77.892 33.0584 77.892 33.1834 77.8608 33.3083H79.0168C79.048 33.1834 79.048 33.0584 79.048 32.9334C79.048 31.7462 78.0795 30.7465 76.861 30.7465H75.7051C76.8923 30.7465 77.892 31.715 77.892 32.9334Z" fill="#81D4FA"/>
<path d="M124.787 116.727H53.1478C51.7107 116.727 50.5547 115.571 50.5547 114.134V68.9261C50.5547 67.489 51.7107 66.333 53.1478 66.333H124.787C126.224 66.333 127.38 67.489 127.38 68.9261V114.134C127.38 115.54 126.224 116.727 124.787 116.727Z" fill="#303637"/>
<path d="M122.85 114.227H55.0541C53.7107 114.227 52.5859 113.196 52.5859 111.884V71.1437C52.5859 69.8628 53.6794 68.8005 55.0541 68.8005H122.85C124.193 68.8005 125.318 69.8315 125.318 71.1437V111.915C125.318 113.196 124.225 114.227 122.85 114.227Z" fill="#55B6FA"/>
<path d="M83.9551 116.726V132.066H93.9527V116.726H83.9551ZM88.9539 128.192C87.1418 128.192 85.7047 126.724 85.7047 124.943C85.7047 123.131 87.1731 121.694 88.9539 121.694C90.7659 121.694 92.2031 123.162 92.2031 124.943C92.2343 126.755 90.7659 128.192 88.9539 128.192Z" fill="#303637"/>
<path d="M104.325 132.066H73.6445V135.097H104.325V132.066Z" fill="#303637"/>
<path d="M132.756 91.5139H133.381" stroke="white" stroke-miterlimit="10"/>
<path d="M134.879 91.5139H140.096" stroke="white" stroke-miterlimit="10" stroke-dasharray="4.77 4.77"/>
<path d="M140.846 91.5144H141.502V90.8583" stroke="white" stroke-miterlimit="10"/>
<path d="M141.502 89.5451V37.714" stroke="white" stroke-miterlimit="10" stroke-dasharray="4.2 4.2"/>
<path d="M141.502 37.0584V36.4023H140.846" stroke="white" stroke-miterlimit="10"/>
<path d="M139.566 36.4023H90.7969" stroke="white" stroke-miterlimit="10" stroke-dasharray="4.16 4.16"/>
<path d="M90.1405 36.4023H89.4844" stroke="white" stroke-miterlimit="10"/>
<path d="M132.505 93.1382C133.368 93.1382 134.068 92.4388 134.068 91.576C134.068 90.7133 133.368 90.0139 132.505 90.0139C131.643 90.0139 130.943 90.7133 130.943 91.576C130.943 92.4388 131.643 93.1382 132.505 93.1382Z" fill="white"/>
<path d="M87.9215 37.9643C88.7843 37.9643 89.4836 37.2649 89.4836 36.4022C89.4836 35.5395 88.7843 34.8401 87.9215 34.8401C87.0588 34.8401 86.3594 35.5395 86.3594 36.4022C86.3594 37.2649 87.0588 37.9643 87.9215 37.9643Z" fill="white"/>
<path d="M74.4873 82.1095C75.737 81.6096 77.3304 81.266 78.3301 82.172C78.8612 82.6406 79.0799 83.3592 79.2674 84.0465C79.611 85.4212 79.7673 86.8271 79.9235 88.2018C80.1734 90.2638 80.3609 92.3258 80.1109 94.3878C79.8297 96.4498 79.0487 98.4805 77.5491 99.9177C77.2054 100.261 76.768 100.574 76.2994 100.668C75.9557 100.73 75.5808 100.699 75.2371 100.636C74.0187 100.48 72.8315 100.293 71.613 100.136C71.2068 100.074 70.8007 100.011 70.3945 99.8552C69.8322 99.6365 69.3948 99.1991 68.9886 98.7305C66.4892 95.8562 65.7707 91.7009 66.8954 88.1081C67.9264 84.9526 71.5818 83.2967 74.4873 82.1095Z" fill="#FFA97C"/>
<path opacity="0.3" d="M72.1129 86.8271L70.6133 87.4832L72.1129 87.2645V86.6084" fill="#D66634"/>
<path d="M108.136 55.4912H72.1133V102.448H108.136V55.4912Z" fill="#F9FAFE"/>
<path d="M108.136 55.4912H72.1133V58.4905H108.136V55.4912Z" fill="#303637"/>
<path d="M105.699 57.3348C106.01 57.3348 106.261 57.083 106.261 56.7724C106.261 56.4619 106.01 56.2101 105.699 56.2101C105.389 56.2101 105.137 56.4619 105.137 56.7724C105.137 57.083 105.389 57.3348 105.699 57.3348Z" fill="#F06359"/>
<path d="M103.605 57.3348C103.916 57.3348 104.168 57.083 104.168 56.7724C104.168 56.4619 103.916 56.2101 103.605 56.2101C103.295 56.2101 103.043 56.4619 103.043 56.7724C103.043 57.083 103.295 57.3348 103.605 57.3348Z" fill="#E6E7E8"/>
<path d="M101.48 57.3348C101.791 57.3348 102.043 57.083 102.043 56.7724C102.043 56.4619 101.791 56.2101 101.48 56.2101C101.17 56.2101 100.918 56.4619 100.918 56.7724C100.918 57.083 101.17 57.3348 101.48 57.3348Z" fill="#E6E7E8"/>
<path d="M82.3924 141.033H41.6836" stroke="#F1F1F2" stroke-width="5" stroke-miterlimit="10" stroke-linecap="round" stroke-linejoin="round"/>
<path d="M107.699 48.493H82.6113" stroke="#F1F1F2" stroke-width="5" stroke-miterlimit="10" stroke-linecap="round" stroke-linejoin="round"/>
<path d="M142.22 147.219H117.133" stroke="#F1F1F2" stroke-width="5" stroke-miterlimit="10" stroke-linecap="round" stroke-linejoin="round"/>
<path d="M50.5561 130.848C50.5561 131.504 50.0249 132.035 49.3689 132.035C48.7128 132.035 48.1816 131.504 48.1816 130.848C48.1816 130.192 48.7128 129.661 49.3689 129.661C49.9937 129.661 50.5561 130.192 50.5561 130.848Z" stroke="#F1F1F2" stroke-width="2.5" stroke-miterlimit="10" stroke-linecap="round" stroke-linejoin="round"/>
<path d="M108.978 44.3692C109.789 44.3692 110.447 43.7117 110.447 42.9008C110.447 42.0898 109.789 41.4324 108.978 41.4324C108.167 41.4324 107.51 42.0898 107.51 42.9008C107.51 43.7117 108.167 44.3692 108.978 44.3692Z" stroke="#F1F1F2" stroke-width="3" stroke-miterlimit="10" stroke-linecap="round" stroke-linejoin="round"/>
<path d="M142.22 138.94C142.22 139.752 141.564 140.408 140.752 140.408C139.939 140.408 139.283 139.752 139.283 138.94C139.283 138.128 139.939 137.472 140.752 137.472C141.564 137.472 142.22 138.128 142.22 138.94Z" stroke="#F1F1F2" stroke-width="3" stroke-miterlimit="10" stroke-linecap="round" stroke-linejoin="round"/>
<path d="M122.445 23.4055C123.256 23.4055 123.913 22.7481 123.913 21.9371C123.913 21.1262 123.256 20.4688 122.445 20.4688C121.634 20.4688 120.977 21.1262 120.977 21.9371C120.977 22.7481 121.634 23.4055 122.445 23.4055Z" stroke="#F1F1F2" stroke-width="3" stroke-miterlimit="10" stroke-linecap="round" stroke-linejoin="round"/>
<path d="M80.7368 73.8622C84.0497 73.8622 86.7353 71.1765 86.7353 67.8636C86.7353 64.5507 84.0497 61.8651 80.7368 61.8651C77.4239 61.8651 74.7383 64.5507 74.7383 67.8636C74.7383 71.1765 77.4239 73.8622 80.7368 73.8622Z" fill="#929497"/>
<path d="M81.5498 70.8312L82.081 70.9561C83.0807 71.1748 83.768 72.0496 83.768 73.0806V73.8617C83.768 73.9866 83.6743 74.1116 83.5181 74.1116H80.7063H77.8945C77.7695 74.1116 77.6445 74.0179 77.6445 73.8617V73.0806C77.6445 72.0496 78.3631 71.1748 79.3316 70.9561L79.8003 70.8624C79.8003 70.8624 79.8003 70.8624 79.8315 70.8624L80.3626 70.7999H80.3939H81.0812H81.1124L81.5498 70.8312Z" fill="#F7D9BC"/>
<path d="M82.4873 71.0187L81.55 70.8L81.3001 70.7688V71.3624V71.3312V71.3624C81.2688 71.6436 81.0501 71.8623 80.769 71.8623C80.4565 71.8623 80.2066 71.6123 80.2066 71.2999V70.7688L79.8942 70.8L79.0506 70.9875C78.8319 71.05 78.6445 71.1125 78.457 71.2374V74.018H80.769H83.1121V71.2374C82.9247 71.1749 82.706 71.0812 82.4873 71.0187Z" fill="#00ADEE"/>
<path d="M78.4553 72.9869H77.7368C77.7368 72.9869 77.5493 71.9247 78.4553 71.2998V72.9869Z" fill="#00ADEE"/>
<path d="M83.1113 72.9869H83.8299C83.8299 72.9869 84.0174 71.9247 83.1113 71.2998V72.9869Z" fill="#00ADEE"/>
<path d="M81.3318 70.7685V71.3621V71.3309C81.3318 71.6433 81.0818 71.8933 80.7694 71.8933C80.457 71.8933 80.207 71.6433 80.207 71.3309V70.4561L80.332 70.3311H80.4257L80.9568 70.2062L81.1131 70.2374L81.3005 70.2999" fill="#F7D9BC"/>
<path d="M80.9881 70.2062L80.457 70.3311H80.3633L80.2383 70.4561V70.8623C80.3945 70.956 80.5819 71.0185 80.8006 71.0185C80.9881 71.0185 81.1756 70.956 81.3318 70.8623V70.7373V70.2999L81.1443 70.2374L80.9881 70.2062Z" fill="#F6A49B"/>
<path d="M80.769 70.6447C79.5505 70.6447 78.582 69.6762 78.582 68.4577V66.0208C78.582 64.8024 79.5505 63.8339 80.769 63.8339C81.9874 63.8339 82.956 64.8024 82.956 66.0208V68.4577C82.956 69.6762 81.9874 70.6447 80.769 70.6447Z" fill="#F7D9BC"/>
<path d="M81.9882 67.0827C81.9882 67.2077 81.8944 67.3014 81.7695 67.3014C81.6445 67.3014 81.5508 67.2077 81.5508 67.0827C81.5508 66.9577 81.6445 66.864 81.7695 66.864C81.8944 66.864 81.9882 66.9577 81.9882 67.0827Z" fill="#292B2B"/>
<path d="M80.08 67.0827C80.08 67.2077 79.9862 67.3014 79.8613 67.3014C79.7363 67.3014 79.6426 67.2077 79.6426 67.0827C79.6426 66.9577 79.7363 66.864 79.8613 66.864C79.955 66.864 80.08 66.9577 80.08 67.0827Z" fill="#292B2B"/>
<path d="M80.7986 69.3006C80.5174 69.3006 80.205 69.2069 80.0176 69.0819C79.9863 69.0507 79.9863 69.0194 80.0176 69.0194C80.0488 68.9882 80.0801 68.9882 80.0801 69.0194C80.2675 69.1444 80.5487 69.2381 80.7986 69.2381C81.0798 69.2381 81.3297 69.1444 81.5484 69.0194C81.5797 69.0194 81.6109 69.0194 81.6109 69.0194C81.6422 69.0506 81.6109 69.0819 81.6109 69.0819C81.3922 69.2069 81.1111 69.3006 80.7986 69.3006Z" fill="#F7A584"/>
<path d="M80.5488 70.082C80.5176 70.082 80.5176 70.082 80.5176 70.0507C80.5176 70.0195 80.5176 69.9883 80.5488 69.9883C80.6113 69.957 80.705 69.9258 80.7988 69.9258C80.8925 69.9258 80.955 69.9258 81.0175 69.957C81.0487 69.957 81.0487 69.9883 81.0487 70.0195C81.0487 70.0508 81.0175 70.0507 80.9862 70.0507C80.9237 70.0195 80.8612 70.0195 80.7988 70.0195C80.705 70.0508 80.6425 70.0508 80.5488 70.082C80.5801 70.082 80.5801 70.082 80.5488 70.082Z" fill="#F7A584"/>
<path d="M82.9551 67.0198C83.1738 67.0198 83.3925 67.2072 83.3925 67.4572V67.7071C83.3925 67.9258 83.205 68.1445 82.9551 68.1445" fill="#F6A49B"/>
<path d="M78.5819 67.0198C78.3632 67.0198 78.1445 67.2072 78.1445 67.4572V67.7071C78.1445 67.9258 78.332 68.1445 78.5819 68.1445" fill="#F6A49B"/>
<path d="M80.7372 67.1759L80.581 67.8632C80.5497 68.0194 80.6747 68.1757 80.8309 68.1757C80.9871 68.1757 81.1121 68.0194 81.0809 67.8632L80.9247 67.1759C80.8622 67.1134 80.7684 67.1134 80.7372 67.1759Z" fill="#F6A49B"/>
<path d="M80.1765 66.4885C80.1453 66.4885 80.1453 66.4885 80.114 66.4572C79.8016 66.2073 79.6142 66.426 79.6142 66.4572C79.5829 66.4885 79.5204 66.5197 79.4892 66.4572C79.458 66.426 79.4267 66.3635 79.4892 66.3322C79.6142 66.2073 79.8953 66.0198 80.2703 66.3322C80.3015 66.3635 80.3327 66.426 80.2703 66.4572C80.2078 66.4885 80.2078 66.4885 80.1765 66.4885Z" fill="#27282A"/>
<path d="M81.4238 66.4894C81.3926 66.4894 81.3613 66.4894 81.3613 66.4582C81.3301 66.427 81.3301 66.3645 81.3613 66.3332C81.7362 66.0521 82.0486 66.2083 82.1424 66.3332C82.1736 66.3645 82.1736 66.427 82.1424 66.4582C82.1111 66.4894 82.0486 66.4894 82.0174 66.4582C81.9862 66.427 81.7987 66.2395 81.5175 66.4582C81.455 66.4894 81.455 66.4894 81.4238 66.4894Z" fill="#27282A"/>
<path d="M83.3925 72.9872H83.1113V74.0807H83.3925V72.9872Z" fill="#F6A49B"/>
<path d="M78.457 72.9872H78.1758V74.0807H78.457V72.9872Z" fill="#F6A49B"/>
<path opacity="0.2" d="M80.769 70.6437C80.769 70.6437 80.8002 70.6437 80.769 70.6437C81.9874 70.6437 82.956 69.6752 82.956 68.4568V66.8947C82.956 66.8947 82.831 69.0504 81.1439 69.7065C80.894 69.8002 80.644 69.8002 80.3941 69.7065C78.707 69.0504 78.582 66.8947 78.582 66.8947V68.4568C78.582 69.6752 79.5505 70.6437 80.769 70.6437Z" fill="#F7A584"/>
<path d="M82.7996 64.2707C82.4872 63.5522 81.7374 62.9273 80.0816 63.2085C80.0503 63.2397 79.6442 63.271 79.3942 63.7084C78.8944 63.7709 78.2695 64.2707 78.5819 66.8014C78.5819 66.8014 78.9568 63.9583 79.8941 64.9893C80.2065 65.333 81.0188 65.9891 82.9558 66.0203C82.9871 66.4265 82.9558 66.8014 82.9558 66.8014C83.5495 64.8643 83.0808 64.3957 82.7996 64.2707Z" fill="#27282A"/>
<path opacity="0.1" d="M80.9254 65.27C80.6755 65.145 80.4256 64.9576 80.2381 64.6764C79.9569 64.2702 79.5195 64.364 79.5195 64.364L79.5508 64.4264C79.582 64.4264 79.9257 64.364 80.2069 64.7076C80.3943 64.9888 80.6443 65.2075 80.9254 65.3325C81.3628 65.5199 82.0814 65.7386 83.2374 65.8011C83.2374 65.7699 83.2374 65.7386 83.2374 65.7074C82.0814 65.6761 81.3628 65.4574 80.9254 65.27Z" fill="#F3F3F3"/>
<path opacity="0.1" d="M83.2374 65.0203C81.3316 64.9891 80.8942 64.5517 80.8005 64.3642V64.333C80.2694 63.5832 79.5195 63.8956 79.5195 63.8956L79.5508 63.9581C79.5508 63.9581 80.2381 63.6769 80.738 64.3642C80.9567 64.8016 81.8315 65.0516 83.2374 65.0516C83.2374 65.0828 83.2374 65.0516 83.2374 65.0203Z" fill="#F3F3F3"/>
<path d="M82.3005 67.1139C82.3005 67.4263 82.0506 67.6762 81.7381 67.6762C81.4257 67.6762 81.1758 67.4263 81.1758 67.1139C81.1758 66.8015 81.4257 66.5515 81.7381 66.5515C82.0506 66.5515 82.3005 66.8015 82.3005 67.1139Z" stroke="#27282A" stroke-width="0.397" stroke-miterlimit="10"/>
<path d="M82.2695 66.9579H82.9569" stroke="#27282A" stroke-width="0.397" stroke-miterlimit="10"/>
<path d="M79.2383 67.1139C79.2383 67.4263 79.4882 67.6762 79.8006 67.6762C80.1131 67.6762 80.363 67.4263 80.363 67.1139C80.363 66.8015 80.1131 66.5515 79.8006 66.5515C79.4882 66.5515 79.2383 66.8015 79.2383 67.1139Z" stroke="#27282A" stroke-width="0.397" stroke-miterlimit="10"/>
<path d="M79.2694 66.9579H78.582" stroke="#27282A" stroke-width="0.397" stroke-miterlimit="10"/>
<path d="M80.3301 67.082H81.2049" stroke="#27282A" stroke-width="0.397" stroke-miterlimit="10"/>
<path d="M104.606 63.9579H89.4844V65.8012H104.606V63.9579Z" fill="#D0D2D3"/>
<path d="M104.606 67.8948H89.4844V69.7381H104.606V67.8948Z" fill="#D0D2D3"/>
<path d="M104.606 71.8005H89.4844V73.6438H104.606V71.8005Z" fill="#D0D2D3"/>
<path d="M104.637 77.7042H81.7363V79.5475H104.637V77.7042Z" fill="#D0D2D3"/>
<path d="M104.637 83.6094H81.7363V85.4527H104.637V83.6094Z" fill="#D0D2D3"/>
<path d="M104.637 89.5145H81.7363V91.3578H104.637V89.5145Z" fill="#D0D2D3"/>
<path d="M104.637 95.4192H81.7363V97.2625H104.637V95.4192Z" fill="#D0D2D3"/>
<path d="M78.4545 77.2677H75.9238V79.5172H78.4545V77.2677Z" stroke="#58595B" stroke-miterlimit="10"/>
<path d="M78.4545 83.3909H75.9238V85.6403H78.4545V83.3909Z" stroke="#58595B" stroke-miterlimit="10"/>
<path d="M78.4545 89.5461H75.9238V91.7956H78.4545V89.5461Z" stroke="#58595B" stroke-miterlimit="10"/>
<path d="M78.4545 95.7006H75.9238V97.95H78.4545V95.7006Z" stroke="#58595B" stroke-miterlimit="10"/>
<path d="M72.2374 97.8882C71.675 97.482 71.5188 96.7947 71.4876 96.0761C71.0814 97.9194 69.8942 97.8569 69.613 97.9819L69.5818 98.0131L69.613 97.9819C71.3626 96.7634 71.5188 94.6389 71.5501 94.3265C71.5813 92.0771 70.894 89.8276 69.6443 87.9843C68.832 86.7659 67.6135 85.3912 68.6445 83.8916C68.9257 83.5167 69.3318 83.2667 69.7067 82.9855C70.5815 82.3607 71.2689 81.4547 71.6125 80.4549C71.7688 79.955 72.1437 77.2682 71.1439 77.4556C70.9877 77.4869 70.8315 77.5806 70.7065 77.6743C69.613 78.4554 68.4883 79.174 67.3323 79.7988C66.3013 80.3612 65.6452 80.5486 65.2391 81.6734C63.9581 85.4224 62.5835 89.0153 63.3333 93.0456C63.8019 95.5762 62.3648 98.2631 61.0213 100.481C60.8026 100.856 60.5527 101.231 60.459 101.637C62.396 103.949 64.458 106.261 66.8949 107.979C67.801 106.73 68.707 105.449 69.8942 104.449C70.9252 103.543 71.0189 103.043 72.2374 102.387V100.169V97.8882Z" fill="#FFBE90"/>
<path d="M68.3964 80.9546C68.4276 80.9858 68.4276 81.017 68.4589 81.017C68.4901 81.017 68.5526 81.017 68.5838 80.9858C68.99 80.7671 69.3961 80.5484 69.771 80.2985C69.9273 80.1735 70.1147 80.0485 70.2397 79.8923C70.4271 79.6736 70.5209 79.3924 70.5521 79.1113C70.6146 78.6739 70.6146 78.2365 70.5209 77.8303C69.6773 78.4239 68.8338 78.9863 67.9277 79.4862C67.9277 80.0173 68.1464 80.6109 68.3964 80.9546Z" fill="#F4CDB3"/>
<path d="M67.6452 81.298C67.4578 81.1418 67.3953 80.4857 67.364 80.267C67.3328 80.142 67.3328 79.9858 67.3328 79.8608L67.3016 79.8921C67.2391 79.9233 67.1766 79.9546 67.1141 79.9858C67.0516 80.4857 67.2703 81.0168 67.6452 81.298Z" fill="#FFA97C"/>
<path d="M67.0819 81.2985C66.8945 81.1423 66.832 80.4862 66.8007 80.2675C66.8007 80.2363 66.8007 80.1738 66.8007 80.1426C66.707 80.1738 66.6445 80.2363 66.5508 80.2675C66.582 80.6737 66.7695 81.0798 67.0819 81.2985Z" fill="#FFA97C"/>
<path opacity="0.4" d="M65.364 94.3884C65.3016 92.014 63.9894 89.8895 63.552 87.5776C63.5207 87.4526 63.5207 87.3589 63.4895 87.2339C63.0521 89.1397 62.8959 91.0455 63.2708 93.1074C63.7394 95.6381 62.3023 98.3249 60.9588 100.543C60.7402 100.918 60.4902 101.293 60.3965 101.699C60.7089 102.074 61.0213 102.449 61.3338 102.824C61.6774 102.386 62.0211 101.918 62.3335 101.48C63.8332 99.3559 65.3953 97.0127 65.364 94.3884Z" fill="#FFA97C"/>
<path d="M67.1152 84.1727C67.6463 84.1102 68.2087 84.0165 68.7085 83.8603C68.771 83.7666 68.8648 83.7041 68.9272 83.6104C68.8023 83.6416 68.7085 83.6728 68.6148 83.7353C68.0837 83.9853 67.4901 84.1415 66.8965 84.2039C66.9902 84.1727 67.0527 84.1727 67.1152 84.1727Z" fill="#FFA97C"/>
<path d="M67.1787 107.604C67.3662 107.355 67.5224 107.136 67.7098 106.886C67.5536 106.698 67.3662 106.511 67.21 106.324C65.804 105.011 64.3044 103.699 63.1797 102.137C64.2107 103.543 65.2417 104.949 66.2727 106.355C66.5539 106.792 66.8663 107.198 67.1787 107.604Z" fill="#FFA97C"/>
<path d="M59.773 98.9191C59.773 98.9191 62.5536 104.793 67.7086 108.635C67.8023 108.854 66.8025 110.323 66.8025 110.323C66.8025 110.323 60.2416 106.261 57.9609 100.325C58.1796 99.7001 59.773 98.9191 59.773 98.9191Z" fill="#F9FAFE"/>
<path d="M57.5234 98.9191C57.5234 98.9191 58.5544 105.199 69.2705 110.791C68.8331 110.479 57.9608 125.413 57.9608 125.413L41.2773 112.166L57.5234 98.9191Z" fill="#4D4D4D"/>
<path opacity="0.1" d="M64.1777 107.605H63.3029L47.8379 117.384L57.9604 125.413C57.9604 125.413 68.8015 110.51 69.2702 110.791C67.2394 109.729 65.5836 108.667 64.1777 107.605Z" fill="#303637"/>
<path d="M66.1791 111.51C66.1791 112.166 65.648 112.697 64.9919 112.697C64.3358 112.697 63.8047 112.166 63.8047 111.51C63.8047 110.854 64.3358 110.322 64.9919 110.322C65.648 110.322 66.1791 110.854 66.1791 111.51Z" fill="#FFCE55"/>
<path d="M107.794 82.8912C108.106 83.2974 108.294 83.7348 108.481 84.2034C108.856 85.0782 109.2 85.953 109.543 86.859C109.887 87.8275 110.231 88.796 110.324 89.7958C110.387 90.4519 110.387 91.108 110.387 91.764C110.324 94.6696 110.262 97.5439 110.231 100.449C109.793 99.9496 109.543 99.2935 109.325 98.6686C108.137 95.5444 107.169 92.3264 106.45 89.046C106.2 87.9837 105.982 86.8902 105.638 85.8905C105.388 85.2031 105.076 84.5471 104.763 83.8597C104.263 82.8287 103.795 81.7977 103.295 80.798C104.013 80.548 104.795 81.1104 105.482 81.3603C106.294 81.704 107.2 82.1101 107.794 82.8912Z" fill="#FBA478"/>
<path d="M95.2656 83.5797C95.4531 83.7359 95.703 83.8609 95.828 83.8921C96.2966 83.9859 96.734 83.5797 97.1714 83.4548C97.4526 83.3923 97.7338 83.361 98.015 83.361C98.671 83.3298 99.3584 83.2985 100.014 83.2673C100.108 83.2673 100.202 83.2673 100.264 83.2985C100.358 83.3298 100.421 83.4235 100.452 83.5172C100.702 83.8921 101.014 84.2358 101.358 84.5482C101.483 84.642 101.608 84.7669 101.639 84.8919C101.702 85.1418 101.577 85.3605 101.452 85.5792C101.17 86.1416 101.045 86.7977 101.139 87.4225C101.139 87.5163 101.17 87.6412 101.139 87.735C101.108 87.8599 100.983 87.9537 100.889 88.0161C100.202 88.5785 99.7958 89.4533 99.827 90.3281C100.764 90.3906 101.702 90.2031 102.545 89.8594C103.014 89.672 103.482 89.3908 103.826 88.9847C104.201 88.516 104.388 87.9537 104.42 87.3601C104.482 86.7664 104.42 86.1728 104.357 85.6105C104.295 85.0794 104.232 84.517 103.982 84.0171C103.732 83.5485 103.357 83.1423 102.889 82.8611C102.295 82.455 101.577 82.1738 100.858 82.0488C99.6083 81.7677 98.2024 81.6115 97.0152 82.1426C96.3904 82.4238 95.7343 82.6737 95.1094 82.9549C95.0469 82.9861 94.9845 83.0174 94.9532 83.0486C94.922 83.2361 95.0782 83.4235 95.2656 83.5797Z" fill="#E67944"/>
<path d="M102.014 87.6719C102.014 87.3595 101.951 87.0471 102.045 86.7347C102.139 86.3598 102.451 86.1098 102.67 85.7974C102.701 85.7349 102.764 85.6724 102.764 85.6099C102.764 85.5474 102.732 85.485 102.701 85.4225C102.076 84.2665 102.076 83.1105 100.639 82.6732C99.1708 82.2358 97.39 82.5169 95.8591 82.5482C95.3592 82.5482 94.7656 82.4857 94.6719 81.8609C94.6719 81.8296 94.6719 81.7671 94.6719 81.7359C94.7031 81.7046 94.7344 81.6734 94.7656 81.6422C95.0155 81.4859 95.328 81.4547 95.6091 81.361C96.3902 81.1423 97.0775 80.8299 97.8898 80.6736C99.1395 80.4237 100.358 80.205 101.608 79.9551C101.795 79.9238 101.951 79.8926 102.139 79.9238C102.326 79.9551 102.482 80.08 102.607 80.205C103.295 80.7674 103.951 81.3297 104.638 81.8609C105.107 82.267 105.638 82.6732 105.857 83.2668C106.044 83.7666 106.013 84.2978 105.982 84.8289C105.857 86.8284 105.857 88.8279 105.95 90.7962C105.982 91.3585 106.013 92.0771 105.607 92.5457C104.857 93.4205 102.67 92.6707 101.826 92.2021C100.702 91.546 100.327 90.4525 101.139 89.3903C101.514 88.8904 101.983 88.4217 102.045 87.8281C102.014 87.8281 102.014 87.7657 102.014 87.6719Z" fill="#FBA478"/>
<path d="M110.574 96.326C110.356 94.0141 110.231 91.8271 109.793 89.5464C109.793 89.5152 109.856 90.0776 109.856 90.0463C110.012 89.2965 109.762 88.5154 109.418 87.8594C109.075 87.172 108.606 86.5784 108.231 85.9223C107.356 84.3602 107.013 82.5169 106.107 80.986C105.888 80.6111 105.607 80.2362 105.232 80.0488C104.919 79.8926 104.576 79.8301 104.232 79.7988C103.076 79.6426 101.951 79.5176 100.795 79.3614C100.046 79.2677 99.2957 79.174 98.5459 79.2052C97.3587 79.2677 96.2965 79.5801 95.1405 79.299C94.8906 79.2365 94.6719 79.4864 94.6719 79.7363C94.6719 79.9863 94.7968 80.205 94.9531 80.3924C95.5154 81.0798 96.3277 81.5484 97.2025 81.6734C97.8274 81.7671 98.4834 81.7046 99.1083 81.7983C99.6707 81.8921 100.202 82.1108 100.733 82.3607C101.67 82.7669 102.576 83.2042 103.513 83.6729C103.826 83.8291 104.138 84.0165 104.201 84.329C104.232 84.6101 104.045 84.8913 103.857 85.1413C103.045 86.2972 102.764 87.7969 103.139 89.1715C103.326 89.8901 102.451 90.14 101.858 90.2338C101.202 90.3587 100.795 89.9213 100.452 89.359C99.8269 88.3592 99.5769 87.1408 99.2333 86.0161C99.2333 85.9536 99.1708 85.8598 99.1395 85.7974C98.9208 85.2038 98.6709 84.6414 98.3272 84.1103C98.1398 83.8291 97.9523 83.5167 97.7336 83.2667C97.2962 82.7356 96.5464 82.5169 95.8903 82.7669C95.4842 82.9231 95.1718 83.2355 94.9843 83.6416C94.5781 84.4852 94.8281 85.2662 94.9531 86.141C95.0468 86.6409 95.1405 87.172 95.203 87.6719C95.3905 88.7341 95.6091 89.7964 96.0778 90.7649C96.8276 92.2958 97.2338 93.8579 97.6711 95.4512C98.1398 97.1383 99.2333 98.7942 100.171 100.263C102.139 103.324 104.513 106.199 106.044 109.542C106.856 111.354 107.419 113.259 107.887 115.196C108.075 116.009 108.356 120.039 109.137 120.289C109.481 120.383 110.356 119.664 110.699 119.508C111.636 119.164 112.699 119.008 113.667 118.789C114.292 118.664 119.197 117.321 119.447 117.727C115.386 111.447 111.293 103.824 110.574 96.326Z" fill="#FFBE90"/>
<path d="M95.0469 84.7039C95.0469 84.7039 94.8907 82.4232 97.3589 83.5479C97.4526 83.5792 97.9525 85.2662 97.9525 85.6724C97.89 85.5474 96.9527 86.4847 95.6717 86.6097C95.6093 86.6722 95.0469 84.7039 95.0469 84.7039Z" fill="#F4CDB3"/>
<path d="M95.6093 79.7993C96.1404 79.9555 96.7028 80.018 97.2652 79.9243C97.2339 79.7369 97.1714 79.5181 97.1402 79.3307C96.5466 79.3932 95.9842 79.4244 95.3906 79.3307C95.4219 79.5181 95.4531 79.7056 95.5156 79.7681C95.5468 79.7993 95.5781 79.7993 95.6093 79.7993Z" fill="#F4CDB3"/>
<path d="M97.7968 80.1424C97.7656 79.8299 97.7656 79.5488 97.7656 79.2363C97.7344 79.2363 97.6719 79.2363 97.6406 79.2676C97.6719 79.58 97.7343 79.8612 97.7968 80.1424Z" fill="#FFAC7A"/>
<path d="M98.2636 79.83C98.2324 79.6114 98.2636 79.3927 98.2949 79.2052C98.2636 79.2052 98.2324 79.2052 98.1699 79.2052C98.1699 79.2364 98.1699 79.2677 98.1699 79.2677C98.2012 79.4864 98.2324 79.6738 98.2636 79.83Z" fill="#FFAC7A"/>
<path d="M98.8281 81.7353C98.953 81.6416 99.0468 81.5791 99.1717 81.4854C99.3592 81.3604 99.5466 81.2042 99.7029 81.0167C99.4529 81.3291 98.8905 81.5166 98.5156 81.7041C98.6094 81.7041 98.7343 81.7353 98.8281 81.7353Z" fill="#FFAC7A"/>
<path d="M102.107 82.9235C102.389 82.8298 102.67 82.7361 102.92 82.6111C102.576 82.7361 102.232 82.8298 101.889 82.8298C101.951 82.861 102.014 82.8923 102.107 82.9235Z" fill="#FFAC7A"/>
<path d="M104.732 81.1735C104.669 80.7361 104.701 80.2987 104.763 79.8613C104.701 79.8301 104.607 79.8301 104.545 79.8301C104.451 80.2987 104.669 80.7049 104.732 81.1735Z" fill="#FFAC7A"/>
<path d="M100.764 89.7335C100.951 90.6396 100.982 91.5768 100.951 92.4829C101.045 91.6393 101.076 90.7958 101.014 89.9522C100.92 89.921 100.857 89.8272 100.764 89.7335Z" fill="#FBA478"/>
<path d="M106.201 84.5787C105.482 84.4538 104.764 84.2663 104.076 83.9851C104.139 84.0788 104.201 84.1726 104.232 84.2975C104.232 84.36 104.232 84.4225 104.232 84.5162C104.857 84.6725 105.545 84.7037 106.201 84.5787Z" fill="#FFAC7A"/>
<path d="M98.4525 86.0789C97.7027 86.5788 96.8279 86.9849 95.9219 87.1099C96.2968 86.9224 96.5467 86.735 96.9529 86.61C97.4215 86.485 98.0463 86.36 98.4525 86.0789Z" fill="#FFAC7A"/>
<path d="M96.1406 87.5153C96.5468 87.6091 97.0154 87.6091 97.4215 87.4841C97.8277 87.3591 98.2338 87.1404 98.4838 86.7968C98.1713 86.9842 97.8277 87.0467 97.484 87.2029C97.0466 87.4216 96.578 87.4841 96.1406 87.5153Z" fill="#FFAC7A"/>
<path d="M102.42 104.886V106.417C102.42 106.417 111.605 104.262 112.98 102.168C112.824 102.262 112.074 100.981 112.074 100.981C112.074 100.981 111.136 103.168 102.42 104.886Z" fill="#F9FAFE"/>
<path d="M114.698 100.605C114.698 100.605 110.48 105.136 100.389 106.823C100.358 106.948 105.138 124.006 105.138 124.006C105.138 124.006 123.602 117.351 123.508 117.164C123.383 116.976 114.698 100.605 114.698 100.605Z" fill="#4D4D4D"/>
<path opacity="0.1" d="M114.635 120.539C112.792 115.603 108.668 104.449 108.543 104.637C107.481 105.23 105.044 105.855 103.107 106.293C102.263 106.511 101.357 106.699 100.389 106.855C100.358 106.98 105.138 124.038 105.138 124.038C105.138 124.038 109.918 122.257 114.635 120.539Z" fill="#303637"/>
<path d="M91.2969 78.9862C91.2969 78.9862 101.919 83.4539 111.886 90.8895C111.948 91.0457 112.261 91.9205 110.792 92.3267C110.698 92.3579 94.4524 82.2979 91.2969 78.9862Z" fill="#303637"/>
<path d="M91.2969 78.9862C91.2969 78.9862 92.2029 79.861 93.0464 80.5171C93.0464 80.5171 93.6713 80.5796 93.5463 80.0172C93.5151 79.986 91.2969 78.9862 91.2969 78.9862Z" fill="#999999"/>
<path d="M91.2969 78.9862L92.0467 79.6735C92.0467 79.6735 92.3591 79.6735 92.3279 79.4236C92.2966 79.4236 91.2969 78.9862 91.2969 78.9862Z" fill="#131313"/>
<path d="M106.574 87.2031C106.418 87.7342 106.074 88.3279 105.324 88.9215C105.387 88.9527 105.418 88.9839 105.48 89.0152C106.199 88.4216 106.574 87.828 106.73 87.2968C106.668 87.2656 106.605 87.2344 106.574 87.2031Z" fill="#131313"/>
<path opacity="0.2" d="M94.3594 80.6425C94.3594 80.6425 102.92 84.9851 105.888 87.3283C105.888 87.422 105.607 87.7345 105.607 87.7345L94.3594 80.6425Z" fill="#F1F1F1"/>
<path opacity="0.2" d="M106.73 88.3904L111.292 91.6084C111.292 91.6084 111.76 91.4522 111.604 91.0148C111.636 90.9835 106.855 87.9843 106.855 87.9843L106.73 88.3904Z" fill="#F1F1F1"/>
<path d="M105.605 109.26C105.605 109.916 105.074 110.447 104.418 110.447C103.762 110.447 103.23 109.916 103.23 109.26C103.23 108.604 103.762 108.072 104.418 108.072C105.074 108.072 105.605 108.604 105.605 109.26Z" fill="#FFCE55"/>
<path d="M114.696 100.605C114.696 100.605 113.102 100.699 112.29 101.355C112.259 101.293 112.946 102.168 112.946 102.168L114.696 100.605Z" fill="#303637"/>
<path d="M100.387 106.823C100.387 106.823 100.793 105.729 102.417 105.448C102.417 105.386 102.417 106.417 102.417 106.417L100.387 106.823Z" fill="#303637"/>
<path d="M57.5234 98.919C57.5234 98.919 58.2733 98.8565 58.6794 99.6063C58.6794 99.6063 58.1171 99.9812 57.9921 100.325C57.9608 100.325 57.5234 99.2939 57.5234 98.919Z" fill="#303637"/>
<path d="M67.6464 108.917C67.6464 108.917 69.3335 109.979 69.271 110.791C69.271 110.791 67.5839 109.885 67.209 109.635C67.2715 109.573 67.6464 108.917 67.6464 108.917Z" fill="#303637"/>
<path d="M75.5488 76.2363L77.2047 78.392L81.2037 75.4552" stroke="#34BF6E" stroke-width="3" stroke-miterlimit="10"/>
<path d="M75.5488 82.4227L77.2047 84.5472L81.2037 81.6416" stroke="#34BF6E" stroke-width="3" stroke-miterlimit="10"/>
<path d="M75.5488 88.5771L77.2047 90.7328L81.2037 87.796" stroke="#34BF6E" stroke-width="3" stroke-miterlimit="10"/>
<path d="M75.5488 94.7635L77.2047 96.9192L81.2037 93.9824" stroke="#34BF6E" stroke-width="3" stroke-miterlimit="10"/>
<path d="M74.6123 49.3366C74.5186 49.2117 74.2686 49.0554 73.8625 48.7743C73.4563 48.5243 72.9252 48.2431 72.3004 47.962C71.6755 47.6808 70.9569 47.3996 70.2071 47.1184C69.4261 46.8372 68.645 46.6498 67.8639 46.556V52.3046L69.2074 52.6483C70.6445 53.0545 71.9254 53.4606 73.0814 53.9293C74.2374 54.3979 75.2059 54.9603 76.0182 55.6476C76.8305 56.3349 77.4241 57.1785 77.8615 58.147C78.2989 59.1155 78.5176 60.3027 78.5176 61.6774C78.5176 63.2707 78.2364 64.6454 77.674 65.7701C77.1117 66.8948 76.3619 67.8009 75.4246 68.5194C74.4873 69.238 73.3938 69.7691 72.1754 70.144C70.9569 70.519 69.676 70.7064 68.3326 70.7689V75.6739H65.427V70.7377C63.49 70.5814 61.5842 70.1753 59.6784 69.5504C57.7727 68.9256 56.0856 68.1133 54.5547 67.1135L57.5852 61.0838C57.7102 61.24 57.9913 61.4587 58.4912 61.7711C58.9911 62.0835 59.616 62.4272 60.3658 62.7708C61.1156 63.1145 61.9904 63.4582 62.9276 63.7706C63.8962 64.083 64.8647 64.333 65.8644 64.4579V58.8655L63.8337 58.2719C62.459 57.8658 61.2718 57.3972 60.2408 56.8973C59.241 56.3974 58.3975 55.835 57.7414 55.1789C57.0853 54.5229 56.5854 53.773 56.273 52.9295C55.9606 52.086 55.7731 51.1174 55.7731 49.9927C55.7731 48.5243 56.0231 47.2434 56.523 46.0874C57.0228 44.9627 57.7102 43.9629 58.5537 43.1506C59.3973 42.3383 60.4283 41.6822 61.5842 41.2448C62.7402 40.7762 64.0211 40.4638 65.3645 40.3388V36.1211H68.2701V40.3701C70.0821 40.5263 71.8005 40.9324 73.4251 41.5885C75.0184 42.2446 76.4243 42.9007 77.6116 43.5568L74.6123 49.3366ZM62.9276 48.9617C62.9276 49.649 63.1776 50.2114 63.6775 50.6176C64.1773 51.0237 64.8959 51.3986 65.8957 51.6798V46.4936C63.9274 46.681 62.9276 47.4933 62.9276 48.9617ZM71.1131 62.3647C71.1131 61.6461 70.832 61.0525 70.2384 60.6464C69.6448 60.2402 68.8637 59.8653 67.8639 59.5216V64.5829C70.0197 64.5204 71.1131 63.7706 71.1131 62.3647Z" stroke="#FFCE55" stroke-miterlimit="10"/>
<path d="M133.191 111.728L148.313 117.257L144.251 121.819L133.191 111.728Z" fill="#FFCE55"/>
<path d="M127.85 115.071L131.505 122.132L127.85 122.663V115.071Z" fill="#FFCE55"/>
<path d="M47.4932 115.914L38.183 124.256L35.6211 121.038L47.4932 115.914Z" fill="#F9FAFE"/>
<path d="M46.7125 114.008L37.746 116.195L37.3086 112.29L46.7125 114.008Z" fill="#F9FAFE"/>
<path d="M125.318 28.8103H149.687" stroke="#F1F1F2" stroke-width="5" stroke-miterlimit="10" stroke-linecap="round" stroke-linejoin="round"/>
</g>
<path d="M181.43 77.4545H178.369V86.6023H178.241L171.963 77.4545H169.264V92H172.339V82.8452H172.446L178.774 92H181.43V77.4545ZM197.338 84.7273C197.338 79.9688 194.383 77.2557 190.527 77.2557C186.649 77.2557 183.716 79.9688 183.716 84.7273C183.716 89.4645 186.649 92.1989 190.527 92.1989C194.383 92.1989 197.338 89.4858 197.338 84.7273ZM194.22 84.7273C194.22 87.8097 192.757 89.4787 190.527 89.4787C188.289 89.4787 186.833 87.8097 186.833 84.7273C186.833 81.6449 188.289 79.9759 190.527 79.9759C192.757 79.9759 194.22 81.6449 194.22 84.7273ZM189.099 76.1619L190.527 74.429L191.954 76.1619H194.532V76.0625L191.649 72.9375H189.397L186.521 76.0625V76.1619H189.099ZM190.52 96.0909C191.422 96.0909 192.16 95.402 192.16 94.5568C192.16 93.7188 191.422 93.0298 190.52 93.0298C189.625 93.0298 188.886 93.7188 188.886 94.5568C188.886 95.402 189.625 96.0909 190.52 96.0909ZM199.616 92H202.691V87.2841H205.276C208.621 87.2841 210.567 85.2884 210.567 82.3835C210.567 79.4929 208.657 77.4545 205.354 77.4545H199.616V92ZM202.691 84.8196V79.9688H204.765C206.54 79.9688 207.4 80.9347 207.4 82.3835C207.4 83.8253 206.54 84.8196 204.779 84.8196H202.691ZM217.194 92H220.269V85.9915H226.512V92H229.58V77.4545H226.512V83.456H220.269V77.4545H217.194V92ZM245.482 84.7273C245.482 79.9688 242.528 77.2557 238.671 77.2557C234.793 77.2557 231.86 79.9688 231.86 84.7273C231.86 89.4645 234.793 92.1989 238.671 92.1989C242.528 92.1989 245.482 89.4858 245.482 84.7273ZM242.364 84.7273C242.364 87.8097 240.901 89.4787 238.671 89.4787C236.434 89.4787 234.978 87.8097 234.978 84.7273C234.978 81.6449 236.434 79.9759 238.671 79.9759C240.901 79.9759 242.364 81.6449 242.364 84.7273ZM239.467 74.0952H237.84L234.985 76.304H237.151L238.664 75.1108L240.17 76.304H242.35L239.467 74.0952ZM234.055 72.3977H231.732L234.033 75.054H235.724L234.055 72.3977ZM260.28 81.6378H263.227C263.185 79.0455 261.054 77.2557 257.815 77.2557C254.626 77.2557 252.29 79.017 252.304 81.6591C252.297 83.804 253.81 85.0327 256.267 85.6222L257.851 86.0199C259.435 86.4034 260.315 86.858 260.322 87.8381C260.315 88.9034 259.307 89.6278 257.744 89.6278C256.146 89.6278 254.996 88.8892 254.896 87.4332H251.92C251.999 90.5795 254.25 92.206 257.78 92.206C261.331 92.206 263.419 90.5085 263.426 87.8452C263.419 85.4233 261.594 84.1378 259.065 83.5696L257.759 83.2571C256.494 82.9659 255.436 82.4972 255.457 81.4531C255.457 80.5156 256.288 79.8267 257.794 79.8267C259.264 79.8267 260.166 80.4943 260.28 81.6378ZM278.3 76.7443C278.3 78.2074 278.002 79.1662 277.121 79.4503C275.892 78.0227 274.096 77.2557 272.05 77.2557C268.172 77.2557 265.239 79.9688 265.239 84.7273C265.239 89.4645 268.172 92.1989 272.05 92.1989C275.907 92.1989 278.861 89.4858 278.861 84.7273C278.861 83.2287 278.57 81.9361 278.044 80.8636C279.557 80.3168 280.246 78.875 280.246 76.7443H278.3ZM275.743 84.7273C275.743 87.8097 274.28 89.4787 272.05 89.4787C269.813 89.4787 268.357 87.8097 268.357 84.7273C268.357 81.6449 269.813 79.9759 272.05 79.9759C274.28 79.9759 275.743 81.6449 275.743 84.7273Z" fill="#CD9200"/>
<defs>
<clipPath id="clip0">
<rect width="127.469" height="128" fill="white" transform="translate(23 20)"/>
</clipPath>
</defs>
</svg>
