<svg width="362" height="170" viewBox="0 0 362 170" fill="none" xmlns="http://www.w3.org/2000/svg">
<rect width="362" height="170" fill="#A8A8FF"/>
<g clip-path="url(#clip0)">
<path d="M111.802 131.235L111.698 131.055C114.676 129.318 118.146 129.183 121.501 129.053C122.875 128.999 124.296 128.945 125.646 128.777C131.959 127.996 136.613 123.928 138.092 117.898C139.445 112.397 137.934 106.511 134.153 102.535C133.962 102.334 133.766 102.129 133.575 101.933C132.261 100.566 130.901 99.1516 129.934 97.4871C129.323 96.4365 128.919 95.2914 128.737 94.0849C128.567 92.9682 128.586 91.7877 128.792 90.5789C129.16 88.3997 130.127 86.1474 131.59 84.0626C131.978 83.5125 132.386 82.9577 132.78 82.4241C134.045 80.71 135.355 78.937 136.183 76.9065C137.177 74.4794 137.408 71.37 136.837 68.1544C135.9 62.9083 132.943 58.184 128.921 55.5185C123.703 52.062 118.186 52.8128 112.345 53.6085C109.909 53.9413 107.408 54.2813 104.934 54.2813C104.292 54.2813 103.65 54.2577 103.013 54.2058C101.883 54.1137 100.752 53.913 99.6526 53.6085C98.5457 53.3039 97.4649 52.8931 96.4406 52.3878C94.3072 51.3372 92.4546 49.9112 90.9418 48.1522C86.5971 43.1045 80.6475 40.3351 74.9363 40.3351C72.4536 40.3351 70.0157 40.8568 67.7713 41.9453C63.2519 44.1315 59.5397 48.2821 57.5879 53.3346C56.4764 56.2079 56.2522 59.3267 56.0374 62.3417C55.8345 65.1678 55.6244 68.0883 54.6969 70.8506C54.173 72.4065 53.3989 73.9411 52.4526 75.2893C51.4449 76.7294 50.2814 77.9194 49.0023 78.8284C45.5283 81.2932 43.166 83.6589 41.5683 86.2749C39.2602 90.0524 38.7457 94.5241 40.2231 97.9451C41.2803 100.393 43.3359 101.959 45.3207 103.472C46.352 104.258 47.4187 105.071 48.3249 105.994C49.3421 107.033 50.0477 108.107 50.4773 109.278C50.8336 110.248 51.0035 111.37 50.9965 112.711C50.9894 114.274 50.7015 115.874 50.4206 117.421C49.9463 120.046 49.4554 122.764 50.338 125.363C50.9139 127.063 52.3629 128.298 54.645 129.034C56.2475 129.551 58.2086 129.818 60.6418 129.854C61.3616 129.863 62.0979 129.858 62.813 129.851C65.6237 129.828 68.5313 129.804 71.2051 130.763L71.1343 130.959C68.4959 130.012 65.6072 130.038 62.8153 130.061C62.1003 130.069 61.3616 130.073 60.6394 130.064C58.185 130.028 56.2026 129.757 54.5813 129.235C52.2331 128.477 50.7392 127.2 50.1421 125.434C49.243 122.783 49.7386 120.041 50.2177 117.388C50.4961 115.848 50.7817 114.257 50.7888 112.713C50.7935 111.398 50.6283 110.298 50.2814 109.351C49.3468 106.801 47.329 105.267 45.1956 103.64C43.1872 102.11 41.1128 100.528 40.0319 98.0278C39.6331 97.1046 39.3687 96.1059 39.2484 95.0624C39.1327 94.0708 39.1469 93.0367 39.2885 91.9884C39.5575 89.9887 40.2844 87.9748 41.3913 86.1639C43.0031 83.5243 45.3844 81.1374 48.8819 78.656C51.3599 76.8971 53.4084 74.0261 54.5011 70.7822C55.4215 68.0458 55.6315 65.1371 55.8321 62.3252C56.0492 59.2937 56.2758 56.1583 57.3968 53.2567C59.3674 48.157 63.1174 43.9662 67.6817 41.7564C69.6428 40.8073 71.7503 40.2642 73.9498 40.1391C76.0266 40.0234 78.153 40.2808 80.2723 40.9064C84.348 42.1105 88.1948 44.6368 91.1023 48.0153C94.0476 51.4364 98.3971 53.6179 103.034 53.998C106.1 54.2483 109.263 53.8186 112.319 53.4007C115.132 53.0182 118.039 52.6216 120.841 52.7656C122.351 52.8435 123.71 53.0678 124.999 53.4526C126.446 53.8823 127.767 54.5009 129.039 55.3438C131.055 56.6777 132.858 58.5759 134.255 60.833C135.624 63.0405 136.587 65.5573 137.04 68.1143C137.313 69.6489 137.408 71.1599 137.321 72.6048C137.224 74.2079 136.908 75.6812 136.374 76.9821C135.534 79.0361 134.22 80.8186 132.945 82.5445C132.551 83.0781 132.143 83.6306 131.758 84.1783C128.567 88.7303 127.951 93.6671 130.113 97.3809C131.069 99.0217 132.419 100.429 133.724 101.786C133.915 101.985 134.111 102.188 134.302 102.391C136.195 104.379 137.564 106.893 138.26 109.658C138.944 112.382 138.958 115.246 138.295 117.945C137.92 119.468 137.339 120.891 136.565 122.171C135.808 123.425 134.866 124.541 133.769 125.493C131.576 127.389 128.777 128.595 125.674 128.98C124.317 129.148 122.892 129.204 121.513 129.256C118.179 129.391 114.735 129.525 111.802 131.235Z" fill="#F5F5FE"/>
<path d="M44.3957 82.462C41.8469 86.0885 39.8787 91.0229 41.2451 95.5772C42.6068 100.117 46.9587 102.918 48.8608 107.229C49.937 109.665 49.9653 112.347 50.0054 114.963C50.0597 118.389 49.3895 122.025 51.7046 124.919C53.0734 126.631 55.1384 127.644 57.227 128.307C61.4207 129.641 65.815 130.269 69.5415 132.789C75.6609 136.93 83.1775 138.377 90.4723 137.931C94.1704 137.704 97.8402 137.008 101.383 135.926C105.498 134.67 109.159 132.444 113.303 131.252C120.487 129.186 130.309 129.157 134.512 121.886C137.342 116.991 138.324 110.94 136.122 105.607C135.074 103.071 133.077 101.133 131.94 98.6442C130.368 95.2042 129.943 91.2826 130.993 87.6278C131.036 87.4767 131.083 87.328 131.13 87.1793C132.228 83.7629 134.437 80.8259 135.35 77.3482C137.236 70.1684 133.068 62.5755 127.588 57.9598C125.311 56.0427 122.766 54.4467 119.996 53.5353C112.354 51.0256 103.863 53.9296 96.1953 51.5025C90.3141 49.6397 85.4856 44.7997 79.4936 43.3997C74.8892 42.3231 69.912 43.4729 66.0015 46.2848C62.091 49.0967 59.2519 53.4976 57.9586 58.3423C56.7597 62.8329 56.7975 67.765 54.6711 71.8424C52.8516 75.3319 49.4815 77.2159 46.7439 79.7469C45.8872 80.5378 45.1014 81.4586 44.3957 82.462Z" fill="#F5F5FE"/>
<path d="M135.435 46.3294C135.503 45.9185 134.958 45.0898 134.366 45.1017C134.13 45.1064 133.898 45.1678 133.662 45.156C133.035 45.1253 132.709 44.6365 132.468 44.2305C132.225 43.8267 131.744 43.364 131.133 43.4655C130.252 43.6142 129.809 44.7758 128.806 43.9023C128.15 43.3309 128.1 42.5329 127.359 41.9781C126.849 41.598 126.021 41.3713 125.339 41.5814C124.447 41.8553 124.116 42.7407 123.168 42.8941C122.117 43.0641 121.36 42.2638 121.025 41.6877C120.616 40.9865 120.465 40.231 120.118 39.518C119.795 38.8592 119.146 37.9739 117.983 37.9951C116.999 38.0117 116.567 38.6349 116.083 39.1284C115.455 39.7706 114.15 42.082 112.687 41.8034C112.116 41.6948 111.83 41.2415 111.316 41.0384C110.487 40.7126 109.432 41.1612 108.934 41.7255C108.436 42.2897 108.238 42.9721 107.674 43.5056C107.528 43.6449 107.351 43.7748 107.122 43.8362C106.334 44.051 105.602 43.3899 104.76 43.3404C104.179 43.3073 103.639 43.5788 103.303 43.9141C102.968 44.247 102.787 44.6413 102.532 45.0072C102.461 45.1087 102.381 45.2126 102.251 45.2811C101.88 45.4794 101.361 45.3118 100.908 45.2339C99.7895 45.0403 98.5174 45.555 98.2012 46.327H135.435V46.3294Z" fill="#F5F5FE"/>
<path d="M52.555 63.7536C52.5904 63.5435 52.3096 63.1162 52.0052 63.1233C51.8848 63.1256 51.7644 63.1563 51.6441 63.1516C51.3208 63.1351 51.1532 62.8848 51.0305 62.677C50.9054 62.4693 50.6576 62.2308 50.3437 62.2851C49.8906 62.3607 49.6617 62.958 49.1472 62.5094C48.8097 62.2166 48.7861 61.8058 48.4038 61.5201C48.1418 61.3242 47.717 61.2085 47.3654 61.3171C46.9076 61.4588 46.7376 61.9121 46.2491 61.9923C45.7087 62.0797 45.3193 61.6689 45.147 61.3714C44.937 61.0125 44.8591 60.623 44.6797 60.257C44.5145 59.917 44.1794 59.4637 43.5823 59.4732C43.0773 59.4826 42.8531 59.8013 42.6053 60.0563C42.282 60.3869 41.6117 61.5744 40.8589 61.4304C40.5662 61.3738 40.4199 61.1424 40.1532 61.0361C39.7284 60.8685 39.1856 61.0999 38.9284 61.3903C38.6712 61.6807 38.5697 62.0301 38.2818 62.304C38.2062 62.3748 38.1166 62.4409 37.9986 62.474C37.595 62.585 37.2174 62.245 36.7832 62.219C36.4834 62.2025 36.2073 62.3418 36.035 62.5141C35.8628 62.6865 35.7684 62.8872 35.6386 63.076C35.6008 63.128 35.5607 63.1823 35.4946 63.2177C35.3034 63.3192 35.0368 63.2342 34.8031 63.1941C34.2273 63.0949 33.5736 63.3594 33.4131 63.756H52.555V63.7536Z" fill="#F5F5FE"/>
<path d="M131.645 133.48H140.252V94.7269H131.645V133.48Z" fill="#DBCDFE"/>
<path d="M131.647 106.619H118.66V133.48H131.647V106.619Z" fill="#DBCDFE"/>
<path d="M148 114.616H135.013V133.48H148V114.616Z" fill="#DBCDFE"/>
<path d="M131.648 94.7257H138.636V92.8322H131.648V94.7257Z" fill="#DBCDFE"/>
<path d="M131.646 92.8308H137.364V90.9373H131.646V92.8308Z" fill="#DBCDFE"/>
<path d="M131.646 90.938H136.151V89.0443H131.646V90.938Z" fill="#DBCDFE"/>
<path d="M97.6724 133.48H106.279V94.727H97.6724V133.48Z" fill="#DBCDFE"/>
<path d="M121.213 133.479H129.82V82.1801H121.213V133.479Z" fill="#DBCDFE"/>
<path d="M80.4624 133.479H97.6738V118.482H80.4624V133.479Z" fill="#DBCDFE"/>
<path d="M101.977 133.479H119.267V76.1264H101.977V133.479Z" fill="#DBCDFE"/>
<path d="M97.6741 94.7258H104.662V92.8323H97.6741V94.7258Z" fill="#DBCDFE"/>
<path d="M97.6733 92.8309H103.392V90.9374H97.6733V92.8309Z" fill="#DBCDFE"/>
<path d="M97.6735 90.938H102.179V89.0443H97.6735V90.938Z" fill="#DBCDFE"/>
<path d="M81.1843 133.48H89.791V94.727H81.1843V133.48Z" fill="#DBCDFE"/>
<path d="M98.397 101.276H89.79V133.478H98.397V101.276Z" fill="#DBCDFE"/>
<path d="M81.1864 86.0339H68.1992V133.478H81.1864V86.0339Z" fill="#DBCDFE"/>
<path d="M81.1868 94.7258H88.1748V92.8323H81.1868V94.7258Z" fill="#DBCDFE"/>
<path d="M81.185 92.8309H86.9033V90.9374H81.185V92.8309Z" fill="#DBCDFE"/>
<path d="M81.1852 90.938H85.6904V89.0443H81.1852V90.938Z" fill="#DBCDFE"/>
<path d="M47.2105 133.48H55.8174L55.8174 94.7269H47.2105L47.2105 133.48Z" fill="#DBCDFE"/>
<path d="M38.604 133.479H47.2109L47.2109 101.278H38.604V133.479Z" fill="#DBCDFE"/>
<path d="M57.8433 133.479H66.4502V95.9014H57.8433L57.8433 133.479Z" fill="#DBCDFE"/>
<path d="M29.9995 133.479H38.6064V114.773H29.9995V133.479Z" fill="#DBCDFE"/>
<path d="M51.5153 133.479H68.8047V105.182H51.5153V133.479Z" fill="#DBCDFE"/>
<path d="M47.2132 94.7257H54.2012V92.8322H47.2132V94.7257Z" fill="#DBCDFE"/>
<path d="M37.9134 127.164H44.9014V125.271H37.9134V127.164Z" fill="#DBCDFE"/>
<path d="M47.2124 92.8308H52.9307V90.9373H47.2124V92.8308Z" fill="#DBCDFE"/>
<path d="M47.2116 90.938H51.7168V89.0443H47.2116V90.938Z" fill="#DBCDFE"/>
<path d="M84.367 106.801H95.6807V104.908H84.367V106.801Z" fill="#DBCDFE"/>
<path d="M84.367 113.589H95.6807V111.695H84.367V113.589Z" fill="#DBCDFE"/>
<path d="M84.367 120.377H95.6807V118.483H84.367V120.377Z" fill="#DBCDFE"/>
<path d="M41.0045 120.377H52.3184V118.483H41.0045V120.377Z" fill="#DBCDFE"/>
<path d="M41.0045 127.164H52.3184V125.271H41.0045V127.164Z" fill="#DBCDFE"/>
<path d="M79.9755 84.9714C77.7334 87.2781 79.7678 92.9185 83.3432 92.1016C87.1854 91.2257 86.6072 85.2359 83.1332 84.2513C81.7785 83.8688 80.6976 84.2277 79.9755 84.9714Z" fill="#9B87FF"/>
<path d="M97.791 92.4085C96.9367 93.2348 95.9479 93.8747 94.7726 94.1438C92.533 94.6561 90.4302 93.6693 88.5635 92.5336C86.5693 91.3201 84.5774 90.09 82.6965 88.7041C81.3513 87.7149 79.9731 86.6619 79.1353 85.1816C78.163 83.4651 78.1063 81.4016 78.3046 79.4869C78.4391 78.1789 77.8302 77.0055 77.5612 75.7566C77.0373 73.3295 77.573 70.4633 79.8362 69.0703C80.9926 68.3596 82.2009 68.4659 83.4163 68.9877C84.3485 69.389 85.217 69.9462 86.1917 70.2224C88.2685 70.8127 90.5223 70.0005 92.5542 69.5803C94.0269 69.2781 95.6387 69.1175 97.0901 69.6039C98.7067 70.1445 99.4761 71.3297 100.359 72.6991C101.114 73.8701 102.259 74.7532 103.169 75.7943C104.392 77.1897 104.762 78.9533 104.352 80.7524C103.748 83.3919 102.23 85.6608 100.913 87.9746C100.073 89.4596 99.089 91.1501 97.791 92.4085Z" fill="#0B2D4E"/>
<path d="M81.1297 117.468C83.8177 113.324 85.491 108.236 83.1546 103.557C82.9186 103.082 82.633 102.565 82.1303 102.398C81.0495 102.039 79.5816 102.424 78.6423 102.976C75.3808 104.891 73.3842 108.494 71.5528 111.7C69.6483 115.031 67.9963 118.497 66.0824 121.822C65.3083 123.167 64.5248 124.532 64.1094 126.031C63.746 127.344 63.7059 128.845 64.2015 130.127C66.3491 135.676 72.2538 128.878 74.0521 126.827C76.6174 123.897 79.0128 120.733 81.1297 117.468Z" fill="#EFB126"/>
<path d="M94.5273 92.3404C94.2394 92.6473 93.9043 92.907 93.5243 93.0959C92.5449 93.5823 91.3697 93.5587 90.3265 93.2376C89.2811 92.9165 88.3418 92.3215 87.4497 91.6911C85.0355 89.9841 82.0477 87.7247 80.6081 85.0992C79.7208 83.482 79.0647 81.5719 79.9119 79.8059C80.6412 78.2878 82.1209 77.1687 83.8153 77.0081C83.9546 76.994 84.1009 76.9892 84.226 77.0483C84.3676 77.1167 84.4596 77.256 84.5422 77.3906C85.1535 78.394 85.6396 79.4872 86.3877 80.4032C87.1996 81.3996 88.2049 82.1433 89.3 82.8091C91.0699 83.8833 93.0146 84.6766 94.6807 85.9091C95.8843 86.7992 95.915 88.8013 95.6224 90.1895C95.4524 90.9828 95.0796 91.7502 94.5273 92.3404Z" fill="#061F33"/>
<path d="M108.04 112.161C108.892 109.051 109.334 105.871 107.403 103.753C106.532 102.797 104.979 102.131 103.71 101.656C101.232 100.733 98.6994 99.4915 96.0491 99.0877C93.2525 98.6628 90.1444 98.4007 87.3572 99.0098C85.5872 99.3947 83.9305 100.11 82.3493 100.88C80.2253 101.914 78.7126 102.608 78.0305 104.733C77.2753 107.091 76.8151 109.514 76.5602 111.948C75.8098 119.076 76.8033 126.22 76.7774 133.35C76.775 134.052 76.7868 134.781 77.1408 135.409C77.8417 136.651 79.7486 136.67 81.1221 136.668C85.6486 136.66 90.1727 136.653 94.6992 136.646C96.5825 136.644 98.0197 136.842 99.7874 137.156C101.274 137.421 102.551 136.771 103.266 135.579C103.941 134.448 103.993 133.128 104.066 131.858C104.347 126.917 105.161 121.996 106.49 117.182C106.867 115.818 107.528 114.035 108.04 112.161Z" fill="#FFC73C"/>
<path d="M97.0922 103.116C98.0504 101.569 98.2675 99.6381 97.012 98.1483C96.4385 97.4683 95.4237 97.3904 94.5552 97.3762C92.8466 97.3456 91.1356 97.5203 89.4718 97.8933C87.8858 98.2498 86.2692 98.8519 85.5825 100.386C85.0727 101.527 85.2497 102.847 85.9223 103.893C86.5336 104.842 87.546 105.543 88.6764 105.8C90.5007 106.218 92.6365 106.161 94.3782 105.46C95.4685 105.021 96.4479 104.155 97.0922 103.116Z" fill="#EFB126"/>
<path d="M79.3165 136.408C81.1384 137.267 83.1302 137.699 85.115 138.032C90.6727 138.962 96.3391 139.156 101.968 138.887C103.171 138.83 104.476 138.71 105.364 137.895C106.024 137.289 106.336 136.396 106.558 135.527C107.313 132.567 107.301 129.471 107.285 126.416C107.273 124.032 107.261 121.647 107.249 119.265C107.245 118.434 107.783 113.384 106.494 113.44C106.355 113.447 106.227 113.518 106.114 113.598C105.472 114.059 105.142 114.826 104.842 115.558C103.9 117.848 103.112 121.515 101.153 123.118C99.0979 124.801 96.7285 125.585 94.2363 126.393C89.9152 127.793 85.0937 128.402 81.4334 131.285C80.8245 131.764 80.2439 132.297 79.6775 132.829C79.1701 133.308 78.4716 133.804 78.1671 134.477C77.6951 135.52 78.4385 135.995 79.3165 136.408Z" fill="#EFB126"/>
<path d="M117.788 119.569C118.475 120.809 119.159 122.051 119.83 123.302C121.191 125.84 123.719 131.476 119.672 132.869C117.633 133.57 116.467 132.885 115.119 131.398C110.022 125.776 105.674 119.477 102.229 112.715C100.947 110.198 97.5418 103.642 101.677 102.143C102.982 101.671 104.487 101.779 105.71 102.438C106.269 102.738 106.765 103.144 107.239 103.566C110.222 106.23 112.348 109.665 114.239 113.147C115.409 115.305 116.604 117.435 117.788 119.569Z" fill="#FFC73C"/>
<path d="M97.173 128.671C97.5294 128.612 97.8857 128.553 98.2421 128.498C99.9791 128.229 101.709 127.91 103.429 127.54C106.837 126.81 110.264 126.182 113.731 125.854C114.099 125.819 114.467 125.788 114.835 125.76C116.39 125.642 118.019 125.601 119.44 126.326C120.86 127.051 121.991 128.77 121.639 130.427C121.394 131.594 120.48 132.472 119.468 132.913C118.455 133.357 117.342 133.435 116.249 133.511C112.709 133.749 109.169 133.99 105.629 134.228C103.875 134.346 102.124 134.467 100.371 134.59C98.6976 134.705 96.9984 134.941 95.3204 134.941C94.6101 134.941 93.8195 134.814 93.2224 134.351C92.394 133.709 91.8984 132.337 91.8182 131.268C91.7781 130.711 91.889 130.035 92.3256 129.691C92.5592 129.506 92.8566 129.45 93.1421 129.398C94.4873 129.152 95.8278 128.897 97.173 128.671Z" fill="#FFC73C"/>
<path d="M83.4643 129.927H66.6777V133.215H83.4643V129.927Z" fill="#9B87FF"/>
<path d="M69.5589 130.246L65.3227 108.669C65.2118 108.1 64.7115 107.687 64.1309 107.687H35.9667C35.5584 107.687 35.2091 107.887 34.9897 108.187L34.9849 108.182L33.6846 109.722L34.8386 109.469L39.0111 130.715C39.122 131.284 39.6223 131.698 40.2029 131.698H68.3671C69.1318 131.695 69.7076 130.996 69.5589 130.246Z" fill="#9B87FF"/>
<path d="M38.9144 133.215H67.0786C67.8433 133.215 68.4191 132.517 68.2704 131.766L64.0342 110.189C63.9233 109.62 63.423 109.207 62.8424 109.207H34.6782C33.9135 109.207 33.3377 109.906 33.4864 110.657L37.7226 132.233C37.8335 132.805 38.3338 133.215 38.9144 133.215Z" fill="#0B2D4E"/>
<path d="M47.7741 120.677C48.0337 122.131 49.4238 123.311 50.8799 123.311C52.3336 123.311 53.287 122.131 53.0062 120.677C52.7254 119.222 51.3353 118.042 49.9005 118.042C48.4656 118.042 47.5145 119.22 47.7741 120.677Z" fill="#9B87FF"/>
<path d="M93.1657 133.955C92.3279 134.127 91.6742 134.864 90.8411 135.109C90.2464 135.284 89.6116 135.192 89.0405 134.977C88.5142 134.781 87.9808 134.675 87.4428 134.502C87.0227 134.368 86.4563 134.084 86.0032 134.179C84.8208 134.424 83.6408 135.267 82.5694 135.815C82.3287 135.938 82.0644 136.065 81.7977 136.013C81.531 135.964 81.3092 135.64 81.4602 135.416C81.1511 135.704 80.7428 136.28 80.2448 136.058C80.0419 135.966 79.9192 135.697 80.0324 135.503C79.8625 135.692 79.6808 135.886 79.4448 135.978C79.2088 136.07 78.8996 136.03 78.7604 135.817C78.6943 135.718 78.6754 135.596 78.6684 135.475C78.6471 135.064 78.7722 134.658 78.9421 134.285C79.787 132.441 81.6962 131.074 83.3222 129.974C83.6102 129.78 83.9028 129.582 84.2332 129.481C84.5306 129.391 84.8444 129.379 85.156 129.379C87.1714 129.37 89.1868 129.695 91.0984 130.34C91.5114 130.479 91.9669 130.361 92.3775 130.283C92.6819 130.227 93.0005 130.17 93.3002 130.257C93.633 130.354 93.8926 130.619 94.0956 130.902C94.4684 131.421 94.754 132.106 94.7091 132.758C94.6761 133.251 94.6383 133.785 94.0554 133.889C93.8194 133.931 93.5764 133.905 93.338 133.929C93.2837 133.933 93.2247 133.943 93.1657 133.955Z" fill="#F8A17A"/>
<path d="M93.5243 104.138C94.7563 103.744 95.7687 102.976 96.1487 101.76C96.4932 100.655 95.9504 99.4135 95.8537 98.2991C95.7616 97.232 95.7498 96.1578 95.8183 95.0859C95.8843 94.0966 95.9787 93.0673 95.8253 92.0804C95.738 91.5161 95.4289 91.6129 94.8601 91.3886C94.2913 91.1643 93.6518 91.162 93.0335 91.1643C91.7661 91.1667 88.4621 91.0746 87.6786 92.189C87.3199 92.699 87.2916 93.3435 87.2727 93.9503C87.2515 94.6845 87.1217 95.636 87.0013 96.6606C86.947 97.1163 86.9801 97.572 86.9116 98.0229C86.8337 98.5305 86.6402 99.0169 86.4727 99.5009C85.8355 101.338 86.4325 103.085 88.4173 103.925C89.8427 104.532 91.8771 104.667 93.5243 104.138Z" fill="#F8A17A"/>
<path d="M95.8187 92.0804C95.7314 91.5161 95.4222 91.6129 94.8535 91.3886C94.2847 91.1643 93.6452 91.162 93.0269 91.1643C91.7596 91.1667 88.4556 91.0746 87.6721 92.189C87.3134 92.699 87.2851 93.3435 87.2662 93.9503C87.2449 94.6846 87.1151 95.6361 86.9948 96.6607C86.9405 97.1164 86.9735 97.5721 86.9051 98.023C86.8461 98.4102 86.7187 98.7833 86.5889 99.1539C87.8184 99.6096 89.2061 99.7111 90.4875 99.3971C92.7956 98.8281 94.5443 97.3903 95.7927 95.5227C95.7998 95.3763 95.8045 95.2323 95.814 95.0859C95.8777 94.0967 95.9721 93.0673 95.8187 92.0804Z" fill="#E5785C"/>
<path d="M97.6596 84.8441C97.6502 83.1513 97.4166 81.5458 96.98 80.2118C95.1014 74.4581 87.927 73.0368 83.6058 77.1662C78.7867 81.7725 80.6322 92.7865 85.7062 96.6537C87.0632 97.6879 88.9064 98.0515 90.556 97.6099C95.5427 96.2713 97.6903 90.1327 97.6596 84.8441Z" fill="#F8A17A"/>
<path d="M96.9793 80.2095C95.1007 74.4558 87.9264 73.0345 83.6052 77.1638C83.06 77.6856 82.6022 78.2924 82.2246 78.9605C82.4795 79.1777 82.7462 79.3642 82.9822 79.5059C84.8017 80.6014 86.7818 81.4301 88.8397 81.9589C89.7247 82.1856 90.6545 82.3745 91.379 82.9293C91.7944 83.248 92.1083 83.6612 92.3608 84.1192C92.6652 84.6693 92.8823 85.2855 93.0877 85.8805C93.5361 87.1861 93.7319 88.5602 93.9137 89.9248C93.9325 90.0665 93.9561 90.2199 94.06 90.3167C94.1591 90.4088 94.3054 90.4277 94.4423 90.4253C95.2376 90.4041 95.6223 89.6415 96.2406 89.2378C96.6135 88.9946 96.9864 88.7467 97.3404 88.4775C97.5622 87.2664 97.666 86.0339 97.659 84.844C97.6495 83.1488 97.4159 81.5434 96.9793 80.2095Z" fill="#E5785C"/>
<path d="M93.173 83.895C93.4043 84.4805 93.5388 85.118 93.6662 85.7366C93.94 87.0894 93.9589 88.4776 93.9612 89.8541C93.9612 89.9957 93.966 90.1516 94.0556 90.2625C94.1406 90.3664 94.2846 90.4065 94.4191 90.4207C95.2097 90.5033 95.6911 89.7974 96.3566 89.4763C97.0481 89.1434 97.7467 88.8082 98.3509 88.3336C100.071 86.9855 99.6772 84.7591 99.6229 82.7806C99.5922 81.6946 99.5615 80.592 99.2429 79.5508C98.896 78.4176 98.2187 77.4047 97.4116 76.5335C95.0846 74.0215 91.5729 72.7159 88.1721 72.9307C86.4895 73.037 84.5897 73.75 83.3908 74.9611C82.3571 76.007 83.6173 77.4283 84.4693 78.1036C86.1331 79.4257 87.9881 80.5047 89.9587 81.2956C90.8059 81.6356 91.7051 81.9425 92.3517 82.587C92.7246 82.9601 92.9818 83.4087 93.173 83.895Z" fill="#0B2D4E"/>
<path d="M96.7176 84.9859C98.9243 83.7794 99.604 86.8369 99.224 88.3573C99.0682 88.9853 98.8181 89.5992 98.4287 90.1162C97.9047 90.8127 96.4014 91.9672 95.5352 91.207C95.1434 90.8623 95.101 90.2744 95.0892 89.7503C95.0585 88.3455 95.2213 85.8028 96.7176 84.9859Z" fill="#F8A17A"/>
<path d="M128.655 120.332C128.966 119.69 128.91 119.014 128.714 118.403C128.525 117.777 128.19 117.239 127.826 116.649C127.458 116.068 127.083 115.435 126.854 114.673C126.621 113.901 126.687 113.036 126.901 112.307C127.364 110.815 128.313 109.717 128.964 108.593C129.292 108.024 129.559 107.446 129.665 106.808C129.783 106.175 129.743 105.5 129.431 104.865C129.969 105.337 130.231 106.102 130.267 106.844C130.3 107.592 130.111 108.352 129.825 109.018C129.259 110.371 128.409 111.471 128.079 112.661C127.893 113.249 127.845 113.82 127.978 114.389C128.088 114.975 128.395 115.565 128.669 116.205C128.962 116.831 129.24 117.553 129.301 118.297C129.368 119.026 129.2 119.853 128.655 120.332Z" fill="white"/>
<path d="M130.921 133.145H126.965C125.745 133.145 124.759 132.156 124.759 130.937V121.151H133.13V130.937C133.13 132.158 132.141 133.145 130.921 133.145Z" fill="#9B87FF"/>
<path d="M133.713 123.864C131.707 123.864 130.078 125.517 130.078 127.552C130.078 129.589 131.704 131.242 133.713 131.242C135.719 131.242 137.347 129.589 137.347 127.552C137.347 125.517 135.721 123.864 133.713 123.864ZM133.713 129.927C132.422 129.927 131.374 128.864 131.374 127.554C131.374 126.244 132.422 125.181 133.713 125.181C135.003 125.181 136.051 126.244 136.051 127.554C136.051 128.864 135.003 129.927 133.713 129.927Z" fill="#9B87FF"/>
<path opacity="0.2" d="M126.01 128.593C125.762 128.593 125.557 128.39 125.557 128.14V122.303C125.557 122.055 125.76 121.85 126.01 121.85C126.258 121.85 126.463 122.053 126.463 122.303V128.142C126.463 128.39 126.26 128.593 126.01 128.593Z" fill="white"/>
<path d="M131.197 121.151V131.025C131.197 132.196 130.249 133.145 129.078 133.145H131.011C132.182 133.145 133.13 132.196 133.13 131.025V121.151H131.197Z" fill="#8070F2"/>
<path d="M79.0292 78.8519C78.0805 76.1958 76.1807 74.0567 77.2734 71.0772C77.9177 69.3206 79.5602 68.1779 81.4246 68.1496C82.3002 68.1354 83.1781 68.355 83.938 68.7918C84.8466 69.3135 85.4366 70.1635 86.4939 70.4468C88.9719 71.115 91.5373 69.2238 93.9067 68.7847C96.2526 68.3479 98.7471 69.1176 99.8941 71.3581C100.347 72.2411 100.538 73.2611 101.133 74.0567C102.127 75.3836 104.059 75.8369 104.845 77.296C106.129 79.6782 103.491 83.1205 102.148 84.9503" stroke="#0B2D4E" stroke-width="15" stroke-miterlimit="10"/>
<path d="M89.5263 95.0578C88.9858 95.0578 88.4407 95.0176 87.8955 94.9374L87.9923 94.2739C89.9747 94.5667 91.95 94.2905 93.7058 93.4759C94.1825 93.254 94.5885 93.0226 94.9425 92.7653C95.5868 92.2978 96.1413 91.6863 96.5449 90.9993L97.1231 91.3369C96.6747 92.1042 96.0564 92.7865 95.3366 93.3059C94.9472 93.5893 94.5059 93.8419 93.989 94.0827C92.5966 94.7272 91.0792 95.0578 89.5263 95.0578Z" fill="#8070F2"/>
<path d="M85.9606 93.7472C86.7677 93.0554 88.5637 93.1145 89.1537 93.8322C89.5926 94.3658 89.4581 95.0434 88.9743 95.492C88.4032 96.0256 87.6952 95.9949 86.9849 95.8343C86.0928 95.6337 84.9883 94.5806 85.9606 93.7472Z" fill="#8070F2"/>
<path d="M85.2598 72.8103L85.55 72.8197L85.6232 72.8221C85.6468 72.8221 85.6728 72.8244 85.6964 72.8244L85.8427 72.8221H85.989H86.0622L86.1353 72.8197L86.4256 72.8055C86.8126 72.7796 87.1973 72.7394 87.5796 72.6851C87.9619 72.6308 88.3466 72.5694 88.7289 72.5033C88.9201 72.4703 89.1113 72.4396 89.3048 72.4089L89.5927 72.364L89.883 72.3239C89.9797 72.3097 90.0765 72.3003 90.1732 72.2861C90.27 72.2743 90.3668 72.2625 90.4659 72.2531L90.7585 72.2271L91.0535 72.2106C91.1031 72.2082 91.1526 72.2035 91.1998 72.2035L91.3485 72.2011L91.4972 72.1988L91.5704 72.1964H91.6435C91.8394 72.1964 92.0376 72.2035 92.2335 72.2177C92.3326 72.2224 92.4318 72.2318 92.5285 72.2413C92.6276 72.2531 92.7244 72.2625 92.8235 72.279C92.9226 72.2932 93.0194 72.3121 93.1185 72.3286L93.2648 72.3593C93.3144 72.3688 93.3616 72.3829 93.4111 72.3947C93.7982 72.4915 94.1781 72.6356 94.5298 72.8362C94.8838 73.0393 95.1977 73.3084 95.4549 73.6248C95.7098 73.9435 95.908 74.3118 96.0071 74.7156C96.0307 74.8171 96.0496 74.9186 96.0614 75.0225C96.0708 75.1264 96.0779 75.2303 96.0732 75.3341C96.0661 75.5443 96.026 75.745 95.9835 75.9362C95.9387 76.1274 95.8915 76.3139 95.8608 76.4957C95.8466 76.5878 95.8349 76.6775 95.8349 76.7696C95.8349 76.7932 95.8325 76.8145 95.8325 76.8381L95.8349 76.9065L95.8372 76.975C95.8396 76.9986 95.8419 77.0199 95.8443 77.0435C95.8632 77.2276 95.9056 77.4094 95.9623 77.5865C96.0213 77.7659 96.0944 77.9407 96.1747 78.113C96.2549 78.2854 96.3446 78.4577 96.4366 78.6277C96.5287 78.7977 96.6231 78.9677 96.7151 79.1424C96.8048 79.3171 96.8898 79.4942 96.9629 79.6783C97.0361 79.8601 97.0998 80.049 97.1446 80.2402C97.1895 80.4315 97.2154 80.6298 97.2107 80.8258C97.206 81.0217 97.1753 81.2177 97.1092 81.4018C97.1588 81.213 97.1753 81.0194 97.1635 80.8281C97.1517 80.6369 97.1163 80.448 97.0597 80.2639C96.9488 79.8955 96.7765 79.5508 96.5806 79.2179C96.3871 78.885 96.1747 78.5569 95.9906 78.2074C95.8986 78.0327 95.816 77.8509 95.7475 77.6621C95.6791 77.4732 95.6272 77.2772 95.5989 77.0742C95.5965 77.0482 95.5918 77.0246 95.5894 76.9986L95.5847 76.9207L95.58 76.8428C95.58 76.8168 95.58 76.7909 95.58 76.7649C95.5776 76.661 95.587 76.5571 95.6012 76.458C95.6272 76.2573 95.6744 76.0637 95.7145 75.8772C95.7546 75.6906 95.7853 75.5065 95.7877 75.3271C95.79 75.2373 95.7829 75.1453 95.7735 75.0555C95.764 74.9658 95.7452 74.8761 95.7216 74.7888C95.6295 74.437 95.4525 74.1064 95.2189 73.8208C94.9853 73.5351 94.6973 73.2919 94.3764 73.1077C94.0531 72.9212 93.7014 72.7867 93.3356 72.6922C93.2908 72.6804 93.2436 72.6686 93.1987 72.6592L93.0595 72.6285C92.9675 72.6119 92.8731 72.5931 92.7787 72.5789C92.6843 72.5624 92.5899 72.5529 92.4955 72.5411C92.4011 72.5317 92.3067 72.5199 92.2099 72.5128C92.0188 72.4963 91.8276 72.4868 91.6364 72.4844L91.5656 72.4821H91.4948H91.3509H91.2069C91.1597 72.4821 91.1102 72.4844 91.063 72.4868L90.775 72.4963L90.4871 72.5151C90.3904 72.5199 90.296 72.5293 90.1992 72.5388C90.1025 72.5482 90.0081 72.5553 89.9113 72.5671C89.5266 72.6049 89.1419 72.6592 88.7573 72.7064C88.3726 72.7536 87.9855 72.8008 87.5961 72.8362L87.3035 72.8598C87.2068 72.8669 87.1076 72.8716 87.0109 72.8764L86.8646 72.8835L86.7182 72.8858L86.5719 72.8882C86.5224 72.8882 86.4752 72.8905 86.4256 72.8882C86.0362 72.8905 85.6468 72.8622 85.2598 72.8103Z" fill="#73B8D4"/>
<path d="M97.6424 84.1145C94.5271 84.9149 93.3211 90.7866 96.7975 91.9553C100.533 93.2113 103.163 87.8 100.71 85.1486C99.757 84.1145 98.6454 83.8571 97.6424 84.1145Z" fill="#9B87FF"/>
<path d="M98.6649 84.8701C96.515 85.2148 95.1887 89.7881 97.4047 91.0465C99.7859 92.3993 102.021 88.3266 100.621 85.9822C100.076 85.0661 99.3588 84.7568 98.6649 84.8701Z" fill="#8070F2"/>
<path d="M99.0996 84.5255L98.2688 84.4287C98.8329 79.5556 98.5922 73.3274 94.2474 71.3394C92.1894 70.3974 90.3109 69.7222 86.9667 70.3809C86.4782 70.3148 86.1006 70.133 86.1006 70.133C89.1261 68.655 92.3735 69.5616 94.5943 70.5769C99.3969 72.7773 99.6966 79.3762 99.0996 84.5255Z" fill="#9B87FF"/>
<path d="M111.314 84.2231H139.719C141.338 84.2231 142.662 82.8986 142.662 81.2789V66.3363C142.662 64.7167 141.338 63.3922 139.719 63.3922H111.314C109.695 63.3922 108.371 64.7167 108.371 66.3363V81.2766C108.371 82.8962 109.695 84.2231 111.314 84.2231Z" fill="#8070F2"/>
<path d="M112.886 89.7052V80.1315L120.379 84.223L112.886 89.7052Z" fill="#8070F2"/>
<path d="M129.661 74.744H114.502C114.002 74.744 113.594 74.3355 113.594 73.835C113.594 73.3345 114.002 72.926 114.502 72.926H129.661C130.161 72.926 130.569 73.3345 130.569 73.835C130.569 74.3355 130.161 74.744 129.661 74.744Z" fill="#E1F4FD"/>
<path d="M136.53 74.744H132.783C132.282 74.744 131.874 74.3355 131.874 73.835C131.874 73.3345 132.282 72.926 132.783 72.926H136.53C137.031 72.926 137.439 73.3345 137.439 73.835C137.439 74.3355 137.031 74.744 136.53 74.744Z" fill="#E1F4FD"/>
<path d="M121.372 68.7988H136.531C137.031 68.7988 137.439 69.2073 137.439 69.7078C137.439 70.2083 137.031 70.6168 136.531 70.6168H121.372C120.872 70.6168 120.464 70.2083 120.464 69.7078C120.464 69.2096 120.872 68.7988 121.372 68.7988Z" fill="#E1F4FD"/>
<path d="M114.502 68.7988H118.25C118.75 68.7988 119.159 69.2073 119.159 69.7078C119.159 70.2083 118.75 70.6168 118.25 70.6168H114.502C114.002 70.6168 113.594 70.2083 113.594 69.7078C113.594 69.2096 114.004 68.7988 114.502 68.7988Z" fill="#E1F4FD"/>
<path d="M124.608 78.5166H114.502C114.002 78.5166 113.594 78.1081 113.594 77.6076C113.594 77.1071 114.002 76.6986 114.502 76.6986H124.608C125.108 76.6986 125.516 77.1071 125.516 77.6076C125.516 78.1081 125.108 78.5166 124.608 78.5166Z" fill="#E1F4FD"/>
</g>
<path d="M177.71 79.9901H182.163V92H185.203V79.9901H189.656V77.4545H177.71V79.9901ZM191.624 92H194.699V86.8438H196.943L199.699 92H203.094L200.004 86.3466C201.659 85.6364 202.575 84.1946 202.575 82.206C202.575 79.3153 200.665 77.4545 197.362 77.4545H191.624V92ZM194.699 84.3722V79.9688H196.773C198.548 79.9688 199.408 80.7571 199.408 82.206C199.408 83.6477 198.548 84.3722 196.787 84.3722H194.699ZM207.256 92L208.335 88.6832H213.584L214.663 92H217.959L212.945 77.4545H208.982L203.96 92H207.256ZM209.116 86.2827L210.906 80.7784H211.02L212.81 86.2827H209.116ZM237.172 82.5469C236.767 79.1875 234.225 77.2557 230.858 77.2557C227.016 77.2557 224.083 79.9688 224.083 84.7273C224.083 89.4716 226.966 92.1989 230.858 92.1989C234.587 92.1989 236.838 89.7202 237.172 87.0426L234.061 87.0284C233.77 88.5838 232.549 89.4787 230.908 89.4787C228.699 89.4787 227.201 87.8381 227.201 84.7273C227.201 81.7017 228.678 79.9759 230.929 79.9759C232.613 79.9759 233.827 80.9489 234.061 82.5469H237.172ZM252.85 76.929C252.85 78.4773 252.716 79.5284 251.437 79.8409V77.4545H248.362V86.6378C248.362 88.2997 247.197 89.5 245.407 89.5C243.625 89.5 242.453 88.2997 242.453 86.6378V77.4545H239.377V86.9006C239.377 90.0824 241.778 92.206 245.407 92.206C249.022 92.206 251.437 90.0824 251.437 86.9006V81.4744C254.001 81.169 254.804 79.5355 254.804 76.929H252.85ZM244.321 76.0483H246.458L248.625 72.8168H245.826L244.321 76.0483ZM265.764 77.4545V86.6378C265.764 88.2997 264.599 89.5 262.81 89.5C261.027 89.5 259.855 88.2997 259.855 86.6378V77.4545H256.78V86.9006C256.78 90.0824 259.18 92.206 262.81 92.206C266.425 92.206 268.839 90.0824 268.839 86.9006V77.4545H265.764Z" fill="#4935D8"/>
<defs>
<clipPath id="clip0">
<rect width="118" height="101" fill="white" transform="translate(30 38)"/>
</clipPath>
</defs>
</svg>
