<svg width="362" height="170" viewBox="0 0 362 170" fill="none" xmlns="http://www.w3.org/2000/svg">
<rect width="362" height="170" fill="#69C0FF"/>
<g clip-path="url(#clip0)">
<path d="M143.584 138.075C137.013 133.062 125.753 120.661 140.574 101.191C158.898 77.0843 136.955 67.2042 115.94 68.2473C99.0344 69.0875 79.987 47.7917 60.9975 51.5873C35.7554 56.5998 52.1396 78.3302 35.0317 90.0357C20.4712 100.032 26.7238 130.454 45.6843 138.075H143.584Z" fill="#DCEDF9"/>
<path d="M155.453 93.8893C155.337 90.3255 152.037 88.9348 149.808 91.5135C148.534 92.9911 147.318 95.1352 147.087 97.9746C146.566 104.349 152.153 102.495 154.237 99.0757C155.134 97.627 155.511 95.6857 155.453 93.8893Z" fill="#DCEDF9"/>
<path d="M94.2003 50.3125C90.6977 49.6461 88.6424 52.6014 90.6687 55.325C91.8556 56.8896 93.6503 58.5411 96.4003 59.3524C102.508 61.2067 101.9 55.3829 99.0056 52.6014C97.7608 51.4135 95.9661 50.6312 94.2003 50.3125Z" fill="#DCEDF9"/>
<path d="M36.1896 83.0241C37.579 79.7501 35.1475 77.0845 32.0501 78.5042C30.2843 79.3155 28.2869 80.7352 26.8685 83.2269C23.7422 88.7899 29.5606 89.4563 32.8896 87.2253C34.3369 86.2982 35.4948 84.7046 36.1896 83.0241Z" fill="#DCEDF9"/>
<path d="M92.1155 143C125.337 143 152.268 141.223 152.268 139.031C152.268 136.838 125.337 135.061 92.1155 135.061C58.8941 135.061 31.9629 136.838 31.9629 139.031C31.9629 141.223 58.8941 143 92.1155 143Z" fill="#DCEDF9"/>
<path d="M150.618 106.522C146.942 110.201 151.053 110.52 148.332 113.302C145.871 115.851 142.224 113.36 142.484 119.56C142.542 120.922 141.558 121.907 140.168 122.429C137.882 123.269 135.682 122.486 134.292 120.922C134.176 120.806 134.061 120.661 133.974 120.516C132.932 119.097 132.555 117.184 133.337 115.272C133.974 113.736 135.074 112.201 137.042 111.592C141.645 110.173 139.097 104.059 142.976 103.798C147.666 103.48 147.84 101.741 151.168 99.4232C154.7 96.9894 155.626 101.538 150.618 106.522Z" fill="#0077EB"/>
<path d="M148.968 104.523C148.853 104.638 140.313 113.447 134.292 120.951C134.176 120.835 134.06 120.69 133.974 120.545C140.024 113.012 148.505 104.262 148.592 104.146C148.679 104.059 148.853 104.059 148.939 104.146C149.084 104.262 149.084 104.407 148.968 104.523Z" fill="#0059D3"/>
<path d="M151.574 118.836C145.813 122.226 150.821 123.935 146.566 126.543C142.687 128.919 138.953 124.659 137.274 132.453C136.897 134.163 135.363 135.09 133.482 135.293C130.384 135.612 127.866 133.931 126.65 131.555C126.563 131.352 126.476 131.179 126.389 130.976C125.55 128.861 125.695 126.34 127.287 124.225C128.56 122.486 130.442 120.951 133.076 120.835C139.271 120.545 138.055 112.114 142.976 113.041C148.91 114.142 149.692 112.056 154.584 110.23C159.708 108.26 159.389 114.229 151.574 118.836Z" fill="#008EFF"/>
<path d="M150.155 115.793C149.981 115.88 136.521 124.109 126.621 131.526C126.534 131.323 126.447 131.15 126.36 130.947C136.289 123.53 149.692 115.359 149.837 115.272C149.981 115.185 150.184 115.243 150.271 115.388C150.358 115.533 150.329 115.707 150.155 115.793Z" fill="#0077EB"/>
<path d="M39.0554 64.4228C41.0238 69.2325 37.1159 67.9576 38.5343 71.5504C39.8369 74.8534 44.1211 73.9552 41.5159 79.5762C40.9369 80.7931 41.458 82.1259 42.558 83.111C44.3238 84.7625 46.6975 84.9074 48.5501 84.0092C48.6948 83.9223 48.8396 83.8643 48.9843 83.7774C50.4896 82.8792 51.5896 81.2277 51.6185 79.1705C51.6475 77.4901 51.2132 75.6647 49.6211 74.3609C45.9159 71.2607 50.6343 66.6248 47.1317 64.8864C42.9343 62.7713 43.4264 61.1198 41.2554 57.7009C38.9685 54.0791 36.3922 57.9037 39.0554 64.4228Z" fill="#0077EB"/>
<path d="M41.3708 63.2061C41.4287 63.3509 45.9156 74.7667 48.5787 84.0383C48.7235 83.9514 48.8682 83.8935 49.0129 83.8065C46.3208 74.5349 41.8919 63.1771 41.834 63.0322C41.7761 62.9163 41.6313 62.8294 41.5156 62.8873C41.3708 62.9453 41.3129 63.0902 41.3708 63.2061Z" fill="#0059D3"/>
<path d="M33.4391 77.0266C37.6075 82.2709 32.3101 82.0681 35.3786 86.0085C38.1575 89.6013 43.1654 86.9647 41.9496 94.8456C41.6891 96.555 42.7891 98.0037 44.497 98.844C47.2759 100.264 50.2286 99.5683 52.2259 97.7719C52.3996 97.6271 52.5444 97.4822 52.6891 97.3084C54.2233 95.6568 54.9759 93.252 54.2812 90.7023C53.7022 88.6451 52.5154 86.53 50.0838 85.458C44.4101 82.9663 48.5496 75.5489 43.6286 74.6507C37.6654 73.5497 37.7233 71.3477 33.7865 67.8998C29.5891 64.2491 27.7654 69.928 33.4391 77.0266Z" fill="#008EFF"/>
<path d="M35.8419 74.6798C35.9577 74.8247 45.5972 87.3125 52.2261 97.801C52.3998 97.6562 52.5446 97.5113 52.6893 97.3375C46.0604 86.8489 36.4788 74.448 36.363 74.3032C36.2472 74.1583 36.0446 74.1293 35.9288 74.2452C35.7551 74.3611 35.7261 74.5639 35.8419 74.6798Z" fill="#0077EB"/>
<path d="M61.5765 72.4775C63.2554 71.3185 67.4818 74.158 69.6818 77.6348L67.7423 72.1588C67.0475 71.5503 65.8028 70.6811 63.8633 69.9857C60.8528 68.9137 57.8423 67.2332 59.5212 66.1032C61.1133 65.0312 64.9054 67.465 67.1923 70.6232L64.6739 63.5825C64.2107 63.2348 63.487 62.8002 62.4739 62.4235C60.5633 61.7571 58.6818 60.6851 59.7528 59.9607C60.6791 59.3233 62.7923 60.5982 64.2397 62.3656L63.4291 60.0766C63.0528 59.4102 62.5318 58.4541 61.6923 57.6138C59.7528 55.6146 58.3054 53.3547 59.7818 53.036C61.287 52.7173 63.7186 56.6287 64.0949 60.1636L64.5002 61.3225C64.1818 58.7438 65.1081 55.6146 66.3818 55.5277C67.6554 55.4118 66.8739 57.44 65.8318 59.1495C65.0502 60.4533 64.8186 61.4964 64.7607 62.0469L66.7291 67.5809C66.237 63.4956 67.6844 58.57 69.7397 58.3961C71.766 58.2223 70.4923 61.4384 68.8423 64.162C67.5975 66.2191 67.2502 67.8706 67.1344 68.7398L69.5081 75.3749C69.0739 71.3475 70.5212 66.4509 72.5476 66.4219C74.1107 66.4219 73.6186 68.595 71.766 71.6952C70.5212 73.8103 70.116 75.6936 69.9712 76.6787L71.1002 79.8079C70.9265 79.9528 70.7239 80.0107 70.5212 80.0107L70.087 78.7648C69.4502 78.1564 68.1475 77.1133 65.9186 76.331C62.9081 75.288 59.8975 73.6075 61.5765 72.4775Z" fill="#008EFF"/>
<path d="M46.7842 118.894C45.0474 119.966 46.0026 124.978 48.2895 128.368L44.0342 124.399C43.7447 123.501 43.4553 122.023 43.6 119.966C43.8316 116.779 43.4842 113.331 41.7474 114.432C40.1263 115.446 40.85 119.908 42.8474 123.269L37.4053 118.169C37.2605 117.59 37.1447 116.779 37.2026 115.707C37.3474 113.707 37.1158 111.534 36.0447 112.23C35.0895 112.838 35.4079 115.272 36.4789 117.329L34.7131 115.678C34.25 115.069 33.5842 114.2 33.15 113.099C32.0789 110.52 30.6026 108.289 29.7053 109.535C28.8079 110.781 31.4421 114.577 34.5395 116.344L35.4368 117.184C33.2079 115.851 29.9658 115.475 29.3579 116.605C28.75 117.735 30.921 117.793 32.9184 117.532C34.4237 117.329 35.4658 117.532 35.9868 117.706L40.271 121.733C36.7395 119.647 31.6447 119.039 30.6605 120.835C29.7053 122.631 33.15 122.747 36.3053 122.313C38.7079 121.994 40.3289 122.313 41.1684 122.573L46.321 127.383C42.7895 125.384 37.7237 124.775 36.9131 126.601C36.2763 128.021 38.4763 128.455 42.0658 127.992C44.4974 127.673 46.3789 128.049 47.3342 128.339L49.7658 130.599C49.9684 130.483 50.1131 130.338 50.171 130.165L49.2158 129.266C48.8974 128.455 48.4921 126.833 48.6368 124.457C48.8395 121.241 48.521 117.793 46.7842 118.894Z" fill="#008EFF"/>
<path d="M133.858 74.1H41.7764V137.756H133.858V74.1Z" fill="#FFAA01"/>
<path d="M133.858 74.1V78.1853L87.8316 119.039L41.7764 78.1853V74.1L87.8027 115.098L133.858 74.1Z" fill="#F88800"/>
<path d="M78.9448 107.043L44.4395 137.756H41.7764V136.133L76.9764 104.812L78.9448 107.043Z" fill="#F88800"/>
<path d="M133.858 136.365V137.756H130.934L96.458 107.043L98.4264 104.812L133.858 136.365Z" fill="#F88800"/>
<path d="M41.7764 74.1L87.8027 115.098L133.858 74.1H41.7764Z" fill="#FDCC50"/>
<path d="M108.442 68.3629L109.629 70.8837L107.14 70.9126L106.185 68.6237L108.442 68.3629Z" fill="#F9AF8B"/>
<path d="M108.848 70.7388C108.848 70.7388 109.369 70.0434 109.774 70.0724C110.18 70.1014 113.306 72.5931 114.377 72.796C115.448 72.9988 115.361 74.0998 114.898 74.0998C113.596 74.0998 106.474 74.0998 106.474 74.0998C106.474 74.0998 106.272 71.5501 106.532 70.7968C106.793 70.0434 108.009 70.9127 108.848 70.7388Z" fill="#008EFF"/>
<path d="M110.585 72.4772C110.556 72.4772 110.499 72.4772 110.47 72.4772C110.412 72.4482 110.383 72.3323 110.412 72.2744C110.412 72.2454 110.759 71.6949 111.193 71.4631C111.772 71.1733 112.235 71.4921 112.264 71.521C112.322 71.579 112.351 71.6659 112.293 71.7239C112.235 71.7818 112.149 71.8108 112.091 71.7528C112.091 71.7528 111.772 71.521 111.338 71.7239C110.991 71.8977 110.672 72.4192 110.672 72.4192C110.643 72.4192 110.614 72.4482 110.585 72.4772Z" fill="white"/>
<path d="M110.123 72.0426C110.094 72.0426 110.036 72.0426 110.007 72.0426C109.949 72.0136 109.92 71.8977 109.949 71.8398C109.949 71.8108 110.296 71.2603 110.73 71.0285C111.309 70.7388 111.773 71.0575 111.801 71.0865C111.859 71.1444 111.888 71.2313 111.83 71.2893C111.773 71.3472 111.686 71.3762 111.628 71.3183C111.628 71.3183 111.309 71.0865 110.875 71.2893C110.528 71.4631 110.209 71.9847 110.209 71.9847C110.209 72.0136 110.151 72.0426 110.123 72.0426Z" fill="white"/>
<path d="M111.194 72.7958C111.165 72.7958 111.107 72.7958 111.078 72.7958C111.02 72.7668 110.991 72.6509 111.02 72.593C111.02 72.564 111.368 72.0135 111.802 71.7817C112.381 71.492 112.844 71.8107 112.873 71.8396C112.931 71.8976 112.96 71.9845 112.902 72.0425C112.844 72.1004 112.757 72.1294 112.699 72.0714C112.699 72.0714 112.381 71.8396 111.946 72.0425C111.599 72.2163 111.281 72.7378 111.281 72.7378C111.252 72.7668 111.223 72.7958 111.194 72.7958Z" fill="white"/>
<path d="M109.166 69.2033L108.066 69.5509L107.458 69.5799L106.416 69.6379C105.027 68.5368 101.292 65.2338 100.54 63.2636C100.54 63.2636 95.7056 74.4765 89.0477 74.4765C88.6135 74.4765 89.7714 68.8845 90.8424 67.7256C90.8424 67.7256 96.9793 56.2519 100.974 57.4688C102.74 58.0773 104.563 60.6559 109.166 69.2033Z" fill="#2E3052"/>
<path d="M108.066 69.5508L107.458 69.5798C103.376 66.4796 101.466 63.8429 100.597 62.1624C100.568 62.1045 100.511 62.0755 100.482 62.0755C100.453 62.0755 100.424 62.1045 100.424 62.1335C98.4552 66.7403 96.1105 69.5218 94.4895 71.0285C92.7237 72.68 91.421 73.2305 91.3631 73.2305L91.2763 73.0566L91.1895 72.8828C91.1895 72.8828 92.4921 72.3323 94.2 70.7387C95.7921 69.2611 98.1079 66.5375 100.018 61.9886C100.105 61.8147 100.25 61.6989 100.424 61.6989C100.626 61.6989 100.8 61.8147 100.887 61.9886C101.813 63.6981 103.782 66.3637 108.066 69.5508Z" fill="#001030"/>
<path d="M105.287 68.8845C105.461 69.2032 105.75 69.6668 106.04 69.8986C106.04 69.8986 108.384 69.7827 109.542 69.2032L109.021 68.0153C109.05 68.0153 107.169 68.7106 105.287 68.8845Z" fill="#524E84"/>
<path d="M108.385 52.8041C105.027 54.1658 102.364 54.8612 100.077 55.1509C100.048 55.1509 99.4981 55.2089 99.2955 55.1799C98.6876 55.1509 97.8481 55.0061 97.0086 54.6294C96.4007 54.3397 95.5613 53.6153 94.6639 52.7751C93.5639 51.703 92.377 50.4282 91.5665 49.501C90.9297 48.7767 90.5244 48.2841 90.5244 48.2841C91.0744 47.4439 92.3192 46.6905 93.3902 46.2849C93.3902 46.2849 95.6481 50.0226 99.0349 51.8769C99.2086 51.9638 99.4113 52.0797 99.6139 52.1666C100.395 52.0507 102.48 51.9348 103.406 51.8769C105.867 51.703 107.893 51.2684 107.893 51.2684L108.385 52.8041Z" fill="#0077EB"/>
<path d="M107.807 51.1234C107.807 51.1234 108.27 49.9354 108.907 49.6167C109.543 49.269 111.338 48.1101 111.743 48.4578C112.12 48.8054 112.062 50.5149 110.441 51.9346C109.399 52.8328 108.386 52.8038 108.386 52.8038L107.807 51.1234Z" fill="#F9AF8B"/>
<path d="M111.83 49.5298L109.167 52.0216C109.08 52.1085 108.877 52.1375 108.762 52.0795L107.14 51.2972C107.083 51.2683 107.054 51.2393 107.054 51.2103L106.967 50.9495L107.401 50.7757L111.598 49.1821L111.83 49.0952L111.917 49.385V49.4139C111.917 49.4429 111.888 49.5008 111.83 49.5298Z" fill="#001030"/>
<path d="M111.569 49.1534L107.372 50.7469L109.746 48.516C109.833 48.429 110.035 48.4001 110.151 48.458L111.569 49.1534Z" fill="#1F2232"/>
<path d="M108.675 51.8189L107.054 51.0366C106.938 50.9786 106.909 50.8627 107.025 50.7468L109.688 48.2551C109.775 48.1682 109.978 48.1392 110.093 48.1971L111.714 48.9794C111.83 49.0374 111.859 49.1533 111.743 49.2692L109.08 51.7609C108.993 51.8479 108.82 51.8768 108.675 51.8189Z" fill="#2E3052"/>
<path d="M108.877 51.3554L107.604 50.7469C107.488 50.689 107.459 50.5731 107.575 50.4572L109.659 48.516C109.746 48.429 109.948 48.4001 110.064 48.458L111.338 49.0665C111.454 49.1244 111.483 49.2403 111.367 49.3562L109.283 51.2975C109.196 51.3844 108.993 51.4133 108.877 51.3554Z" fill="#2E3052"/>
<path d="M108.848 49.0374C108.848 49.0374 109.225 49.0954 109.254 49.4141C109.283 49.7328 108.935 49.6169 108.704 49.53C108.472 49.472 108.269 49.53 108.24 49.559C108.154 49.6749 108.183 48.9215 108.848 49.0374Z" fill="#F9AF8B"/>
<path d="M110.557 50.8048C110.557 50.8048 111.165 49.8197 111.599 49.2981C111.917 48.9504 112.062 49.472 111.859 49.8197C111.628 50.1674 111.222 50.8917 110.557 50.8048Z" fill="#F9AF8B"/>
<path d="M82.7954 68.4501L81.4638 59.9318L81.377 59.4392V59.0626L81.6664 47.0094L85.0243 45.8794L85.198 45.8215L85.9506 45.5607L86.5585 45.3579L90.0901 45.8505L90.6691 45.9374L90.8717 45.9664L93.3901 46.3141C93.4191 54.3109 92.6375 56.0493 94.1138 62.5395C94.8954 64.9733 92.1454 73.6655 82.7954 68.4501Z" fill="#008EFF"/>
<path d="M84.6769 66.2771C87.3111 65.5238 89.2505 63.6985 90.4084 62.3077C91.6532 60.8011 92.29 59.4393 92.29 59.4103C92.319 59.3524 92.29 59.2654 92.2321 59.2365C92.1742 59.2075 92.0874 59.2365 92.0584 59.2944C92.0584 59.2944 91.4216 60.6562 90.2058 62.1339C89.0769 63.4956 87.1953 65.292 84.619 66.0164C84.5611 66.0453 84.5032 66.1033 84.5321 66.1902C84.5321 66.2482 84.619 66.3061 84.6769 66.2771Z" fill="#0077EB"/>
<path d="M87.6876 66.422C89.9744 65.7845 91.9139 63.8433 92.0007 63.7564C92.0586 63.6984 92.0586 63.6115 92.0007 63.5825C91.9428 63.5246 91.856 63.5246 91.827 63.5825C91.7981 63.6115 89.5402 65.9004 87.0797 66.3061C86.9928 66.3061 86.9639 66.393 86.9639 66.4509C86.9639 66.5089 87.0507 66.5668 87.1086 66.5668C87.2823 66.5089 87.4849 66.4799 87.6876 66.422Z" fill="#0077EB"/>
<path d="M86.0665 49.4144C88.3533 48.777 90.2928 46.8357 90.3796 46.7488C90.4375 46.6909 90.4375 46.6039 90.3796 46.575C90.3217 46.517 90.2349 46.517 90.2059 46.575C90.177 46.6039 87.9191 48.8929 85.4586 49.2985C85.3717 49.2985 85.3428 49.3854 85.3428 49.4434C85.3428 49.5013 85.4296 49.5593 85.4875 49.5593C85.6612 49.5013 85.8638 49.4723 86.0665 49.4144Z" fill="#0077EB"/>
<path d="M106.213 90.4991L107.139 92.5563L105.229 93.3676L104.129 91.2525L106.213 90.4991Z" fill="#F9AF8B"/>
<path d="M106.705 92.5271C106.705 92.5271 106.908 91.6869 107.284 91.571C107.661 91.4261 111.54 92.4692 112.582 92.2374C113.653 92.0056 113.769 92.8169 113.74 93.2515C113.711 93.6861 105.837 96.5255 105.837 96.5255C105.837 96.5255 104.621 94.3235 104.592 93.5412C104.563 92.701 106.011 93.0197 106.705 92.5271Z" fill="#008EFF"/>
<path d="M108.992 93.425C108.963 93.454 108.934 93.454 108.876 93.454C108.789 93.454 108.731 93.3671 108.731 93.2801C108.731 93.2512 108.818 92.6137 109.137 92.2081C109.542 91.7155 110.092 91.8314 110.121 91.8314C110.208 91.8604 110.266 91.9184 110.237 92.0053C110.208 92.0922 110.15 92.1502 110.063 92.1212C110.034 92.1212 109.658 92.0343 109.368 92.4109C109.108 92.7296 109.05 93.3091 109.05 93.3091C109.05 93.3671 109.021 93.396 108.992 93.425Z" fill="white"/>
<path d="M108.413 93.2224C108.384 93.2514 108.355 93.2514 108.297 93.2514C108.21 93.2514 108.152 93.1644 108.152 93.0775C108.152 93.0485 108.239 92.4111 108.558 92.0055C108.963 91.5129 109.513 91.6288 109.542 91.6288C109.629 91.6578 109.687 91.7157 109.658 91.8027C109.629 91.8896 109.571 91.9475 109.484 91.9186C109.455 91.9186 109.079 91.8316 108.789 92.2083C108.529 92.527 108.471 93.1065 108.471 93.1065C108.471 93.1644 108.442 93.1934 108.413 93.2224Z" fill="white"/>
<path d="M109.686 93.4833C109.657 93.5122 109.628 93.5122 109.571 93.5122C109.484 93.5122 109.426 93.4253 109.426 93.3384C109.426 93.3094 109.513 92.672 109.831 92.2663C110.236 91.7738 110.786 91.8897 110.815 91.8897C110.902 91.9186 110.96 91.9766 110.931 92.0635C110.902 92.1504 110.844 92.2084 110.757 92.1794C110.728 92.1794 110.352 92.0925 110.063 92.4692C109.802 92.7879 109.744 93.3674 109.744 93.3674C109.744 93.4253 109.715 93.4833 109.686 93.4833Z" fill="white"/>
<path d="M106.677 90.9048C106.474 91.1366 105.866 91.4553 105.2 91.774C105.084 91.832 104.969 91.8899 104.824 91.9189C104.621 92.0058 104.39 92.0927 104.187 92.1507C104.187 92.1507 99.7003 83.8641 97.9634 77.8375C97.9634 77.8375 82.7371 75.9542 82.216 70.623C82.1871 70.4492 82.1871 70.2753 82.216 70.0725C82.2739 69.551 82.4476 69.0295 82.766 68.45C83.1134 67.8415 88.3239 68.421 91.1318 69.2323C91.1318 69.2323 98.7739 72.2166 101.582 75.2878C103.058 76.8235 106.677 90.9048 106.677 90.9048Z" fill="#2E3052"/>
<path d="M105.23 91.774C105.114 91.832 104.998 91.8899 104.853 91.9189C102.566 88.1523 99.4111 79.3442 98.7164 77.2291C98.6585 77.0842 98.5427 76.9684 98.398 76.9394C90.9875 75.5486 86.7322 73.6074 84.4743 72.2166C83.4611 71.6082 82.7664 71.0577 82.2453 70.5941C82.2164 70.4202 82.2164 70.2464 82.2453 70.0436C82.7374 70.5072 83.519 71.1736 84.7059 71.8979C86.9638 73.2597 91.1611 75.172 98.4559 76.5337C98.7453 76.5917 98.9769 76.7945 99.0638 77.0842C99.7875 79.2283 102.972 88.0654 105.23 91.774Z" fill="#001030"/>
<path d="M103.405 91.2815L104.129 92.4405C104.129 92.4405 105.924 92.1217 107.139 90.9048L106.705 89.8907C106.676 89.8907 104.505 90.9628 103.405 91.2815Z" fill="#524E84"/>
<path d="M79.177 71.6083C79.177 71.6083 80.2191 73.0281 80.1322 73.7524C80.0454 74.4768 79.1191 75.8385 78.3664 75.9254C77.6138 75.9834 79.2349 74.158 78.8585 74.216C78.3954 74.2739 75.298 76.8526 74.6322 76.8526C73.9664 76.8526 75.4138 75.6647 75.9638 75.3749C75.9638 75.3749 74.4875 76.0413 74.1401 76.389C73.7928 76.7367 73.5612 75.9834 75.2691 74.9693C75.2691 74.9693 73.7059 75.8675 73.5901 75.8675C73.2428 75.9255 74.227 74.7375 75.0954 74.3319C75.0954 74.3319 73.8507 74.9403 73.7059 74.9403C73.5322 74.9403 73.9086 74.5347 74.8349 74.0132C75.6743 73.5496 77.0638 71.4055 77.0638 71.4055L79.177 71.6083Z" fill="#F9AF8B"/>
<path d="M81.6957 46.9803C81.6957 46.9803 78.222 53.6733 77.4115 60.685L77.0352 71.3474C77.0352 71.3474 77.3825 72.1008 79.1773 71.6082L80.8852 60.9748L82.1878 56.1071C82.2167 56.1071 82.8246 50.1095 81.6957 46.9803Z" fill="#0077EB"/>
<path d="M92.3039 40.1674C92.9071 38.1266 91.7433 35.9827 89.7044 35.379C87.6655 34.7752 85.5236 35.9401 84.9204 37.9809C84.3171 40.0216 85.481 42.1655 87.5199 42.7693C89.5588 43.3731 91.7007 42.2081 92.3039 40.1674Z" fill="#2E3052"/>
<path d="M92.4638 39.0415C92.4638 39.0415 93.5927 38.9256 93.6217 37.8536C93.6506 36.9554 92.5217 37.3321 92.7243 36.6657C92.9269 35.9993 93.2453 35.3908 92.3769 35.0721C91.6243 34.7824 91.5085 35.3039 90.6111 34.3478C89.569 33.2178 88.2374 35.188 87.1374 35.0431C85.5164 34.8403 85.169 35.7385 84.8795 36.4339C84.5901 37.1293 85.1111 37.7377 85.1111 37.7377L92.4638 39.0415Z" fill="#2E3052"/>
<path d="M91.5955 40.6931C91.5955 40.6931 92.3482 39.9977 92.6666 40.751C92.985 41.5044 92.0298 43.3297 91.0166 42.6633L91.5955 40.6931Z" fill="#FC8664"/>
<path d="M91.3349 42.084C91.3638 42.084 91.4217 42.084 91.4217 42.026C91.7112 41.4466 92.377 41.3307 92.377 41.3017C92.4349 41.3017 92.4638 41.2437 92.4638 41.1858C92.4638 41.1279 92.4059 41.0989 92.3481 41.0989C92.3191 41.0989 91.5665 41.2437 91.248 41.9101C91.248 41.9971 91.277 42.055 91.3349 42.084Z" fill="#FD664D"/>
<path d="M92.0298 41.9101C92.0588 41.9101 92.0588 41.9101 92.0877 41.9101C92.1456 41.8811 92.1456 41.8232 92.1456 41.7942C92.1456 41.7942 92.0588 41.5914 91.8561 41.4465C91.8272 41.4175 91.7693 41.4175 91.7114 41.4755C91.6824 41.5045 91.6825 41.5624 91.7403 41.6204C91.914 41.7363 91.9719 41.8811 91.9719 41.8811C91.9719 41.8811 92.0009 41.9101 92.0298 41.9101Z" fill="#FD664D"/>
<path d="M86.5876 43.5906L86.2402 45.5318C86.2402 45.5318 86.8771 46.5459 87.6587 46.7487C88.4402 46.9516 89.0771 46.1113 89.0771 46.1113L89.3955 44.228L86.5876 43.5906Z" fill="#F9AF8B"/>
<path d="M86.5881 43.5906L86.4434 44.4598C86.8776 45.1262 87.7749 45.4449 89.1934 45.5029L89.4249 44.257L86.5881 43.5906Z" fill="#FC8664"/>
<path d="M85.4009 38.2303C85.314 38.9836 85.1982 39.9397 85.2272 40.722C85.2272 40.9248 85.2272 41.0987 85.2561 41.2725C85.4009 42.7792 86.0088 45.4158 89.0482 44.8943C90.4088 44.6625 91.2193 43.3587 91.7403 41.9679C92.0877 41.0118 92.2903 40.0556 92.4061 39.3313C92.5219 38.6069 92.2325 37.8826 91.6824 37.419C90.1482 36.1731 88.2956 36.2021 87.0509 36.4339C86.1824 36.6367 85.5167 37.3321 85.4009 38.2303Z" fill="#F9AF8B"/>
<path d="M90.0902 40.693C90.0613 40.8958 90.1192 41.0987 90.2639 41.0987C90.4087 41.1276 90.5245 40.9828 90.5823 40.751C90.6113 40.5482 90.5534 40.3453 90.4087 40.3453C90.2639 40.3453 90.1481 40.4902 90.0902 40.693Z" fill="#2E3052"/>
<path d="M87.3109 40.2005C87.282 40.4033 87.3399 40.6061 87.4846 40.6061C87.6294 40.6351 87.7452 40.4902 87.8031 40.2584C87.832 40.0556 87.7741 39.8528 87.6294 39.8528C87.4846 39.8528 87.3399 39.9977 87.3109 40.2005Z" fill="#2E3052"/>
<path d="M91.3062 39.7081C91.3062 39.7081 90.3799 39.1286 89.5693 39.3314V39.7081C89.5693 39.7081 90.4378 39.6791 91.1904 40.1137C91.2772 39.9688 91.3641 39.9109 91.3062 39.7081Z" fill="#2E3052"/>
<path d="M86.7617 38.8965C86.7617 38.8965 87.8327 38.6647 88.5275 39.1573L88.4117 39.505C88.4117 39.505 87.6012 39.1863 86.7617 39.3311C86.7327 39.1573 86.6748 39.0704 86.7617 38.8965Z" fill="#2E3052"/>
<path d="M88.4982 41.9389C88.3535 41.9099 88.2087 41.823 88.1798 41.823C88.1219 41.794 88.1219 41.7361 88.1508 41.7071C88.1798 41.6492 88.2377 41.6492 88.2666 41.6782C88.3535 41.7361 88.5272 41.823 88.643 41.7651C88.6719 41.7651 88.7009 41.7361 88.7009 41.6782C88.7877 41.3594 88.9035 40.2584 88.9035 40.2584C88.9035 40.2005 88.9614 40.1715 89.0193 40.1715C89.0772 40.1715 89.1061 40.2295 89.1061 40.2874C89.1061 40.3454 88.9903 41.4174 88.9035 41.7361C88.8745 41.852 88.7877 41.9099 88.7298 41.9389C88.643 41.9389 88.5851 41.9389 88.4982 41.9389Z" fill="#FC8664"/>
<path d="M89.5693 42.7212C89.4246 43.0978 89.0483 43.7353 88.2088 43.5904C87.3693 43.4455 87.2246 42.7502 87.2246 42.3156L89.5693 42.7212Z" fill="white"/>
<path d="M88.1512 44.0829C87.9197 44.0539 87.717 43.8801 87.717 43.8801C87.6881 43.8511 87.6881 43.7932 87.717 43.7352C87.746 43.7063 87.8039 43.7063 87.8618 43.7352C87.8618 43.7352 88.0065 43.8511 88.2091 43.9091C88.3828 43.938 88.5565 43.8801 88.5565 43.8801C88.6144 43.8511 88.6723 43.8801 88.6723 43.938C88.7012 43.996 88.6723 44.0539 88.6144 44.0539C88.5855 44.025 88.3539 44.1119 88.1512 44.0829Z" fill="#FC8664"/>
<path d="M91.567 41.3306C91.7117 40.954 91.8565 40.4904 91.8565 40.2296C91.8565 39.766 91.5091 39.4473 91.7117 39.0417C91.9144 38.6361 91.538 38.0856 91.2196 37.9407C90.9012 37.7958 90.0907 37.8248 89.367 37.3322C88.7012 36.8397 87.3696 36.8686 87.0802 37.3033C86.7328 37.8248 87.0512 37.9407 86.2696 38.4332C85.9512 38.6361 86.1539 39.3314 86.1249 39.766C86.1249 39.9689 86.096 40.0558 86.067 40.2586L86.0381 40.3745L85.2275 40.2296C85.2565 39.5632 85.3144 38.8389 85.4012 38.2594C85.517 37.3902 86.1828 36.6658 87.0512 36.492C88.2959 36.2602 90.1486 36.2022 91.6828 37.4771C92.2328 37.9407 92.5223 38.665 92.4065 39.3894C92.3196 39.9399 92.1749 40.6932 91.9433 41.4465L91.567 41.3306Z" fill="#2E3052"/>
<path d="M85.5462 40.6352C85.5752 40.4324 85.6041 40.2006 85.6041 39.9688C85.6041 39.6791 85.5752 39.3894 85.2857 39.2155C85.0541 39.0706 84.8225 39.0417 84.5909 39.2735C84.0409 39.8529 84.1567 41.997 85.3436 41.7362L85.5462 40.6352Z" fill="#F9AF8B"/>
<path d="M85.2277 41.0987C85.1987 41.0697 85.1698 41.0407 85.1698 41.0118C85.2277 40.3743 84.7356 39.9107 84.7356 39.9107C84.7066 39.8818 84.7066 39.8238 84.7356 39.7659C84.7645 39.7369 84.8224 39.7369 84.8803 39.7659C84.9093 39.7948 85.4593 40.2874 85.3724 41.0407C85.3435 41.0697 85.3145 41.0987 85.2277 41.0987Z" fill="#FC8664"/>
<path d="M84.7355 40.5773C84.7065 40.5773 84.7065 40.5483 84.7065 40.5483C84.6776 40.5193 84.6776 40.4614 84.7355 40.4034C84.7355 40.4034 84.9091 40.2875 85.1697 40.2585C85.2276 40.2585 85.2565 40.2875 85.2565 40.3455C85.2565 40.4034 85.2276 40.4324 85.1697 40.4324C84.967 40.4324 84.8513 40.5193 84.8513 40.5193C84.7934 40.5773 84.7644 40.5773 84.7355 40.5773Z" fill="#FC8664"/>
<path d="M66.9039 118.807H43.9775C44.3539 116.518 46.1775 114.837 48.3196 114.837L55.4407 114.866L62.5618 114.837C64.7039 114.837 66.5275 116.489 66.9039 118.807Z" fill="white"/>
<path d="M47.0465 118.459H45.8018V139.842H47.0465V118.459Z" fill="white"/>
<path d="M65.109 118.459H63.8643V139.842H65.109V118.459Z" fill="white"/>
<path d="M63.8653 124.457H47.0469V125.674H63.8653V124.457Z" fill="#DCEDF9"/>
<path d="M49.8244 90.0067C49.8244 90.0067 46.0033 95.1061 45.4823 99.5681C45.1349 102.726 49.8244 107.42 49.8244 107.42L51.4454 106.609L49.8244 102.958C49.2454 101.191 48.5507 100.495 49.0717 98.6989L50.2296 96.1782L49.8244 90.0067Z" fill="#0077EB"/>
<path d="M61.8948 89.9487C61.8948 89.9487 65.658 95.3958 65.9764 99.8578C66.2369 103.711 61.6343 107.42 61.6343 107.42L60.3027 106.754L62.1554 103.074C62.7343 101.307 62.9948 100.234 62.2133 98.2932L61.229 96.1781L61.8948 89.9487Z" fill="#0077EB"/>
<path d="M50.606 101.654L48.0586 109.738C48.0586 109.738 59.0297 111.129 62.3875 110.23L60.6797 101.422L61.8665 89.9487C60.2165 89.2533 58.4797 88.8187 56.7139 88.6739C54.1086 88.5 52.4875 88.9057 49.8244 90.0067L50.606 101.654Z" fill="#008EFF"/>
<path d="M53.3558 92.4404C55.7874 92.1506 58.0453 90.4991 58.1321 90.4122C58.19 90.3543 58.19 90.2963 58.1611 90.2094C58.1032 90.1514 58.0453 90.1514 57.9584 90.1804C57.9295 90.2094 55.2663 92.1506 52.719 92.1796C52.6321 92.1796 52.5742 92.2376 52.5742 92.3245C52.5742 92.4114 52.6321 92.4694 52.719 92.4694C52.9505 92.4983 53.1532 92.4694 53.3558 92.4404Z" fill="#0077EB"/>
<path d="M55.2959 135.727L55.4985 137.524L57.4091 137.553L57.5538 136.075L55.2959 135.727Z" fill="#F9AF8B"/>
<path d="M55.0061 107.449C55.0061 107.449 50.085 107.188 48.435 108.55C46.785 109.912 47.1035 113.823 48.8114 114.895C50.5192 115.967 53.385 118.053 53.385 118.053L55.2087 136.336L57.6403 136.423C57.6403 136.423 59.8692 118.082 58.7403 114.518C57.6114 110.926 55.0061 107.449 55.0061 107.449Z" fill="#001030"/>
<path d="M57.8721 135.496C58.0169 135.93 57.93 136.336 57.8142 136.742L55.0353 136.684C54.9484 136.278 54.9195 135.872 54.9774 135.467L57.8721 135.496Z" fill="#2E3052"/>
<path d="M61.9534 107.304H49.0718L47.885 100.35C47.7692 99.7419 48.2324 99.1914 48.8692 99.1914H62.185C62.7929 99.1914 63.256 99.7419 63.1692 100.35L61.9534 107.304Z" fill="white"/>
<path d="M60.9117 108.84H50.1144C49.5354 108.84 49.0723 108.376 49.0723 107.797V107.304H61.9538V107.768C61.9828 108.347 61.4907 108.84 60.9117 108.84Z" fill="#DCEDF9"/>
<path d="M56.6563 103.537C56.6563 104.146 56.1642 104.667 55.5274 104.667C54.9195 104.667 54.3984 104.175 54.3984 103.537C54.3984 102.929 54.8905 102.407 55.5274 102.407C56.1642 102.407 56.6563 102.929 56.6563 103.537Z" fill="#DCEDF9"/>
<path d="M47.248 130.715L46.8428 132.482L48.5507 132.801L49.2454 131.236L47.248 130.715Z" fill="#F9AF8B"/>
<path d="M57.495 107.159C57.495 107.159 54.195 106.029 52.2845 108.405C50.3739 110.781 47.1318 130.889 47.1318 130.889L49.3318 131.816L56.4529 113.968C56.4529 113.968 62.2424 117.271 62.9371 112.577C63.516 108.84 57.495 107.159 57.495 107.159Z" fill="#2E3052"/>
<path d="M49.8532 130.889C49.8532 131.352 49.6505 131.729 49.39 132.106L46.6689 131.15C46.6979 130.715 46.8137 130.309 47.0163 129.933L49.8532 130.889Z" fill="#524E84"/>
<path d="M48.1453 132.193C48.1453 132.193 47.1032 131.671 46.8138 131.613C46.5243 131.555 44.0059 133.323 43.2822 133.323C42.0085 133.294 41.5743 135.177 42.3269 135.438C44.4401 136.191 48.348 136.104 48.348 136.104C48.348 136.104 49.2164 133.757 49.2453 132.946C49.2453 132.135 48.6953 132.54 48.1453 132.193Z" fill="#008EFF"/>
<path d="M45.8881 133.873C45.9171 133.902 45.975 133.902 46.0039 133.873C46.0908 133.844 46.1197 133.758 46.0908 133.671C46.0908 133.642 45.8302 133.033 45.396 132.743C44.846 132.367 44.325 132.628 44.296 132.628C44.2092 132.657 44.1802 132.772 44.2381 132.83C44.2671 132.917 44.3829 132.917 44.4408 132.888C44.4408 132.888 44.8171 132.715 45.1934 132.975C45.5408 133.207 45.7723 133.758 45.7723 133.758C45.8302 133.816 45.8592 133.844 45.8881 133.873Z" fill="white"/>
<path d="M46.4096 133.497C46.4386 133.526 46.4965 133.526 46.5254 133.497C46.6122 133.468 46.6412 133.381 46.6122 133.294C46.6122 133.265 46.3517 132.656 45.9175 132.367C45.3675 131.99 44.8465 132.251 44.8175 132.251C44.7307 132.28 44.7017 132.396 44.7596 132.454C44.7886 132.54 44.9043 132.54 44.9622 132.512C44.9622 132.512 45.3386 132.338 45.7149 132.598C46.0622 132.83 46.2938 133.381 46.2938 133.381C46.3517 133.468 46.3807 133.497 46.4096 133.497Z" fill="white"/>
<path d="M45.2221 134.134C45.2511 134.163 45.309 134.163 45.3379 134.134C45.4247 134.105 45.4537 134.018 45.4247 133.931C45.4247 133.902 45.1642 133.294 44.73 133.004C44.18 132.627 43.659 132.888 43.63 132.888C43.5432 132.917 43.5142 133.033 43.5721 133.091C43.6011 133.178 43.7168 133.178 43.7747 133.149C43.7747 133.149 44.1511 132.975 44.5274 133.236C44.8747 133.468 45.1063 134.018 45.1063 134.018C45.1642 134.076 45.1932 134.105 45.2221 134.134Z" fill="white"/>
<path d="M56.2504 137.437C56.2504 137.437 57.2925 137.118 57.6109 137.118C57.9004 137.118 59.9557 139.204 60.6215 139.291C61.8373 139.465 61.8952 141.32 61.1715 141.435C59.0583 141.783 55.382 141.059 55.382 141.059C55.382 141.059 54.9478 138.712 55.0636 137.959C55.2083 137.205 55.6425 137.669 56.2504 137.437Z" fill="#008EFF"/>
<path d="M58.0747 139.378C58.0457 139.378 57.9878 139.378 57.9589 139.349C57.901 139.32 57.8721 139.204 57.901 139.146C57.901 139.117 58.2484 138.596 58.6826 138.393C59.2615 138.132 59.6957 138.451 59.7247 138.48C59.7826 138.538 59.8115 138.625 59.7536 138.683C59.6957 138.741 59.6089 138.77 59.551 138.712C59.551 138.712 59.2326 138.48 58.8273 138.654C58.48 138.828 58.1615 139.291 58.1615 139.291C58.1326 139.349 58.1036 139.378 58.0747 139.378Z" fill="white"/>
<path d="M57.6401 138.973C57.6112 138.973 57.5533 138.973 57.5243 138.944C57.4664 138.915 57.4375 138.799 57.4664 138.741C57.4664 138.712 57.8138 138.19 58.248 137.987C58.827 137.727 59.2612 138.045 59.2901 138.074C59.348 138.132 59.377 138.219 59.3191 138.277C59.2612 138.335 59.1743 138.364 59.1164 138.306C59.1164 138.306 58.798 138.074 58.3927 138.248C58.0454 138.422 57.727 138.886 57.727 138.886C57.727 138.944 57.698 138.973 57.6401 138.973Z" fill="white"/>
<path d="M58.6538 139.726C58.6248 139.726 58.5669 139.726 58.538 139.697C58.4801 139.668 58.4512 139.552 58.4801 139.494C58.4801 139.465 58.8275 138.943 59.2617 138.741C59.8406 138.48 60.2748 138.799 60.3038 138.828C60.3617 138.886 60.3906 138.972 60.3327 139.03C60.2748 139.088 60.188 139.117 60.1301 139.059C60.1301 139.059 59.8117 138.828 59.4064 139.001C59.0591 139.175 58.7406 139.639 58.7406 139.639C58.7117 139.697 58.6827 139.726 58.6538 139.726Z" fill="white"/>
<path d="M59.1166 78.5039C59.1166 78.5039 60.6798 80.9377 60.5061 83.4585C60.3324 85.9792 60.7377 88.9056 58.4798 88.7607C56.2219 88.6448 52.1982 89.6589 50.9245 87.6887C49.6509 85.7184 59.1166 78.5039 59.1166 78.5039Z" fill="#2E3052"/>
<path d="M59.696 82.9371C59.696 82.9371 60.1012 86.5878 58.3644 87.6019C56.6275 88.616 55.3828 87.486 55.3828 87.486C55.3828 87.486 59.0302 82.3866 59.696 82.9371Z" fill="#000B29"/>
<path d="M52.4875 82.937C52.4875 82.937 51.8796 82.0967 51.4164 82.7921C50.9533 83.4875 51.6191 85.5157 52.748 85.0231L52.4875 82.937Z" fill="#FC8664"/>
<path d="M52.4868 84.3856C52.4578 84.3856 52.3999 84.3566 52.3999 84.3276C52.2263 83.6902 51.5894 83.4584 51.5605 83.4584C51.5026 83.4294 51.4736 83.3715 51.5026 83.3425C51.5315 83.2846 51.5894 83.2556 51.6184 83.2846C51.6473 83.2846 52.371 83.5743 52.5736 84.2986C52.5736 84.2986 52.5447 84.3566 52.4868 84.3856Z" fill="#FD664D"/>
<path d="M51.8217 84.067C51.7927 84.067 51.7927 84.067 51.7638 84.038C51.7059 84.009 51.7059 83.9511 51.7348 83.8931C51.7348 83.8931 51.8506 83.7193 52.0822 83.6034C52.1401 83.5744 52.198 83.6034 52.198 83.6614C52.2269 83.7193 52.198 83.7773 52.1401 83.7773C51.9664 83.8642 51.8506 84.009 51.8506 84.009C51.8796 84.038 51.8506 84.067 51.8217 84.067Z" fill="#FD664D"/>
<path d="M58.8845 82.937C58.8845 82.937 59.4924 82.0967 59.9556 82.7921C60.4188 83.4875 59.753 85.5157 58.624 85.0231L58.8845 82.937Z" fill="#FC8664"/>
<path d="M58.9141 84.3856C58.9431 84.3856 59.0009 84.3566 59.0009 84.3276C59.1746 83.6902 59.8115 83.4584 59.8404 83.4584C59.8983 83.4294 59.9273 83.3715 59.8983 83.3425C59.8694 83.2846 59.8115 83.2556 59.7825 83.2846C59.7536 83.2846 59.0299 83.5743 58.8273 84.2986C58.7983 84.2986 58.8273 84.3566 58.9141 84.3856C58.8852 84.3856 58.8852 84.3856 58.9141 84.3856Z" fill="#FD664D"/>
<path d="M59.5508 84.067C59.5797 84.067 59.5797 84.067 59.6087 84.038C59.6665 84.009 59.6665 83.9511 59.6376 83.8931C59.6376 83.8931 59.5218 83.7193 59.2902 83.6034C59.2323 83.5744 59.1744 83.6034 59.1744 83.6614C59.1455 83.7193 59.1744 83.7773 59.2323 83.7773C59.406 83.8642 59.5218 84.009 59.5218 84.009C59.4929 84.038 59.5218 84.067 59.5508 84.067Z" fill="#FD664D"/>
<path d="M57.2349 86.7325V88.7607C57.2349 88.7607 56.627 89.7748 55.8164 89.8617C55.0059 89.9197 54.2822 88.9635 54.2822 88.9635V86.8774L57.2349 86.7325Z" fill="#F9AF8B"/>
<path d="M57.2349 86.7325V87.6307C56.6849 88.2392 55.7296 88.442 54.2822 88.2392V86.8774L57.2349 86.7325Z" fill="#FC8664"/>
<path d="M59.3482 81.5462C59.3192 82.3285 59.2324 83.3137 59.0876 84.096C59.0587 84.2988 59.0008 84.4726 58.9719 84.6465C58.5376 86.1241 57.4955 88.6738 54.514 87.6308C53.2113 87.1672 52.6034 85.6895 52.314 84.2118C52.1403 83.1978 52.1113 82.1837 52.1113 81.4593C52.1113 80.706 52.5455 80.0396 53.1824 79.6629C54.9482 78.6778 56.7719 79.0255 58.0166 79.5181C58.8561 79.8078 59.3771 80.6481 59.3482 81.5462Z" fill="#F9AF8B"/>
<path d="M54.3687 83.2268C54.3687 83.4296 54.2529 83.6034 54.1082 83.6034C53.9634 83.6034 53.8477 83.4296 53.8477 83.2268C53.8477 83.0239 53.9634 82.8501 54.1082 82.8501C54.2819 82.8501 54.3687 83.0239 54.3687 83.2268Z" fill="#2E3052"/>
<path d="M57.4371 83.2268C57.4371 83.4296 57.3213 83.6034 57.1765 83.6034C57.0318 83.6034 56.916 83.4296 56.916 83.2268C56.916 83.0239 57.0318 82.8501 57.1765 82.8501C57.3213 82.8501 57.4371 83.0239 57.4371 83.2268Z" fill="#2E3052"/>
<path d="M53.6455 81.9519C53.8481 81.8939 54.2534 81.807 54.7165 81.807C54.8323 81.807 54.9192 81.9229 54.8902 82.0098C54.8613 82.0967 54.8034 82.1547 54.6876 82.1547C54.3981 82.1547 53.6166 82.1837 53.2402 82.3285C53.2402 82.2706 53.2692 82.1837 53.3271 82.1257C53.4139 82.0388 53.5297 81.9808 53.6455 81.9519Z" fill="#2E3052"/>
<path d="M57.64 81.9519C57.4374 81.8939 57.0321 81.807 56.5689 81.807C56.4532 81.807 56.3663 81.9229 56.3953 82.0098C56.4242 82.0967 56.4821 82.1547 56.5979 82.1547C56.8874 82.1547 57.6689 82.1837 58.0453 82.3285C58.0453 82.2706 58.0163 82.1837 57.9584 82.1257C57.8716 82.0388 57.7558 81.9808 57.64 81.9519Z" fill="#2E3052"/>
<path d="M55.7302 84.8204C55.6434 84.8204 55.5855 84.8204 55.5276 84.7625C55.4697 84.7335 55.4118 84.6756 55.3829 84.5307C55.3539 84.183 55.4408 83.082 55.4408 83.0241C55.4408 82.9661 55.4986 82.9371 55.5565 82.9371C55.6144 82.9371 55.6434 82.9951 55.6434 83.053C55.6434 83.053 55.5565 84.183 55.5855 84.5307C55.5855 84.5887 55.6144 84.6176 55.6434 84.6176C55.7302 84.6756 55.9329 84.6176 56.0197 84.5887C56.0776 84.5597 56.1355 84.5887 56.1355 84.6466C56.1644 84.7045 56.1355 84.7625 56.0776 84.7625C56.0487 84.7625 55.875 84.8204 55.7302 84.8204Z" fill="#FC8664"/>
<path d="M54.5137 85.4287C54.5716 85.8054 54.8321 86.4718 55.6426 86.4718C56.4531 86.4718 56.6847 85.8633 56.7716 85.4287H54.5137Z" fill="white"/>
<path d="M55.6137 87.0222C55.3821 87.0222 55.1794 86.9063 55.1505 86.8773C55.0926 86.8484 55.0926 86.7904 55.1216 86.7325C55.1505 86.6745 55.2084 86.6745 55.2663 86.7035C55.2663 86.7035 55.44 86.8194 55.6137 86.8194C55.8163 86.8194 55.99 86.7035 55.99 86.7035C56.0479 86.6745 56.1058 86.7035 56.1347 86.7325C56.1637 86.7904 56.1347 86.8484 56.1058 86.8773C56.0768 86.9063 55.8742 87.0222 55.6137 87.0222Z" fill="#FC8664"/>
<path d="M59.7243 81.4014C59.6953 81.4883 59.6085 81.5462 59.4927 81.5752C59.4927 81.778 59.4927 82.0388 59.4637 82.2706C59.348 83.6613 59.0006 83.8931 58.9137 83.5454C58.8558 83.3136 58.8558 82.0098 58.8848 81.5752C58.6243 81.5462 58.3637 81.5173 58.3637 81.5173L58.0453 80.1845L57.9295 81.5173C57.4374 81.6911 56.3374 81.4303 56.3374 81.4303L55.9611 80.0975L55.7295 81.3724C55.0058 81.7201 54.1085 81.4883 54.1085 81.4883L53.9058 80.1265L53.4137 81.4883C53.4137 81.4883 51.8795 82.0388 51.8506 81.4883C51.8506 81.1696 52.0822 80.2714 52.2848 79.547C52.4874 78.7937 53.0085 78.1273 53.6743 77.7796C55.5848 76.7655 57.6111 77.2871 58.3058 77.7217C59.7822 78.5909 59.7243 81.4014 59.7243 81.4014Z" fill="#2E3052"/>
<path d="M52.7192 78.5909C52.7192 78.5909 51.4455 80.0976 51.0402 82.7922C50.635 85.4867 50.056 87.4859 51.6771 88.3841C53.4429 89.3403 53.2692 87.37 53.2692 86.8485C53.2402 86.298 51.735 84.8493 52.7481 80.706C53.0376 79.3443 52.7192 78.5909 52.7192 78.5909Z" fill="#2E3052"/>
<path d="M52.4297 84.1538C52.4297 84.1538 52.4297 84.1828 52.4297 84.1538C52.4297 84.1828 52.4297 84.2987 52.4297 84.4435C52.4297 84.5594 52.4297 84.6753 52.4586 84.8202C52.5165 85.7184 52.6902 87.312 53.2113 87.8335C53.4139 88.0363 53.8192 88.1522 54.2823 88.2102V87.4858C53.7902 87.254 53.4139 86.8774 53.1244 86.4138C52.9507 86.0081 52.6323 85.3997 52.4876 84.4146L52.4297 84.1538Z" fill="#000B29"/>
<path d="M59.3772 85.0521C59.3772 85.168 59.2904 85.2839 59.1456 85.2839C59.0299 85.2839 58.9141 85.197 58.9141 85.0521C58.9141 84.9362 59.0009 84.8203 59.1456 84.8203C59.2614 84.8203 59.3772 84.9362 59.3772 85.0521Z" fill="white"/>
<path d="M126.968 65.7267H121.468C121.034 65.7267 120.716 65.379 120.716 64.9733V59.4683C120.716 59.0337 121.063 58.715 121.468 58.715H126.968C127.403 58.715 127.721 59.0627 127.721 59.4683V64.9733C127.721 65.379 127.374 65.7267 126.968 65.7267Z" fill="#FFAA01"/>
<path d="M126.592 62.1917C126.592 62.7712 126.39 63.2927 126.042 63.7273C125.608 64.2489 124.942 64.5965 124.19 64.5965C123.437 64.5965 122.771 64.2489 122.337 63.7273C121.99 63.3217 121.787 62.7712 121.787 62.1917C121.787 60.8589 122.858 59.7869 124.19 59.7869C125.521 59.7869 126.592 60.8589 126.592 62.1917Z" fill="#FDCC50"/>
<path d="M126.042 63.7273C125.608 64.2488 124.942 64.5965 124.19 64.5965C123.437 64.5965 122.771 64.2488 122.337 63.7273L122.366 63.6693C122.424 63.5535 122.482 63.4665 122.568 63.4086C122.655 63.3217 122.742 63.2927 122.858 63.2347C123.234 63.1188 123.611 63.0029 123.813 62.6553C123.553 62.5394 123.408 62.3076 123.321 62.1337C123.061 62.1917 122.858 61.6991 123.003 61.5542C123.061 61.4963 123.119 61.4963 123.176 61.4963C123.234 60.9748 123.64 60.5402 124.161 60.5402C124.682 60.5402 125.116 61.0037 125.145 61.4963C125.203 61.4963 125.261 61.4963 125.318 61.5542C125.463 61.6991 125.261 62.1917 125 62.1337C124.942 62.3076 124.74 62.5394 124.566 62.6263C124.768 62.974 125.087 63.1188 125.492 63.2347C125.608 63.2637 125.695 63.3217 125.782 63.4086C125.869 63.4955 125.926 63.5824 125.984 63.6693L126.042 63.7273Z" fill="white"/>
<path d="M35.5817 103.132H30.0817C29.6475 103.132 29.3291 102.784 29.3291 102.379V96.8736C29.3291 96.439 29.6765 96.1202 30.0817 96.1202H35.5817C36.0159 96.1202 36.3344 96.4679 36.3344 96.8736V102.379C36.3633 102.784 36.0159 103.132 35.5817 103.132Z" fill="#FFAA01"/>
<path d="M32.9479 97.2793C32.0505 97.2213 31.2979 97.9457 31.2979 98.8149C31.2979 99.1046 31.3847 99.3654 31.5005 99.5972C31.7031 99.9449 31.9057 100.293 32.1084 100.64L32.8321 101.944L33.9321 99.9449C33.99 99.829 34.0768 99.7131 34.1347 99.5972C34.2794 99.3654 34.3663 99.0756 34.3373 98.7859C34.3663 98.0036 33.7294 97.3372 32.9479 97.2793ZM32.8321 99.2785C32.4847 99.2785 32.1952 98.9887 32.1952 98.641C32.1952 98.2933 32.4847 98.0036 32.8321 98.0036C33.1794 98.0036 33.4689 98.2933 33.4689 98.641C33.4979 98.9887 33.2084 99.2785 32.8321 99.2785Z" fill="white"/>
<path d="M151.139 68.0444C152.008 68.0444 152.702 68.7398 152.702 69.609C152.702 70.4782 152.008 71.1736 151.139 71.1736C150.271 71.1736 149.576 70.4782 149.576 69.609C149.576 68.7398 150.271 68.0444 151.139 68.0444ZM151.139 70.6811C151.747 70.6811 152.21 70.1885 152.21 69.609C152.21 69.0295 151.718 68.537 151.139 68.537C150.531 68.537 150.068 69.0295 150.068 69.609C150.068 70.1885 150.531 70.6811 151.139 70.6811Z" fill="#008EFF"/>
<path d="M145.495 62.5105C146.363 62.5105 147.058 63.2059 147.058 64.0751C147.058 64.9443 146.363 65.6397 145.495 65.6397C144.626 65.6397 143.932 64.9443 143.932 64.0751C143.903 63.2348 144.626 62.5105 145.495 62.5105ZM145.495 65.1761C146.103 65.1761 146.566 64.6835 146.566 64.1041C146.566 63.4956 146.074 63.032 145.495 63.032C144.887 63.032 144.424 63.5246 144.424 64.1041C144.395 64.6835 144.887 65.1761 145.495 65.1761Z" fill="#FFAA01"/>
<path d="M143.555 57.4111C143.7 57.4111 143.816 57.527 143.816 57.6719V58.7729C143.816 58.9178 143.7 59.0337 143.555 59.0337C143.411 59.0337 143.295 58.9178 143.295 58.7729V57.6719C143.295 57.527 143.411 57.4111 143.555 57.4111Z" fill="#008EFF"/>
<path d="M143.555 55.5278C143.7 55.5278 143.816 55.6437 143.816 55.7886V56.8896C143.816 57.0345 143.7 57.1504 143.555 57.1504C143.411 57.1504 143.295 57.0345 143.295 56.8896V55.7886C143.295 55.6148 143.411 55.5278 143.555 55.5278Z" fill="#008EFF"/>
<path d="M142.021 57.0054H143.005C143.15 57.0054 143.266 57.1213 143.266 57.2661C143.266 57.411 143.15 57.5269 143.005 57.5269H142.021C141.877 57.5269 141.761 57.411 141.761 57.2661C141.761 57.1213 141.877 57.0054 142.021 57.0054Z" fill="#008EFF"/>
<path d="M144.105 57.0054H145.089C145.234 57.0054 145.35 57.1213 145.35 57.2661C145.35 57.411 145.234 57.5269 145.089 57.5269H144.105C143.961 57.5269 143.845 57.411 143.845 57.2661C143.845 57.1213 143.961 57.0054 144.105 57.0054Z" fill="#008EFF"/>
<path d="M152.211 63.4957C152.355 63.4957 152.471 63.6116 152.471 63.7565V64.8575C152.471 65.0024 152.355 65.1183 152.211 65.1183C152.066 65.1183 151.95 65.0024 151.95 64.8575V63.7565C151.95 63.6116 152.066 63.4957 152.211 63.4957Z" fill="#FFAA01"/>
<path d="M152.211 61.6124C152.355 61.6124 152.471 61.7283 152.471 61.8732V62.9742C152.471 63.1191 152.355 63.235 152.211 63.235C152.066 63.235 151.95 63.1191 151.95 62.9742V61.8732C151.95 61.7283 152.066 61.6124 152.211 61.6124Z" fill="#FFAA01"/>
<path d="M150.677 63.09H151.661C151.805 63.09 151.921 63.2059 151.921 63.3507C151.921 63.4956 151.805 63.6115 151.661 63.6115H150.677C150.532 63.6115 150.416 63.4956 150.416 63.3507C150.445 63.2059 150.561 63.09 150.677 63.09Z" fill="#FFAA01"/>
<path d="M152.761 63.09H153.745C153.889 63.09 154.005 63.2059 154.005 63.3507C154.005 63.4956 153.889 63.6115 153.745 63.6115H152.761C152.616 63.6115 152.5 63.4956 152.5 63.3507C152.5 63.2059 152.616 63.09 152.761 63.09Z" fill="#FFAA01"/>
<path d="M53.9351 47.9657C54.8035 47.9657 55.4983 48.6611 55.4983 49.5303C55.4983 50.3995 54.8035 51.0949 53.9351 51.0949C53.0667 51.0949 52.3719 50.3995 52.3719 49.5303C52.343 48.69 53.0667 47.9657 53.9351 47.9657ZM53.9351 48.4583C53.3272 48.4583 52.864 48.9508 52.864 49.5303C52.864 50.1387 53.3561 50.6023 53.9351 50.6023C54.543 50.6023 55.0061 50.1098 55.0061 49.5303C55.0061 48.9508 54.514 48.4583 53.9351 48.4583Z" fill="#008EFF"/>
<path d="M48.2028 42.7793C49.0712 42.7793 49.766 43.4747 49.766 44.3439C49.766 45.2131 49.0712 45.9085 48.2028 45.9085C47.3344 45.9085 46.6396 45.2131 46.6396 44.3439C46.6396 43.4747 47.3344 42.7793 48.2028 42.7793ZM48.2028 43.2719C47.5949 43.2719 47.1318 43.7644 47.1318 44.3439C47.1318 44.9523 47.6239 45.4159 48.2028 45.4159C48.8107 45.4159 49.2739 44.9234 49.2739 44.3439C49.2739 43.7644 48.8107 43.2719 48.2028 43.2719Z" fill="#FFAA01"/>
<path d="M46.1484 51.7615C46.1484 51.9064 46.2642 52.0223 46.409 52.0223H47.509C47.6537 52.0223 47.7695 51.9064 47.7695 51.7615C47.7695 51.6166 47.6537 51.5007 47.509 51.5007H46.409C46.2353 51.5297 46.1484 51.6166 46.1484 51.7615Z" fill="#008EFF"/>
<path d="M44.2373 51.7615C44.2373 51.9064 44.3531 52.0223 44.4978 52.0223H45.5978C45.7426 52.0223 45.8584 51.9064 45.8584 51.7615C45.8584 51.6166 45.7426 51.5007 45.5978 51.5007H44.4978C44.3531 51.5297 44.2373 51.6166 44.2373 51.7615Z" fill="#008EFF"/>
<path d="M45.7422 50.2257V51.2108C45.7422 51.3557 45.858 51.4716 46.0027 51.4716C46.1474 51.4716 46.2632 51.3557 46.2632 51.2108V50.2257C46.2632 50.0809 46.1474 49.965 46.0027 49.965C45.858 49.965 45.7422 50.1098 45.7422 50.2257Z" fill="#008EFF"/>
<path d="M45.7422 52.3118V53.2969C45.7422 53.4418 45.858 53.5577 46.0027 53.5577C46.1474 53.5577 46.2632 53.4418 46.2632 53.2969V52.3118C46.2632 52.1669 46.1474 52.051 46.0027 52.051C45.858 52.051 45.7422 52.1669 45.7422 52.3118Z" fill="#008EFF"/>
<path d="M57.6406 43.272C57.6406 43.4169 57.7564 43.5328 57.9012 43.5328H59.0012C59.1459 43.5328 59.2617 43.4169 59.2617 43.272C59.2617 43.1271 59.1459 43.0112 59.0012 43.0112H57.9012C57.7564 43.0402 57.6406 43.1271 57.6406 43.272Z" fill="#FFAA01"/>
<path d="M55.7295 43.272C55.7295 43.4169 55.8453 43.5328 55.99 43.5328H57.09C57.2348 43.5328 57.3505 43.4169 57.3505 43.272C57.3505 43.1271 57.2348 43.0112 57.09 43.0112H55.99C55.8453 43.0402 55.7295 43.1271 55.7295 43.272Z" fill="#FFAA01"/>
<path d="M57.2344 41.7362V42.7213C57.2344 42.8662 57.3502 42.9821 57.4949 42.9821C57.6396 42.9821 57.7554 42.8662 57.7554 42.7213V41.7362C57.7554 41.5914 57.6396 41.4755 57.4949 41.4755C57.3502 41.5044 57.2344 41.6203 57.2344 41.7362Z" fill="#FFAA01"/>
<path d="M57.2344 43.8223V44.8074C57.2344 44.9523 57.3502 45.0682 57.4949 45.0682C57.6396 45.0682 57.7554 44.9523 57.7554 44.8074V43.8223C57.7554 43.6774 57.6396 43.5615 57.4949 43.5615C57.3502 43.5905 57.2344 43.6774 57.2344 43.8223Z" fill="#FFAA01"/>
<path d="M123.09 50.863C123.119 50.863 123.148 50.863 123.206 50.863C123.582 50.7761 123.785 50.7471 123.785 50.7471C123.901 50.7181 123.959 50.6312 123.959 50.5153C123.93 50.3994 123.843 50.3414 123.727 50.3704C123.727 50.3704 123.495 50.3994 123.119 50.5153C123.003 50.5443 122.945 50.6602 122.974 50.7471C122.945 50.805 123.003 50.834 123.09 50.863Z" fill="#DCEDF9"/>
<path d="M111.019 59.8159C110.816 60.1347 110.643 60.4823 110.469 60.83C110.44 60.917 110.324 60.9459 110.238 60.9459H110.209C110.093 60.888 110.064 60.7721 110.122 60.6852C110.295 60.3375 110.498 59.9898 110.701 59.6421C110.759 59.5552 110.874 59.5262 110.99 59.5552C111.048 59.5842 111.077 59.7 111.019 59.8159Z" fill="#DCEDF9"/>
<path d="M109.976 61.873C109.832 62.2206 109.687 62.5973 109.542 62.945C109.513 63.0319 109.397 63.0899 109.282 63.0609C109.282 63.0609 109.282 63.0609 109.253 63.0609C109.137 63.0319 109.079 62.916 109.137 62.8001C109.282 62.4235 109.426 62.0468 109.571 61.6991C109.6 61.6122 109.745 61.5542 109.832 61.5832C109.976 61.6701 110.034 61.786 109.976 61.873Z" fill="#DCEDF9"/>
<path d="M108.211 67.5808C108.124 67.5518 108.037 67.4649 108.066 67.378C108.124 67.0013 108.182 66.5957 108.24 66.219C108.269 66.1031 108.356 66.0452 108.471 66.0742C108.587 66.1031 108.674 66.1901 108.645 66.3059C108.587 66.6826 108.5 67.0593 108.471 67.4359C108.471 67.5229 108.356 67.6098 108.211 67.5808C108.24 67.5808 108.24 67.5808 108.211 67.5808Z" fill="#DCEDF9"/>
<path d="M109.051 63.8144C109.166 63.8434 109.224 63.9593 109.195 64.0462C109.137 64.22 109.108 64.3939 109.051 64.5677C108.993 64.7705 108.935 64.9733 108.906 65.1762C108.877 65.2921 108.761 65.35 108.645 65.321C108.529 65.2921 108.472 65.2051 108.501 65.0892C108.558 64.8864 108.587 64.6836 108.645 64.4808C108.703 64.3069 108.732 64.1331 108.79 63.9593C108.819 63.8434 108.935 63.7854 109.051 63.8144Z" fill="#DCEDF9"/>
<path d="M111.656 58.802C111.598 58.8889 111.511 58.9179 111.424 58.8889C111.395 58.8889 111.395 58.8889 111.366 58.8599C111.279 58.802 111.251 58.6861 111.308 58.5992C111.54 58.2805 111.772 57.9328 112.003 57.643C112.061 57.5561 112.206 57.5271 112.293 57.5851C112.38 57.643 112.408 57.7589 112.351 57.8458C112.09 58.1646 111.858 58.4833 111.656 58.802Z" fill="#DCEDF9"/>
<path d="M122.019 51.1817C121.642 51.2976 121.266 51.4424 120.89 51.5873C120.861 51.6163 120.803 51.6163 120.774 51.5873C120.716 51.5583 120.658 51.5294 120.629 51.4714C120.571 51.3845 120.629 51.2686 120.745 51.2107C121.121 51.0658 121.527 50.9209 121.903 50.805C122.019 50.776 122.134 50.834 122.163 50.9209C122.192 51.0368 122.134 51.1527 122.019 51.1817Z" fill="#DCEDF9"/>
<path d="M118.69 52.6014C118.633 52.6304 118.575 52.6304 118.546 52.6304C118.488 52.6304 118.43 52.5724 118.401 52.5435C118.343 52.4565 118.372 52.3406 118.488 52.2827C118.835 52.0799 119.212 51.906 119.588 51.7322C119.704 51.6742 119.819 51.7322 119.877 51.8191C119.935 51.906 119.877 52.0219 119.79 52.0799C119.414 52.2247 119.038 52.3986 118.69 52.6014Z" fill="#DCEDF9"/>
<path d="M114.753 55.296C114.695 55.354 114.637 55.354 114.55 55.354C114.521 55.354 114.493 55.325 114.464 55.296C114.377 55.2091 114.377 55.0932 114.464 55.0063C114.753 54.7455 115.071 54.4847 115.39 54.224C115.477 54.166 115.621 54.166 115.679 54.253C115.766 54.3399 115.737 54.4558 115.65 54.5137C115.361 54.7745 115.043 55.0352 114.753 55.296Z" fill="#DCEDF9"/>
<path d="M116.634 53.8184C116.576 53.8473 116.518 53.8763 116.46 53.8473C116.403 53.8473 116.374 53.8184 116.345 53.7604C116.287 53.6735 116.287 53.5576 116.403 53.4996C116.75 53.2679 117.068 53.0361 117.445 52.8332C117.532 52.7753 117.676 52.8043 117.734 52.8912C117.792 52.9781 117.763 53.094 117.676 53.152C117.3 53.3838 116.953 53.6155 116.634 53.8184Z" fill="#DCEDF9"/>
<path d="M113.075 56.9475C113.017 57.0054 112.93 57.0344 112.872 57.0054C112.843 57.0054 112.814 56.9764 112.785 56.9764C112.698 56.9185 112.698 56.7736 112.756 56.7157C113.017 56.4259 113.306 56.1072 113.567 55.8464C113.654 55.7595 113.769 55.7595 113.856 55.8464C113.943 55.9334 113.943 56.0493 113.856 56.1362C113.596 56.368 113.335 56.6577 113.075 56.9475Z" fill="#DCEDF9"/>
<path d="M123.293 49.5302L122.888 46.2852L133.888 47.8787L123.293 49.5302Z" fill="#008EFF"/>
<path d="M133.887 47.8787L123.727 50.3704H123.698L123.177 50.9499L123.293 49.5302L133.887 47.8787Z" fill="#0077EB"/>
<path d="M123.177 50.95H124.103L123.698 50.3705L123.177 50.95Z" fill="#0059D3"/>
<path d="M124.972 50.0517L123.698 50.3704L125.782 53.3547L133.888 47.8787L124.972 50.0517Z" fill="#008EFF"/>
</g>
<path d="M195.42 92C199.852 92 202.537 89.2585 202.537 84.7131C202.537 80.1818 199.852 77.4545 195.463 77.4545H190.264V83.4418H188.24V85.2244H190.264V92H195.42ZM193.339 89.3651V85.2244H195.328V83.4418H193.339V80.0895H195.3C198.027 80.0895 199.469 81.4815 199.469 84.7131C199.469 87.9588 198.027 89.3651 195.293 89.3651H193.339ZM207.322 92L208.402 88.6832H213.65L214.73 92H218.025L213.011 77.4545H209.048L204.027 92H207.322ZM209.183 86.2827L210.973 80.7784H211.086L212.876 86.2827H209.183ZM209.943 76.0483H212.081L214.247 72.8168H211.449L209.943 76.0483ZM231.942 77.4545H228.881V86.6023H228.753L222.475 77.4545H219.776V92H222.851V82.8452H222.958L229.286 92H231.942V77.4545ZM234.483 92H237.558V85.9915H243.801V92H246.869V77.4545H243.801V83.456H237.558V77.4545H234.483V92ZM263.679 82.1562H266.804C266.406 79.2798 263.87 77.2557 260.582 77.2557C256.74 77.2557 253.778 80.0256 253.778 84.7415C253.778 89.3438 256.548 92.1989 260.646 92.1989C264.318 92.1989 266.939 89.8764 266.939 86.0483V84.2159H260.852V86.5312H263.977C263.934 88.3352 262.706 89.4787 260.66 89.4787C258.352 89.4787 256.896 87.7528 256.896 84.7131C256.896 81.6875 258.409 79.9759 260.632 79.9759C262.216 79.9759 263.288 80.7926 263.679 82.1562ZM272.324 77.4545H269.249V92H272.324V77.4545ZM277.361 92L278.441 88.6832H283.689L284.769 92H288.064L283.05 77.4545H279.087L274.066 92H277.361ZM279.222 86.2827L281.012 80.7784H281.125L282.915 86.2827H279.222ZM279.982 76.0483H282.12L284.286 72.8168H281.488L279.982 76.0483Z" fill="#0065C8"/>
<defs>
<clipPath id="clip0">
<rect width="132" height="109" fill="white" transform="translate(26 34)"/>
</clipPath>
</defs>
</svg>
