<svg width="827" height="164" viewBox="0 0 827 164" fill="none" xmlns="http://www.w3.org/2000/svg">
<path opacity="0.3" d="M67.136 29.08C64.256 27.736 60.848 27.064 56.912 27.064C49.328 27.064 42.944 29.8 37.76 35.272C32.672 40.744 28.88 47.656 26.384 56.008C23.984 64.264 22.88 72.616 23.072 81.064C23.84 105.832 31.28 118.216 45.392 118.216C48.464 118.216 51.536 117.832 54.608 117.064C57.776 116.2 60.416 114.664 62.528 112.456C64.064 109.96 65.792 105.112 67.712 97.912H79.52L76.496 118.936C67.376 125.08 55.904 128.152 42.08 128.152C32.48 128.152 24.608 126.04 18.464 121.816C12.32 117.592 7.856 112.024 5.072 105.112C2.288 98.104 0.896 90.328 0.896 81.784C0.896 68.92 3.392 57.736 8.384 48.232C13.376 38.728 20.336 31.432 29.264 26.344C38.192 21.256 48.416 18.712 59.936 18.712C65.408 18.712 69.728 18.952 72.896 19.432C76.16 19.912 78.8 20.44 80.816 21.016C82.832 21.496 84.224 21.832 84.992 22.024L87.584 22.744L83.264 50.104H69.152L67.136 29.08ZM119.123 63.64C122.675 58.072 126.899 53.608 131.795 50.248C136.787 46.888 142.067 45.208 147.635 45.208C153.299 45.208 157.667 46.84 160.739 50.104C163.907 53.368 165.491 58.792 165.491 66.376C165.491 69.352 164.915 74.056 163.763 80.488C162.707 86.92 162.131 90.568 162.035 91.432L161.171 96.04C160.595 99.208 160.019 102.472 159.443 105.832C158.963 109.192 158.723 111.928 158.723 114.04C158.723 116.632 159.539 117.928 161.171 117.928C162.035 117.928 162.947 117.688 163.907 117.208C164.867 116.632 166.211 115.672 167.939 114.328L169.811 118.792C168.563 120.712 166.259 122.824 162.899 125.128C159.539 127.336 155.507 128.44 150.803 128.44C146.099 128.44 142.883 127.528 141.155 125.704C139.427 123.784 138.563 121.096 138.563 117.64C138.659 114.76 139.571 109.048 141.299 100.504L142.163 95.608C142.355 94.744 142.739 92.44 143.315 88.696C143.987 84.952 144.515 81.4 144.899 78.04C145.283 74.584 145.475 71.608 145.475 69.112C145.475 64.696 144.947 61.672 143.891 60.04C142.835 58.408 141.059 57.592 138.563 57.592C135.299 57.592 131.651 59.464 127.619 63.208C123.683 66.856 120.323 71.32 117.539 76.6L111.203 127H92.0514L105.155 22.024L96.5154 19.144L97.5234 13.816L122.147 10.936L125.603 12.808L119.123 63.64ZM244.263 112.312C244.167 112.696 244.119 113.272 244.119 114.04C244.119 116.536 245.079 117.784 246.999 117.784C248.535 117.784 250.695 116.632 253.479 114.328L255.495 118.792C254.247 120.712 251.991 122.824 248.727 125.128C245.559 127.336 241.863 128.44 237.639 128.44C234.375 128.44 231.783 127.72 229.863 126.28C227.943 124.84 226.935 122.632 226.839 119.656L227.127 117.208C224.439 120.376 221.175 123.064 217.335 125.272C213.495 127.384 209.271 128.44 204.663 128.44C196.599 128.44 190.551 125.704 186.519 120.232C182.583 114.664 180.615 107.416 180.615 98.488C180.615 89.656 182.439 81.16 186.087 73C189.831 64.84 195.255 58.168 202.359 52.984C209.463 47.8 217.911 45.208 227.703 45.208C230.199 45.208 232.887 45.496 235.767 46.072C238.743 46.648 241.335 47.32 243.543 48.088L253.479 45.208L244.263 112.312ZM233.175 55.432C231.351 54.568 228.999 54.136 226.119 54.136C220.359 54.136 215.559 56.344 211.719 60.76C207.879 65.08 205.047 70.6 203.223 77.32C201.495 83.944 200.631 90.664 200.631 97.48C200.631 103.816 201.591 108.76 203.511 112.312C205.431 115.768 208.263 117.496 212.007 117.496C214.407 117.496 216.807 116.68 219.207 115.048C221.703 113.416 223.911 111.496 225.831 109.288L233.175 55.432ZM231.591 34.984C228.135 33.256 223.287 29.752 217.047 24.472C210.903 19.192 206.871 14.824 204.951 11.368L217.191 0.42399L237.783 30.52L231.591 34.984ZM309.05 45.064C319.034 45.064 326.666 47.992 331.946 53.848C337.226 59.608 339.866 67.912 339.866 78.76C339.866 87.688 338.042 95.992 334.394 103.672C330.746 111.352 325.61 117.496 318.986 122.104C312.362 126.616 304.778 128.872 296.234 128.872C286.25 128.872 278.618 125.944 273.338 120.088C268.154 114.136 265.562 105.688 265.562 94.744C265.562 85.72 267.338 77.416 270.89 69.832C274.538 62.248 279.674 56.248 286.298 51.832C292.922 47.32 300.506 45.064 309.05 45.064ZM306.602 54.136C302.186 54.136 298.442 56.152 295.37 60.184C292.298 64.12 289.994 69.16 288.458 75.304C287.018 81.448 286.298 87.736 286.298 94.168C286.298 103.288 287.306 109.96 289.322 114.184C291.434 118.408 294.698 120.52 299.114 120.52C303.434 120.52 307.082 118.504 310.058 114.472C313.034 110.44 315.242 105.304 316.682 99.064C318.122 92.824 318.842 86.44 318.842 79.912C318.842 70.792 317.834 64.216 315.818 60.184C313.898 56.152 310.826 54.136 306.602 54.136ZM413.619 62.776C417.075 57.592 421.203 53.368 426.003 50.104C430.803 46.84 435.843 45.208 441.123 45.208C446.499 45.208 450.675 46.648 453.651 49.528C456.723 52.312 458.499 56.824 458.979 63.064C462.339 57.496 466.419 53.128 471.219 49.96C476.115 46.792 481.395 45.208 487.059 45.208C499.059 45.208 505.059 52.264 505.059 66.376C505.059 69.448 504.099 76.552 502.179 87.688L501.603 91.432L500.883 95.176C499.251 104.104 498.387 110.248 498.291 113.608C498.291 116.392 499.107 117.784 500.739 117.784C501.603 117.784 502.515 117.544 503.475 117.064C504.531 116.488 505.923 115.48 507.651 114.04L509.523 118.504C508.179 120.52 505.827 122.68 502.467 124.984C499.107 127.288 495.075 128.44 490.371 128.44C485.859 128.44 482.739 127.528 481.011 125.704C479.283 123.88 478.419 121.432 478.419 118.36C478.419 116.44 478.707 113.656 479.283 110.008C479.859 106.264 480.483 102.52 481.155 98.776L481.731 95.464C482.883 88.936 483.699 83.8 484.179 80.056C484.755 76.312 485.043 72.664 485.043 69.112C485.043 64.696 484.515 61.672 483.459 60.04C482.499 58.408 480.771 57.592 478.275 57.592C475.203 57.592 471.843 59.08 468.195 62.056C464.643 65.032 461.571 68.824 458.979 73.432C458.595 79.096 457.971 85.096 457.107 91.432L452.643 127H433.203L437.379 95.608C439.107 83.704 439.971 74.68 439.971 68.536C439.875 64.12 439.251 61.192 438.099 59.752C437.043 58.312 435.123 57.592 432.339 57.592C429.267 57.592 425.763 59.272 421.827 62.632C417.987 65.992 414.771 70.024 412.179 74.728L404.979 127H386.259L395.475 58.456L388.131 54.568L389.283 48.664L411.747 45.208L415.059 46.792L413.619 62.776ZM544.269 128.44C538.893 128.44 534.333 127 530.589 124.12C526.845 121.144 524.925 116.44 524.829 110.008C524.829 106.264 525.501 99.496 526.845 89.704C527.229 87.304 527.469 85.672 527.565 84.808L531.453 58.6L523.101 53.704L524.253 47.8L548.157 45.352L551.469 46.936L546.573 85.384C546.189 88.936 545.853 91.432 545.565 92.872C544.605 100.36 544.125 105.16 544.125 107.272C544.125 111.112 544.797 113.848 546.141 115.48C547.485 117.112 549.501 117.928 552.189 117.928C555.261 117.928 558.285 116.968 561.261 115.048C564.333 113.128 566.925 110.824 569.037 108.136L577.389 45.928H588.333C591.117 45.064 593.085 43.768 594.237 42.04C595.485 40.216 596.109 38.056 596.109 35.56V33.4H611.805L611.373 38.152C610.701 42.856 608.973 46.504 606.189 49.096C603.405 51.688 599.709 53.512 595.101 54.568L587.181 112.6C586.989 114.328 587.133 115.624 587.613 116.488C588.093 117.352 588.813 117.784 589.773 117.784C590.637 117.784 591.549 117.544 592.509 117.064C593.469 116.488 594.813 115.48 596.541 114.04L598.557 118.504C597.309 120.52 595.005 122.68 591.645 124.984C588.285 127.288 584.445 128.44 580.125 128.44C576.765 128.44 574.173 127.72 572.349 126.28C570.621 124.84 569.661 122.872 569.469 120.376L569.325 118.648C569.325 117.88 569.421 116.92 569.613 115.768L569.325 115.624C562.221 124.168 553.869 128.44 544.269 128.44ZM568.173 34.84C564.717 33.112 559.869 29.608 553.629 24.328C547.485 19.048 543.453 14.68 541.533 11.224L553.773 0.279992L574.365 30.376L568.173 34.84ZM638.9 62.632C642.452 57.352 646.676 53.128 651.572 49.96C656.468 46.792 661.604 45.208 666.98 45.208C678.884 45.208 684.836 52.264 684.836 66.376C684.836 70.12 683.636 78.472 681.236 91.432C680.852 93.928 680.516 95.848 680.228 97.192C678.884 104.776 678.164 110.248 678.068 113.608V114.184C678.068 116.584 678.836 117.784 680.372 117.784C681.236 117.784 682.148 117.544 683.108 117.064C684.068 116.584 685.316 115.72 686.852 114.472L688.868 118.936C687.428 120.952 685.076 123.064 681.812 125.272C678.548 127.384 674.564 128.44 669.86 128.44C665.348 128.44 662.228 127.48 660.5 125.56C658.772 123.544 657.908 120.904 657.908 117.64C658.004 114.76 658.916 109.048 660.644 100.504L661.508 95.608C661.7 94.744 662.084 92.44 662.66 88.696C663.332 84.952 663.86 81.4 664.244 78.04C664.628 74.584 664.82 71.608 664.82 69.112C664.82 64.696 664.292 61.672 663.236 60.04C662.276 58.408 660.5 57.592 657.908 57.592C654.74 57.592 651.188 59.368 647.252 62.92C643.412 66.472 640.1 70.744 637.316 75.736L630.404 127H611.54L620.756 58.456L613.412 54.568L614.564 48.664L637.028 45.208L640.34 46.792L638.9 62.632ZM761.86 132.472C760.42 143.416 755.716 151.24 747.748 155.944C739.78 160.744 730.66 163.144 720.388 163.144C717.22 163.144 713.812 162.808 710.164 162.136C706.612 161.56 704.116 160.936 702.676 160.264L705.988 146.728C707.812 147.88 710.596 149.176 714.34 150.616C718.084 152.056 721.684 152.776 725.14 152.776C730.708 152.776 734.788 151.672 737.38 149.464C739.972 147.256 741.652 143.08 742.42 136.936L744.58 119.8C741.988 122.296 738.964 124.36 735.508 125.992C732.052 127.624 728.308 128.44 724.276 128.44C716.212 128.44 710.116 125.704 705.988 120.232C701.956 114.664 699.939 107.416 699.939 98.488C699.939 89.656 701.764 81.16 705.412 73C709.156 64.84 714.58 58.168 721.684 52.984C728.884 47.8 737.38 45.208 747.172 45.208C749.86 45.208 752.74 45.544 755.812 46.216C758.884 46.792 761.572 47.512 763.876 48.376L774.1 45.208L761.86 132.472ZM753.796 55.864C751.78 54.712 748.996 54.136 745.444 54.136C739.684 54.136 734.884 56.392 731.044 60.904C727.204 65.32 724.372 70.888 722.548 77.608C720.82 84.232 719.956 90.904 719.956 97.624C719.956 103.864 720.964 108.76 722.98 112.312C725.092 115.768 727.972 117.496 731.62 117.496C734.308 117.496 736.9 116.728 739.396 115.192C741.988 113.56 744.196 111.64 746.02 109.432L753.796 55.864ZM826.513 2.008L809.089 90.712H796.993L806.353 2.008H826.513ZM788.641 118.504C788.641 114.856 789.841 111.88 792.241 109.576C794.737 107.176 797.473 105.976 800.449 105.976C803.425 105.976 805.681 106.888 807.217 108.712C808.753 110.536 809.521 112.84 809.521 115.624C809.521 119.656 808.225 122.824 805.633 125.128C803.137 127.336 800.257 128.44 796.993 128.44C794.689 128.44 792.721 127.528 791.089 125.704C789.457 123.784 788.641 121.384 788.641 118.504Z" fill="white"/>
</svg>
